<?xml version="1.0" encoding="UTF-8"?> <svg xmlns="http://www.w3.org/2000/svg" id="Layer_1" data-name="Layer 1" viewBox="0 0 300 150"><defs><style>.cls-1{fill:#333;}</style></defs><path class="cls-1" d="M103.14,68.2h3.1a18.39,18.39,0,0,1,3.61.23A4,4,0,0,1,112,69.79a4.35,4.35,0,0,1,0,5.14,4.08,4.08,0,0,1-2.28,1.37,20.28,20.28,0,0,1-4,.25H104.7v7.26h-1.56Zm1.56,1.53V75l2.64,0a6.71,6.71,0,0,0,2.34-.29,2.37,2.37,0,0,0,1.17-.94,2.62,2.62,0,0,0,.42-1.46,2.57,2.57,0,0,0-.42-1.43,2.41,2.41,0,0,0-1.12-.93,6.85,6.85,0,0,0-2.28-.27Z"></path><path class="cls-1" d="M115.2,72.26h1.52V74a5.39,5.39,0,0,1,1.43-1.49,2.79,2.79,0,0,1,1.57-.49,2.68,2.68,0,0,1,1.31.39l-.77,1.25A1.86,1.86,0,0,0,118,74,3.88,3.88,0,0,0,117,75.91a18.58,18.58,0,0,0-.27,4v3.91H115.2Z"></path><path class="cls-1" d="M122.81,67.51a1.23,1.23,0,1,1,0,2.45,1.16,1.16,0,0,1-.85-.36,1.22,1.22,0,0,1,0-1.73A1.16,1.16,0,0,1,122.81,67.51Zm-.74,4.75h1.49V83.81h-1.49Z"></path><path class="cls-1" d="M126.65,72.26h1.48v2.07a6.17,6.17,0,0,1,2-1.77,4.74,4.74,0,0,1,2.35-.59,4.18,4.18,0,0,1,2.3.65,3.91,3.91,0,0,1,1.48,1.78,9.32,9.32,0,0,1,.48,3.47v5.94h-1.49V78.3a13.64,13.64,0,0,0-.16-2.66,2.7,2.7,0,0,0-2.91-2.3,3.64,3.64,0,0,0-2.41.89,4.2,4.2,0,0,0-1.41,2.2,15.55,15.55,0,0,0-.21,3.14v4.24h-1.48Z"></path><path class="cls-1" d="M151.1,74.66l-1.17.73a4.94,4.94,0,0,0-4.17-2,4.82,4.82,0,0,0-3.5,1.35,4.45,4.45,0,0,0-1.4,3.3,4.65,4.65,0,0,0,.65,2.37,4.41,4.41,0,0,0,1.75,1.73,5.16,5.16,0,0,0,2.51.62,5.09,5.09,0,0,0,4.16-2l1.17.77a5.58,5.58,0,0,1-2.22,1.94,7.21,7.21,0,0,1-3.18.68,6.28,6.28,0,0,1-4.54-1.74,5.66,5.66,0,0,1-1.8-4.23A6,6,0,0,1,140.2,75a6,6,0,0,1,2.32-2.25,7.18,7.18,0,0,1,5.51-.45,5.91,5.91,0,0,1,1.81.91A4.72,4.72,0,0,1,151.1,74.66Z"></path><path class="cls-1" d="M163.68,80l1.25.65a6.85,6.85,0,0,1-1.43,2,5.69,5.69,0,0,1-1.81,1.13,6.54,6.54,0,0,1-2.29.38A5.48,5.48,0,0,1,155,82.25a6.25,6.25,0,0,1-1.6-4.18,6.18,6.18,0,0,1,1.35-3.92A5.54,5.54,0,0,1,159.32,72,5.66,5.66,0,0,1,164,74.21a6.17,6.17,0,0,1,1.28,3.94H154.92a4.72,4.72,0,0,0,1.29,3.3,4.09,4.09,0,0,0,3.07,1.29,5,5,0,0,0,1.71-.31,4.75,4.75,0,0,0,1.42-.81A7.24,7.24,0,0,0,163.68,80Zm0-3.11a4.93,4.93,0,0,0-.87-1.9,4.17,4.17,0,0,0-1.5-1.15,4.63,4.63,0,0,0-2-.43,4.22,4.22,0,0,0-2.92,1.09,5,5,0,0,0-1.35,2.39Z"></path><path class="cls-1" d="M169.37,68h1.49v4.28h2.35v1.29h-2.35V83.81h-1.49V73.55h-2V72.26h2Z"></path><path class="cls-1" d="M180.91,72a5.72,5.72,0,0,1,4.42,1.93,6.21,6.21,0,0,1-.09,8.4,6.13,6.13,0,0,1-8.68,0,6.2,6.2,0,0,1-.09-8.39A5.71,5.71,0,0,1,180.91,72Zm0,1.45a4.28,4.28,0,0,0-3.18,1.37,4.55,4.55,0,0,0-1.33,3.31,4.73,4.73,0,0,0,.6,2.33,4.32,4.32,0,0,0,1.64,1.67,4.66,4.66,0,0,0,4.54,0,4.32,4.32,0,0,0,1.64-1.67,4.73,4.73,0,0,0,.6-2.33,4.55,4.55,0,0,0-1.33-3.31A4.3,4.3,0,0,0,180.9,73.42Z"></path><path class="cls-1" d="M189.67,72.26h1.48v2.07a6.27,6.27,0,0,1,2-1.77,4.74,4.74,0,0,1,2.35-.59,4.15,4.15,0,0,1,2.3.65,3.91,3.91,0,0,1,1.48,1.78,9.32,9.32,0,0,1,.48,3.47v5.94h-1.49V78.3a13.64,13.64,0,0,0-.16-2.66,2.92,2.92,0,0,0-1-1.73,3,3,0,0,0-1.91-.57,3.64,3.64,0,0,0-2.42.89,4.13,4.13,0,0,0-1.4,2.2,15.34,15.34,0,0,0-.22,3.14v4.24h-1.48Z"></path><path class="cls-1" d="M209.22,68.2h3.08a7.32,7.32,0,0,1,2.85.44A3.47,3.47,0,0,1,216.73,70a3.69,3.69,0,0,1,.58,2,3.62,3.62,0,0,1-.51,1.89,3.79,3.79,0,0,1-1.49,1.39,5.6,5.6,0,0,1,1.87,1,3.92,3.92,0,0,1,1,1.35,4,4,0,0,1,.36,1.71,4.24,4.24,0,0,1-1.37,3.18,5.19,5.19,0,0,1-3.69,1.3h-4.29Zm1.53,1.53v5h.89a7,7,0,0,0,2.4-.31,2.6,2.6,0,0,0,1.21-1A2.51,2.51,0,0,0,215.7,72a2,2,0,0,0-.75-1.68,3.76,3.76,0,0,0-2.39-.61Zm0,6.57v6h1.94a7,7,0,0,0,2.5-.33,2.93,2.93,0,0,0,1.28-1,2.63,2.63,0,0,0,.49-1.54,2.66,2.66,0,0,0-.68-1.81,3.5,3.5,0,0,0-1.87-1.06,13.52,13.52,0,0,0-2.78-.19Z"></path><path class="cls-1" d="M221.19,67.81h1.49v16h-1.49Z"></path><path class="cls-1" d="M225.57,72.26h1.49v5.39a11.68,11.68,0,0,0,.21,2.72,3,3,0,0,0,1.22,1.68,3.69,3.69,0,0,0,2.14.61,3.62,3.62,0,0,0,2.11-.6,3.09,3.09,0,0,0,1.19-1.57,11,11,0,0,0,.23-2.84V72.26h1.51v5.67a9,9,0,0,1-.55,3.6,4.34,4.34,0,0,1-1.68,1.89,6.15,6.15,0,0,1-5.62,0,4.19,4.19,0,0,1-1.69-1.91,9.38,9.38,0,0,1-.56-3.69Z"></path><path class="cls-1" d="M248.69,80l1.25.65a6.83,6.83,0,0,1-1.42,2,5.73,5.73,0,0,1-1.82,1.13,6.49,6.49,0,0,1-2.28.38A5.52,5.52,0,0,1,240,82.25a6.24,6.24,0,0,1-1.59-4.18,6.18,6.18,0,0,1,1.35-3.92A5.52,5.52,0,0,1,244.34,72a5.67,5.67,0,0,1,4.71,2.24,6.23,6.23,0,0,1,1.28,3.94H239.94a4.75,4.75,0,0,0,1.28,3.3,4.11,4.11,0,0,0,3.07,1.29,5.07,5.07,0,0,0,1.72-.31,4.75,4.75,0,0,0,1.42-.81A7,7,0,0,0,248.69,80Zm0-3.11a5.08,5.08,0,0,0-.86-1.9,4.13,4.13,0,0,0-1.51-1.15,4.59,4.59,0,0,0-2-.43,4.2,4.2,0,0,0-2.92,1.09,4.88,4.88,0,0,0-1.35,2.39Z"></path><path class="cls-1" d="M92.19,53.77l0,42.18c0,.06-.06.13-.11.25H58.19l.6-2.31h30.8c.24-.9.33-35.66.11-37.51H80.82c-.4,1.54-.81,3.08-1.22,4.63-1.26,4.79-2.54,9.58-3.77,14.38A3.79,3.79,0,1,0,80,72.8a13.81,13.81,0,0,0-2.36.19l.73-2.8a6,6,0,0,1,4.8,1,6.41,6.41,0,1,1-9.89,6.57,7.37,7.37,0,0,1,.1-2.92c1.79-7,3.65-14,5.49-21Z"></path><path class="cls-1" d="M76.63,53.77,76,56.27H52.46c-.27.87-.32,36.3-.07,37.54h1.34c.26-1,.53-1.89.79-2.83C56,85.45,57.44,79.92,58.93,74.4a6.14,6.14,0,0,1,4.85-4.67,6.41,6.41,0,1,1-2.72,11.21l.75-3,.64.67a3.73,3.73,0,0,0,4.44.65,3.77,3.77,0,0,0,1.9-4.07,3.81,3.81,0,0,0-3.33-3,3.74,3.74,0,0,0-3.83,2.35,25.14,25.14,0,0,0-.79,2.73Q58.41,86.36,56,95.5c-.07.24-.17.47-.27.73h-6V94.94q0-19.87,0-39.76c0-.47,0-.94-.08-1.41Z"></path></svg> 