<?xml version="1.0" encoding="UTF-8"?> <svg xmlns="http://www.w3.org/2000/svg" id="Layer_1" data-name="Layer 1" viewBox="0 0 300 150"><defs><style>.cls-1{fill:#333;}</style></defs><path class="cls-1" d="M89.5,65.15c-5.17-1-11,2.67-12.81,8.11-2.32,7.13,1.38,10.67,6.54,11.65s11-2.66,12.8-8.11C98.41,69.45,94.67,66.13,89.5,65.15ZM86.81,81.1a2.19,2.19,0,0,1-1.19,1.37c-1,.45-3,.11-2.58-1.84l2.89-11.58a2.27,2.27,0,0,1,1.19-1.38c1-.44,3-.1,2.59,1.86L86.81,81.1M65,74.7l-1.6,6.4a2.25,2.25,0,0,1-1.19,1.37c-1,.45-3,.11-2.58-1.84l2.75-10.81c.23-1.45,2.44-2.89,6.79-.69l1.32-2.08c-5.74-3.47-15-.83-17.42,6.21-2.25,6.69.41,11.1,4.45,11.11H70.66L73,74.7H64.88m48.26-9.55c-5.17-1-11,2.67-12.81,8.11-2.32,7.13,1.37,10.67,6.54,11.65s11-2.66,12.8-8.11C122.05,69.45,118.3,66.13,113.14,65.15ZM110.45,81.1a2.22,2.22,0,0,1-1.19,1.37c-1,.45-3,.11-2.58-1.84l2.89-11.58a2.24,2.24,0,0,1,1.19-1.38c1-.44,3-.11,2.59,1.85l-2.9,11.58m21.93,3.4a10.76,10.76,0,0,0,10.81-7.78c2.38-7.36-1.37-10.92-6.54-10.89H125.91l-4.58,18.69,11,0Zm-1-2.11-1.65,0L133.3,68,135,68c1,0,2.09.49,1.75,1.91l-2.8,11a2.1,2.1,0,0,1-1.18,1.31,3.21,3.21,0,0,1-1.34.19m102.13-3.51s1.49-.07,1.7.91l1,4.72h8.59l-1.43-6.76c5.82-2.9,6.58-12-2.12-11.92H228.85l-4.57,18.69h7.95m0,0,4-16.52,1.26,0c1,0,2.09.49,1.76,1.91l-1.06,4.69A2.15,2.15,0,0,1,237,75.88a14.42,14.42,0,0,1-2.76.17M182.49,65.82l-5.41,6.66-1.91-6.66H166.3l3.08,10.73-2,8h8.87l2-8,8.83-10.73h-4.59m6.2,0h15.22l-.76,3h-7L195,73.56h5l-.84,3.09h-4.94L193,81.57h7.05l-.7,3H184.12l4.57-18.69m31.23,0H212.6l-11.39,18.7h3.31l0,.08,1.88-3.08h7l.3,3.07h8l-1.74-18.78ZM208.4,78.27l0,0v0h0l4-6.65.62,6.65H208.4M142.86,91.9h0c3.44-.31,8-5.65,11.09-8.69A65.18,65.18,0,0,1,163,76.36l.71,1.17a65.14,65.14,0,0,0-9.07,6.85c-3.07,3-7.64,8.38-11.08,8.68l-.7-1.16M155.13,65A8.2,8.2,0,0,1,155,61l-7.42,4.06,1.81,3L155.13,65m-.75,5.33-4.46-.77a7.86,7.86,0,0,1,.11,3.08c1.8-.94,3.34-1.77,4.35-2.31m-2.73-1.87,4,.68a13.88,13.88,0,0,1,.23-3l-4.19,2.27m2.63,12.64a69.1,69.1,0,0,1,7.95-5.89c-1.08-1.74-.91-1.69-1.64-2.8a7,7,0,0,1-1.49,1.79c-.68.53-.6.74-1.38-.08A8.12,8.12,0,0,1,155.93,71s-3.53,1.73-5.44,2.82l3.79,7.22m-4.95-6.46h0a41.57,41.57,0,0,0-2,4.51c-1.5,3.77-1.48,5.19-3.85,8-.45.53-1,1.31-1.53,1.87s-1,2,.63,1.7c3.28-.6,7.82-5.66,10.75-8.61l-3.94-7.43"></path><path class="cls-1" d="M183.39,56.94c-5.86.79-5.84.77-17.89.31-12.72,0-8.86,8.35-8.15,8.6-.28,1.89-.46,3.67.09,5,0-.07,1.08,2.72,1.87,1.17a8,8,0,0,0,.72-1.62c.39-1,.29-1.93,1.17-1s1.16.17,1.2-.74c0-.64-.18-2.07.82-1,.77.83,1.37-.62,1.33-2.19-.06-2,.46-.51,2.32-.82,3.7-.63,1.55-1.1,1.64-1-.75-.35-.74-.56.47-.55a6.67,6.67,0,0,0,1.28-.14c.34-.11,1.85-.79.72-1a2.32,2.32,0,0,1-1.06-.4c-.63-.58-.17-.69,1.42-.51,8.15,1.23,11.49-1.21,12-3.28.07-.28.26-.8.07-.77Zm-24.33,8.34c-.27-1.12.21-.56-.63-.89-1.09-.43-.87-.93-.45-.81a3.6,3.6,0,0,0,1.3.15c.3,0,.49.09.48.37a4.47,4.47,0,0,0,.12,1.5C160,66,159.18,65.8,159.06,65.28Zm6.17-5.42c-.58.39-.83,0-1.33.59a1.19,1.19,0,0,1-1.27.55c-.67-.06-.53.23-1,.47a2.35,2.35,0,0,1-1.63,0c-.36-.1-.92-.34,0-.48.69-.1.82-.06,1.11-.57s.4-.75,1-.7.81,0,1.18-.35a1,1,0,0,1,.93-.29,1.63,1.63,0,0,0,.63.09c.76-.1,1.16.15.31.71"></path></svg> 