<?xml version="1.0" encoding="UTF-8"?> <svg xmlns="http://www.w3.org/2000/svg" id="Layer_1" data-name="Layer 1" viewBox="0 0 300 150"><defs><style>.cls-1{fill:#333;}</style></defs><path class="cls-1" d="M148.83,66.68,145,60l2.3-4.67,4,7Z"></path><path class="cls-1" d="M156.25,79.52l-3.64-6.16,2.5-4.33,6,10.48Z"></path><path class="cls-1" d="M147.67,79.41h-4.76l16.14-27.93,2.39,4.13Z"></path><path class="cls-1" d="M59.74,74.55a8.3,8.3,0,0,0,5.6,2.2c2,0,3.28-.92,3.27-2.32v-.06c0-1.32-.74-2-4.17-2.82-3.94-.94-6.16-2.1-6.16-5.51V66c0-3.17,2.63-5.36,6.3-5.37a10.32,10.32,0,0,1,5.8,1.65l-2,2.34a7.66,7.66,0,0,0-3.84-1.11c-1.9,0-3,1-3,2.19v.06c0,1.42.84,2.06,4.38,2.9,3.91.94,6,2.34,6,5.4v0c0,3.46-2.71,5.53-6.59,5.53a11.29,11.29,0,0,1-7.52-2.78Z"></path><path class="cls-1" d="M78.58,63.87l-1.37-3,15,0-1.36,3Z"></path><path class="cls-1" d="M83.08,65.61h3.28l0,13.9H83.1Z"></path><path class="cls-1" d="M120.67,71.5V60.86h3.25V71.37c0,3.43,1.77,5.28,4.67,5.28s4.65-1.75,4.65-5.15V60.83l3.25,0V71.34c0,5.52-3.12,8.29-8,8.29S120.67,76.86,120.67,71.5Z"></path><path class="cls-1" d="M167.47,71.5V60.86h3.25V71.37c0,3.43,1.77,5.28,4.67,5.28S180,74.9,180,71.5V60.86h3.25V71.34c0,5.52-3.12,8.29-7.95,8.29S167.47,76.86,167.47,71.5Z"></path><path class="cls-1" d="M113.09,79.48h-3.61L105,72.05h-3.45V79.5H98.35l0-18.89H106c3.7,0,6.5,2.45,6.5,5.72a5.67,5.67,0,0,1-4.1,5.38ZM101.57,69.24H106c2,0,3.32-1.17,3.32-2.91s-1.31-2.88-3.33-2.88h-4.38Z"></path><path class="cls-1" d="M205.36,79.52h-3.61l-.06-.1-4.4-7.34h-3.45v7.44h-3.23V60.62h7.7c3.7,0,6.5,2.47,6.5,5.73a5.68,5.68,0,0,1-4.12,5.38ZM193.84,69.26h4.38c2,0,3.33-1.17,3.33-2.91s-1.31-2.88-3.33-2.88h-4.38Z"></path><path class="cls-1" d="M148.22,98.53a5.6,5.6,0,0,1-5.65-5.8v0a5.71,5.71,0,0,1,5.68-5.83,5.6,5.6,0,0,1,5.66,5.74v.15A5.71,5.71,0,0,1,148.22,98.53Zm0-10.65a4.56,4.56,0,0,0-4.53,4.79,4.65,4.65,0,0,0,4.56,4.85,4.57,4.57,0,0,0,4.54-4.79v0A4.65,4.65,0,0,0,148.22,87.88Z"></path><path class="cls-1" d="M160.9,98.51c-2.87,0-4.65-1.87-4.65-4.88V87.06h1.09v6.49c0,2.51,1.31,4,3.59,4s3.53-1.41,3.53-3.87V87.06h1.08v6.48C165.54,96.61,163.76,98.51,160.9,98.51Z"></path><path class="cls-1" d="M172.51,98.34h-1.09V88.09h-3.83v-1h8.76v1h-3.84Z"></path><path class="cls-1" d="M182.36,98.34h-3.8V87.06h3.8c3.47,0,6,2.36,6,5.61A5.63,5.63,0,0,1,182.36,98.34Zm-2.71-1h2.71a4.54,4.54,0,0,0,4.87-4.59,4.6,4.6,0,0,0-4.87-4.64h-2.71Z"></path><path class="cls-1" d="M196,98.53a5.6,5.6,0,0,1-5.65-5.8v0a5.71,5.71,0,0,1,5.69-5.83,5.6,5.6,0,0,1,5.65,5.74v.15A5.71,5.71,0,0,1,196,98.53Zm0-10.65a4.56,4.56,0,0,0-4.53,4.79,4.66,4.66,0,0,0,4.57,4.85,4.56,4.56,0,0,0,4.53-4.79v0A4.65,4.65,0,0,0,196,87.88Z"></path><path class="cls-1" d="M209.39,98.53a5.6,5.6,0,0,1-5.65-5.8v0a5.71,5.71,0,0,1,5.68-5.83,5.6,5.6,0,0,1,5.66,5.74v.15A5.71,5.71,0,0,1,209.39,98.53Zm0-10.65a4.57,4.57,0,0,0-4.54,4.79,4.66,4.66,0,0,0,4.57,4.85A4.57,4.57,0,0,0,214,92.73v0A4.65,4.65,0,0,0,209.39,87.88Z"></path><path class="cls-1" d="M227,98.34h-1.38l-3.5-4.56h-3.4v4.56h-1.09V87.06h4.76a4.44,4.44,0,0,1,3.19,1.13,3,3,0,0,1,.87,2.14c0,1.73-1.16,2.93-3.11,3.27Zm-8.28-5.57h3.57c1.87,0,3.07-.93,3.07-2.38s-1.13-2.3-3-2.3h-3.62Z"></path><polygon class="cls-1" points="227.28 60.83 225.88 63.66 213.42 63.66 213.42 60.83 227.28 60.83"></polygon><polygon class="cls-1" points="216.25 76.75 227.28 76.75 227.28 79.57 213.42 79.57 213.42 68.75 224.47 68.75 224.47 71.57 216.25 71.57 216.25 76.75"></polygon><path class="cls-1" d="M235.35,61.44H234v-.68h3.37v.68h-1.32v3.48h-.73Z"></path><path class="cls-1" d="M238.17,60.76H239l1.26,2,1.26-2h.78v4.16h-.73v-3l-1.31,2h0L238.89,62v3h-.72Z"></path></svg> 