<?xml version="1.0" encoding="UTF-8"?> <svg xmlns="http://www.w3.org/2000/svg" id="Layer_1" data-name="Layer 1" viewBox="0 0 300 150"><defs><style>.cls-1{fill:#333;}</style></defs><path class="cls-1" d="M176.35,61.61a12.15,12.15,0,0,0-3.69,9A12.86,12.86,0,0,0,175.5,79q3.6,4.45,10.17,4.45t10.15-4.66a13,13,0,0,0,2.72-8.14,12.07,12.07,0,0,0-13.1-12.41,11.8,11.8,0,0,0-9.09,3.4m12.51-1.28a7,7,0,0,1,2.3,3.38,21.82,21.82,0,0,1,.9,7.22,20.31,20.31,0,0,1-.88,6.58,7.34,7.34,0,0,1-2.47,3.67,5,5,0,0,1-3.09.9A5,5,0,0,1,181.34,80c-1.46-2-2.2-5.06-2.2-9.21a18.32,18.32,0,0,1,1.42-8c1.18-2.27,2.86-3.41,5.09-3.41a5.38,5.38,0,0,1,3.21,1"></path><path class="cls-1" d="M208.05,58.8l12,15V63.43a5.12,5.12,0,0,0-.62-3,3.43,3.43,0,0,0-2.88-1V58.8h8v.62a5.69,5.69,0,0,0-2.07.52,2,2,0,0,0-.82,1,7.06,7.06,0,0,0-.3,2.46V83.65h-.62L204.32,63.46V78.87a3,3,0,0,0,3.17,3.59h.58v.62h-8.64v-.62a3.93,3.93,0,0,0,2.81-.82,4,4,0,0,0,.8-2.77V61.8l-.57-.69a4.91,4.91,0,0,0-1.36-1.34,3.89,3.89,0,0,0-1.7-.35V58.8Z"></path><path class="cls-1" d="M152.94,58.72a4.07,4.07,0,0,1,3.56.26c.77.46.27.83.27.83a.73.73,0,0,1-.69-.11,2.9,2.9,0,0,0-2.63-.3,6.84,6.84,0,0,0-2.06,1.42L142,69.6,141,70.82v8a7.88,7.88,0,0,0,.22,2.41A1.83,1.83,0,0,0,142,82a4.26,4.26,0,0,0,1.94.34V83H131.76v-.61h.79a3.3,3.3,0,0,0,1.69-.38,1.74,1.74,0,0,0,.72-.88,7.85,7.85,0,0,0,.19-2.3v-16a8.18,8.18,0,0,0-.2-2.36,1.78,1.78,0,0,0-.79-.83,3.2,3.2,0,0,0-1.61-.35h-.79V58.7h12v.62a4,4,0,0,0-1.88.36,1.77,1.77,0,0,0-.73.85,7.41,7.41,0,0,0-.22,2.33v6.53L149.77,61a10.47,10.47,0,0,1,3.17-2.31"></path><path class="cls-1" d="M145.23,66l10.15,12.91A13.39,13.39,0,0,0,158.47,82a3.73,3.73,0,0,0,2,.57v.62H148v-.62a17.27,17.27,0,0,0,2.63-.38,1.38,1.38,0,0,0,.7-1c.06-.33.13-.8-.82-1.91L142.27,69l.75-.56"></path><path class="cls-1" d="M77.62,68.14c0-5,0-5.94-.06-7s-.33-1.65-1.43-1.89a7.21,7.21,0,0,0-1.28-.1c-.36,0-.56-.06-.56-.29s.23-.3.72-.3c1.76,0,3.83.1,4.69.1s2.87-.1,4.16-.1c.47,0,.69.07.69.3s-.2.29-.59.29a5.39,5.39,0,0,0-.95.1c-.9.17-1.17.73-1.22,1.89s-.08,2-.08,7v6.1c0,1.43.11,3,.11,4.66A17.44,17.44,0,0,1,81,84.74c-.69,2-2.43,4.3-5.6,6.24a16.15,16.15,0,0,1-1.66.86,1.42,1.42,0,0,1-.65.19.26.26,0,0,1-.27-.25c0-.17.17-.3.73-.6a6.61,6.61,0,0,0,1.59-1.25c2.5-2.54,2.47-5.85,2.47-12.32Z"></path><path class="cls-1" d="M223.67,87.68a.82.82,0,0,0,.08.31.46.46,0,0,0,.43.22.75.75,0,0,0,.26,0,.34.34,0,0,0,.22-.34.29.29,0,0,0-.1-.25.86.86,0,0,0-.3-.13l-.24-.07a.9.9,0,0,1-.35-.14.5.5,0,0,1-.17-.42.67.67,0,0,1,.17-.48.63.63,0,0,1,.49-.19.7.7,0,0,1,.49.17.66.66,0,0,1,.19.53h-.22a.61.61,0,0,0-.09-.27.43.43,0,0,0-.38-.18.33.33,0,0,0-.3.12.36.36,0,0,0-.11.26.27.27,0,0,0,.12.23,1.1,1.1,0,0,0,.33.12l.26.07a.73.73,0,0,1,.28.14.69.69,0,0,1,0,1,.85.85,0,0,1-.51.15.66.66,0,0,1-.53-.21.73.73,0,0,1-.2-.57Z"></path><path class="cls-1" d="M225.34,86.19h.38l.54,1.86.54-1.86h.37V88.4h-.26V87.09a1.87,1.87,0,0,1,0-.21c0-.11,0-.22,0-.34l-.55,1.86h-.25l-.55-1.86V88.4h-.24Z"></path><path class="cls-1" d="M130.36,80.66c.18-.79-.58-.47-.58-.47a8.42,8.42,0,0,1-8.26,2.28h0l-.52-.2c-3.6-1.52-6.23-6-6.23-11.27s2.68-9.81,6.37-11.19a8.41,8.41,0,0,1,8.79,2.1s.77.31.59-.47c0,0-2.05-3.53-9.34-3A12.39,12.39,0,0,0,109.74,71a12.76,12.76,0,0,0,2.85,8.33,11.82,11.82,0,0,0,8.54,4.35c7.18.5,9.23-3,9.23-3"></path><path class="cls-1" d="M170.07,59.5S164.93,56.2,160,60c0,0-4.35,3.5-.72,9.76,0,0,5,7.1,7.68,10,0,0,3,3.86,2.46,6.32a6.61,6.61,0,0,1-2.12,4.06s-1.07.94-1,1.34c0,0,.28.59,1.67-.27,0,0,9-5.57,2.46-14.6-.32-.45-7.78-10-7.78-10-2.7-3.63-.59-6-.59-6,3.1-3.43,7.84-.13,7.84-.13s.87.35,1,0-.13-.54-.8-1"></path><path class="cls-1" d="M84.6,87.76c0,.28,0,.32.26.32h.41c.54,0,.56-.61.69-.61s.11,0,.12.17l0,1.18c0,.09,0,.33-.11.33s0-.7-.68-.7h-.47c-.29,0-.26.08-.26.46v.86c0,.4,0,.64.43.64,1.56,0,1.48-.86,1.72-.86,0,0,.07,0,.07.14a1,1,0,0,1-.89,1.06c-1,0-1.35,0-1.66,0s-.46,0-.81,0c-.08,0-.12,0-.12-.07,0-.31.48,0,.48-.76V86.81c0-.59-.72-.38-.72-.65,0-.06.06-.11.15-.11.26,0,.71,0,1.68,0,.44,0,.88,0,1.44,0a.13.13,0,0,1,.12.12l0,.66c0,.08,0,.3-.11.3-.3,0,.2-.77-1-.77-.77,0-.8,0-.8.46Z"></path><path class="cls-1" d="M88.65,89.77c0,.4,0,.64.43.64,1.57,0,1.48-.86,1.71-.86,0,0,.07,0,.07.14A1,1,0,0,1,90,90.75c-1,0-1.33,0-1.66,0s-.45,0-.8,0c-.08,0-.12,0-.12-.07,0-.31.48,0,.48-.76V86.78c0-.57-.71-.39-.71-.62,0-.06.07-.11.2-.11l.86,0c.53,0,.61,0,.71,0s.16,0,.16.08c0,.25-.44,0-.44.52Z"></path><path class="cls-1" d="M92.67,87.76c0,.28,0,.32.27.32h.4c.55,0,.56-.61.69-.61s.12,0,.12.17l0,1.18c0,.09,0,.33-.1.33s0-.7-.68-.7h-.47c-.29,0-.27.08-.27.46v.86c0,.4,0,.64.43.64,1.57,0,1.48-.86,1.73-.86,0,0,.06,0,.06.14A1,1,0,0,1,94,90.75c-1,0-1.35,0-1.65,0s-.46,0-.81,0c-.09,0-.13,0-.13-.07,0-.31.49,0,.49-.76V86.81c0-.59-.72-.38-.72-.65,0-.06,0-.11.14-.11.27,0,.71,0,1.68,0,.45,0,.89,0,1.44,0a.11.11,0,0,1,.12.12l0,.66c0,.08,0,.3-.11.3s.2-.77-1-.77c-.76,0-.79,0-.79.46Z"></path><path class="cls-1" d="M101.85,86.8c0-.32-.06-.35-.32-.35H101c-.71,0-.52.87-.81.87-.13,0-.09-.15-.07-.24l.09-.87c0-.07,0-.16.11-.16l1.92,0,1.94,0c.09,0,.09.09.1.16l.07.6c0,.09.08.35-.08.35s-.06-.74-.78-.71H103c-.26,0-.32,0-.32.35v3c0,.82.81.63.81.81s-.13.14-.31.14-.46,0-.89,0-.63,0-.88,0-.22,0-.22-.14.71.07.71-.73Z"></path><path class="cls-1" d="M105.42,89.81c0,.84-.51.62-.51.83s.13.11.2.11c.32,0,.63,0,1,0s.43,0,.54,0,.2,0,.2-.1c0-.24-.63,0-.63-.67V88.82c0-.23,0-.28.3-.28a.51.51,0,0,1,.57.36l.53,1c.2.39.4.8.91.8.24,0,.66-.14.66-.34a.09.09,0,0,0-.09-.1c-.07,0-.14,0-.19,0a.23.23,0,0,1-.23-.11c-.46-.84-1-1.8-1-1.84s.19-.12.37-.28a1,1,0,0,0,.37-.83c0-.31-.13-1.24-1.51-1.24l-1.28,0c-.39,0-.45,0-.74,0-.08,0-.14,0-.14.1,0,.23.69,0,.69.74Zm.78-3.08c0-.4.19-.4.43-.4a1,1,0,0,1,1,1.14c0,.4,0,.78-1,.78-.19,0-.42,0-.42-.17Z"></path><path class="cls-1" d="M111.05,89.93c0,.81.71.51.71.72s-.06.1-.2.1-.47,0-1,0c-.28,0-.55,0-.72,0s-.06,0-.06-.07c0-.24.45-.07.45-.69V86.8c0-.61-.71-.42-.71-.66s.16-.09.22-.09l.71,0,.81,0c.19,0,.22,0,.22.09,0,.23-.47,0-.47.62Z"></path><path class="cls-1" d="M119.68,89.62c0,1.14.65.75.65,1,0,0,0,.1-.16.1s-.36,0-.65,0-.53,0-.62,0-.12,0-.12-.09c0-.24.52-.07.54-.77l.09-2.67c0-1.1-.64-.79-.64-1.08a.09.09,0,0,1,.08-.09c.08,0,.18,0,.38,0s.38,0,.58,0,.14,0,.22.19l1.4,3.19c0,.06,0,.11.08.11s.09-.12.1-.14l1.46-3.22a.16.16,0,0,1,.16-.13c.15,0,.28,0,.37,0s.23,0,.41,0,.18,0,.18.08c0,.24-.62,0-.59.75l.1,2.93c0,.88.62.59.62.83s-.08.11-.3.11-.37,0-.54,0c-.42,0-.57,0-.71,0s-.3,0-.3-.1.5,0,.46-.74l-.1-2c0-.21,0-.3,0-.3s-.11.13-.2.35l-1.2,2.62c0,.09-.06.19-.16.19s-.13-.11-.16-.19l-1.22-2.86s0-.11-.08-.11,0,.11,0,.16Z"></path><path class="cls-1" d="M126.23,87.76c0,.28,0,.32.27.32h.4c.54,0,.56-.61.68-.61s.12,0,.12.17l0,1.18c0,.09,0,.33-.11.33s0-.7-.68-.7h-.47c-.29,0-.26.08-.26.46v.86c0,.4,0,.64.42.64,1.57,0,1.49-.86,1.72-.86,0,0,.07,0,.07.14a1,1,0,0,1-.89,1.06c-1,0-1.34,0-1.66,0s-.45,0-.8,0c-.09,0-.12,0-.12-.07,0-.31.49,0,.49-.76V86.81c0-.59-.72-.38-.72-.65,0-.06.05-.11.14-.11.25,0,.71,0,1.68,0,.44,0,.88,0,1.43,0a.14.14,0,0,1,.14.12v.66c0,.08.05.3-.1.3s.2-.77-1-.77c-.76,0-.78,0-.78.46Z"></path><path class="cls-1" d="M129.91,89.62c0,1.14.65.75.65,1,0,0,0,.1-.15.1s-.36,0-.65,0-.53,0-.63,0-.12,0-.12-.09c0-.24.52-.07.55-.77l.08-2.67c0-1.1-.63-.79-.63-1.08,0,0,0-.09.07-.09s.18,0,.38,0,.38,0,.59,0c.06,0,.13,0,.22.19l1.39,3.19c0,.06.05.11.08.11s.1-.12.11-.14l1.46-3.22c0-.05,0-.13.16-.13s.27,0,.36,0,.23,0,.41,0,.19,0,.19.08c0,.24-.63,0-.6.75l.11,2.93c0,.88.61.59.61.83s-.08.11-.3.11-.36,0-.55,0c-.4,0-.56,0-.7,0s-.29,0-.29-.1.49,0,.45-.74l-.09-2c0-.21,0-.3-.06-.3a1.25,1.25,0,0,0-.19.35l-1.19,2.62c0,.09-.06.19-.16.19s-.13-.11-.17-.19l-1.23-2.86s0-.11,0-.11-.05.11-.05.16Z"></path><path class="cls-1" d="M136.43,88.93c0-.35,0-.51.38-.51,1.15,0,1.34.59,1.34,1,0,.64-.32,1.08-1,1.08s-.77-.19-.77-.81Zm-.78,1c0,.65-.54.47-.54.69s.06.1.21.1.29,0,.45,0c.31,0,.63,0,1.57,0A1.42,1.42,0,0,0,139,89.31c0-.6-.25-1-1-1.17h0a1,1,0,0,0,.7-.94c0-.16,0-1.14-1.55-1.14-.54,0-1.07,0-1.62,0a2,2,0,0,1-.37,0,.09.09,0,0,0-.11.1c0,.32.67,0,.67.87Zm.78-3c0-.38,0-.62.44-.62a1,1,0,0,1,1,1c0,.49-.18.75-.66.75h-.38c-.37,0-.43-.06-.43-.38Z"></path><path class="cls-1" d="M141.05,87.76c0,.28,0,.32.27.32h.4c.55,0,.56-.61.69-.61s.12,0,.13.17l0,1.18c0,.09,0,.33-.11.33s0-.7-.69-.7h-.46c-.28,0-.27.08-.27.46v.86c0,.4,0,.64.43.64,1.57,0,1.48-.86,1.72-.86,0,0,.07,0,.07.14a1,1,0,0,1-.89,1.06c-1,0-1.34,0-1.66,0s-.46,0-.81,0c-.07,0-.11,0-.11-.07,0-.31.47,0,.47-.76V86.81c0-.59-.71-.38-.71-.65,0-.06.05-.11.14-.11.26,0,.71,0,1.68,0,.45,0,.89,0,1.44,0a.13.13,0,0,1,.13.12l0,.66c0,.08,0,.3-.11.3-.3,0,.19-.77-1-.77-.77,0-.8,0-.8.46Z"></path><path class="cls-1" d="M144.53,89.81c0,.84-.51.62-.51.83s.13.11.2.11c.32,0,.64,0,1,0s.43,0,.54,0,.2,0,.2-.1c0-.24-.63,0-.63-.67V88.82c0-.23,0-.28.3-.28a.51.51,0,0,1,.57.36l.54,1c.19.39.4.8.89.8.26,0,.68-.14.68-.34a.09.09,0,0,0-.09-.1c-.08,0-.13,0-.2,0a.22.22,0,0,1-.22-.11c-.46-.84-1-1.8-1-1.84s.18-.12.36-.28a1,1,0,0,0,.37-.83c0-.31-.12-1.24-1.5-1.24l-1.28,0c-.4,0-.45,0-.74,0-.08,0-.14,0-.14.1,0,.23.69,0,.69.74Zm.77-3.08c0-.4.2-.4.43-.4a1,1,0,0,1,1,1.14c0,.4,0,.78-1,.78-.18,0-.42,0-.42-.17Z"></path><path class="cls-1" d="M149.08,89.39c0-.09-.08-.29.07-.29s.12.06.15.15c.2.64.58,1.25,1.29,1.25a.83.83,0,0,0,.87-.86c0-.56-.4-.65-1.41-1.12-.55-.25-.92-.51-.92-1.21A1.24,1.24,0,0,1,150.38,86c.51,0,.78.26,1,.26s.24-.11.32-.11.08.1.09.25l.08.9c0,.14,0,.22-.15.22s-.24-1.23-1.33-1.23a.65.65,0,0,0-.7.69c0,.44.35.53,1.19.93.68.31,1.1.59,1.1,1.44a1.37,1.37,0,0,1-1.41,1.46,4.28,4.28,0,0,1-1.07-.25c-.16,0-.15-.09-.18-.25Z"></path><path class="cls-1" d="M157.19,89.81c0,.85.66.6.66.87,0,.08,0,.07-.13.07l-.84,0c-.23,0-.48,0-.8,0-.09,0-.12,0-.12-.07,0-.23.46-.05.46-.69V88.78c0-.28,0-.34-.27-.34h-1.67c-.29,0-.32,0-.32.35v1c0,.82.79.58.79.82,0,0,0,.09-.19.09s-.47,0-.93,0c-.26,0-.52,0-.85,0-.07,0-.13,0-.13-.1,0-.27.54,0,.54-.85v-3c0-.72-.72-.43-.72-.68s.19-.11.31-.11l.71,0,.82,0c.08,0,.14,0,.14.1s-.49,0-.49.6v1.06c0,.18,0,.27.16.27h1.87c.19,0,.23-.16.23-.3v-.94c0-.73-.7-.49-.7-.68s.06-.11.16-.11l.81,0,.83,0c.1,0,.13,0,.13.08,0,.25-.46,0-.46.62Z"></path><path class="cls-1" d="M159.89,89.93c0,.81.72.51.72.72s-.06.1-.21.1-.47,0-1,0c-.27,0-.54,0-.7,0s-.08,0-.08-.07c0-.24.46-.07.46-.69V86.8c0-.61-.72-.42-.72-.66s.16-.09.22-.09l.71,0,.81,0c.2,0,.22,0,.22.09,0,.23-.47,0-.47.62Z"></path><path class="cls-1" d="M162.59,89.84c0,.84.64.58.64.81s-.06.1-.16.1c-.43,0-.72,0-.85,0s-.74,0-.78,0-.13,0-.13-.1.5,0,.5-.87V86.85c0-.7-.65-.43-.65-.68,0,0,0-.12.18-.12s.39,0,.87,0l1,0c.82,0,1.6.32,1.6,1.28a1.28,1.28,0,0,1-1.34,1.34c-.61,0-.65-.17-.65-.19s0-.13.09-.13a2,2,0,0,0,.3.05c.76,0,.82-.76.83-.93a1.06,1.06,0,0,0-1-1.15c-.29,0-.39.14-.39.44Z"></path><path class="cls-1" d="M99.48,89.14c-.09,0-.12.12-.16.2a2.4,2.4,0,0,1-.43.61,1.65,1.65,0,0,1-1,.38c-1.21,0-1.71-1.32-1.71-2.25a1.63,1.63,0,0,1,1.44-1.82,1.9,1.9,0,0,1,1.6,1.21c0,.09.09.22.19.22s.08-.15.08-.22l-.12-1.26s0,0-.08,0-.09.22-.21.22a4.54,4.54,0,0,0-1.44-.4,2.37,2.37,0,0,0-2.24,2.59,2.12,2.12,0,0,0,2.13,2.22,2.29,2.29,0,0,0,1.34-.41,1.84,1.84,0,0,1,.35-.14c.11,0,.11.19.19.19s.06,0,.06,0l.1-1.09s0-.18-.07-.18"></path><path class="cls-1" d="M116.3,89.14c-.09,0-.12.12-.17.2a2,2,0,0,1-.43.61,1.6,1.6,0,0,1-1,.38c-1.21,0-1.72-1.32-1.72-2.25a1.64,1.64,0,0,1,1.45-1.82,1.91,1.91,0,0,1,1.6,1.21c0,.09.09.22.19.22s.08-.15.08-.22l-.12-1.26s0,0-.07,0-.1.22-.22.22a4.54,4.54,0,0,0-1.44-.4,2.38,2.38,0,0,0-2.24,2.59,2.12,2.12,0,0,0,2.14,2.22,2.28,2.28,0,0,0,1.33-.41,1.44,1.44,0,0,1,.35-.14c.1,0,.11.19.19.19s.06,0,.06,0l.1-1.09s0-.18-.07-.18"></path><path class="cls-1" d="M178.63,88.55a2.06,2.06,0,0,0,2.11,2.25,2.32,2.32,0,0,0,2.41-2.55A2.1,2.1,0,0,0,181,86a2.31,2.31,0,0,0-2.34,2.56m.77-.38c0-1,.31-1.88,1.38-1.89.82,0,1.58.75,1.58,2.22,0,1.1-.35,2-1.44,2s-1.52-1.36-1.52-2.34"></path><path class="cls-1" d="M184.11,89.81c0,.84-.51.62-.51.83s.12.11.2.11c.31,0,.63,0,1,0s.44,0,.54,0,.19,0,.19-.1c0-.24-.61,0-.61-.67V88.82c0-.23,0-.28.29-.28a.52.52,0,0,1,.57.36l.53,1c.2.39.41.8.9.8.25,0,.67-.14.67-.34a.09.09,0,0,0-.09-.1c-.07,0-.13,0-.2,0a.23.23,0,0,1-.22-.11c-.46-.84-1-1.8-1-1.84s.18-.12.37-.28a1,1,0,0,0,.36-.83c0-.31-.13-1.24-1.51-1.24l-1.27,0c-.4,0-.46,0-.75,0-.07,0-.13,0-.13.1,0,.23.69,0,.69.74Zm.78-3.08c0-.4.19-.4.42-.4a1,1,0,0,1,1,1.14c0,.4,0,.78-1,.78-.19,0-.42,0-.42-.17Z"></path><path class="cls-1" d="M189.42,89.84c0,.84.63.58.63.81s-.05.1-.15.1c-.44,0-.72,0-.85,0l-.78,0s-.13,0-.13-.1.5,0,.5-.87V86.85c0-.7-.66-.43-.66-.68,0,0,0-.12.18-.12s.39,0,.87,0l1,0c.8,0,1.58.32,1.58,1.28a1.27,1.27,0,0,1-1.33,1.34c-.62,0-.65-.17-.65-.19s0-.13.09-.13a2,2,0,0,0,.29.05c.77,0,.82-.76.84-.93a1.05,1.05,0,0,0-1-1.15c-.28,0-.38.14-.38.44Z"></path><path class="cls-1" d="M192,88.55a2.07,2.07,0,0,0,2.13,2.25,2.31,2.31,0,0,0,2.39-2.55A2.09,2.09,0,0,0,194.31,86,2.32,2.32,0,0,0,192,88.55m.78-.38c0-1,.32-1.88,1.38-1.89.81,0,1.59.75,1.59,2.22,0,1.1-.36,2-1.44,2s-1.53-1.36-1.53-2.34"></path><path class="cls-1" d="M197.44,89.81c0,.84-.51.62-.51.83s.13.11.2.11c.32,0,.63,0,1,0s.43,0,.54,0,.2,0,.2-.1c0-.24-.63,0-.63-.67V88.82c0-.23,0-.28.3-.28a.52.52,0,0,1,.57.36l.53,1c.19.39.4.8.9.8.25,0,.67-.14.67-.34a.09.09,0,0,0-.09-.1c-.07,0-.13,0-.2,0a.25.25,0,0,1-.23-.11c-.45-.84-1-1.8-1-1.84s.19-.12.37-.28a1,1,0,0,0,.37-.83c0-.31-.12-1.24-1.51-1.24l-1.28,0c-.4,0-.45,0-.73,0-.08,0-.15,0-.15.1,0,.23.69,0,.69.74Zm.78-3.08c0-.4.19-.4.43-.4a1,1,0,0,1,1,1.14c0,.4,0,.78-1,.78-.2,0-.43,0-.43-.17Z"></path><path class="cls-1" d="M204.11,89.12c.17,0,.19.07.4.58a1.21,1.21,0,0,1,.12.45c0,.4-.45.33-.45.53s.08.07.19.07.42,0,.7,0,.58,0,.81,0,.23,0,.23-.11-.34,0-.55-.42l-1.7-4.06c-.08-.2-.1-.22-.16-.22s-.1.13-.15.23l-1.71,4c-.16.37-.49.34-.49.49s.11.07.2.07.36,0,.56,0,.39,0,.59,0,.33,0,.33-.09-.68-.07-.68-.55a1.87,1.87,0,0,1,.13-.53c.14-.44.28-.46.38-.46Zm-1.06-.36c-.11,0-.2,0-.2-.06a.72.72,0,0,1,.07-.25l.49-1.18c0-.06.05-.07.07-.07s0,0,0,0l.52,1.2a.57.57,0,0,1,.08.25c0,.06-.09.06-.21.06Z"></path><path class="cls-1" d="M207.51,86.8c0-.32-.06-.35-.33-.35h-.52c-.72,0-.53.87-.82.87-.13,0-.09-.15-.07-.24l.09-.87c0-.07,0-.16.1-.16l1.94,0,1.93,0c.1,0,.1.09.1.16l.08.6c0,.09.08.35-.09.35s0-.74-.78-.71h-.53c-.26,0-.32,0-.32.35v3c0,.82.81.63.81.81s-.14.14-.32.14-.45,0-.88,0-.63,0-.88,0-.23,0-.23-.14.72.07.72-.73Z"></path><path class="cls-1" d="M211.79,89.93c0,.81.71.51.71.72s-.06.1-.2.1-.48,0-1,0c-.27,0-.55,0-.72,0a.07.07,0,0,1-.06-.07c0-.24.45-.07.45-.69V86.8c0-.61-.71-.42-.71-.66s.15-.09.21-.09l.72,0,.81,0c.19,0,.23,0,.23.09,0,.23-.48,0-.48.62Z"></path><path class="cls-1" d="M212.79,88.55a2.07,2.07,0,0,0,2.12,2.25,2.32,2.32,0,0,0,2.41-2.55A2.1,2.1,0,0,0,215.14,86a2.32,2.32,0,0,0-2.35,2.56m.78-.38c0-1,.31-1.88,1.38-1.89.82,0,1.59.75,1.59,2.22,0,1.1-.36,2-1.44,2s-1.53-1.36-1.53-2.34"></path><path class="cls-1" d="M218.29,87.32c0-1.27-.71-.84-.71-1.16a.1.1,0,0,1,.11-.11l.35,0,.67,0c.2,0,.12,0,.24.16l2.54,2.94c.08.09.16.17.19.17s0-.08,0-.24V86.87c0-.61-.76-.49-.76-.71a.1.1,0,0,1,.1-.11c.1,0,.28,0,.72,0s.61,0,.67,0,.12.07.12.08c0,.21-.54,0-.54.75V90.6c0,.14,0,.2-.07.2a.21.21,0,0,1-.17-.09l-3-3.46a.14.14,0,0,0-.11-.08s-.05,0-.05.1v2.26c0,1.27.81.82.81,1.13,0,.1-.16.09-.24.09-.31,0-.53,0-.75,0s-.37,0-.54,0-.19,0-.19-.07c0-.27.6-.16.6-.83Z"></path><path class="cls-1" d="M178.05,89.14c-.09,0-.12.12-.16.2a2.21,2.21,0,0,1-.44.61,1.61,1.61,0,0,1-1,.38c-1.2,0-1.71-1.32-1.71-2.25a1.63,1.63,0,0,1,1.44-1.82,1.91,1.91,0,0,1,1.61,1.21c0,.09.09.22.19.22s.08-.15.08-.22l-.12-1.26s0,0-.08,0-.09.22-.22.22a4.28,4.28,0,0,0-1.43-.4A2.37,2.37,0,0,0,174,88.58a2.12,2.12,0,0,0,2.13,2.22,2.27,2.27,0,0,0,1.34-.41,1.44,1.44,0,0,1,.35-.14c.1,0,.11.19.19.19s0,0,0,0l.1-1.09s0-.18-.06-.18"></path><path class="cls-1" d="M97.82,58,95,63.52l10.27,19.73h7.19v-.63a2.65,2.65,0,0,1-1.72-.65c-.55-.5-12.94-24-12.94-24"></path><path class="cls-1" d="M90.63,75.9a21.11,21.11,0,0,0,3.3-3.72,3,3,0,0,0,.43-1.07c.14-.43.25-1.49-.36-5.44L84.15,83.26l4.75-.07a7.31,7.31,0,0,1,1.73-7.29"></path><path class="cls-1" d="M95.33,80a10.82,10.82,0,0,0-2.39,2.56,2.53,2.53,0,0,0-.33.7h10.33l-4.79-9.38s.43,3.2-2.82,6.12"></path><path class="cls-1" d="M96.83,71.38,95.64,69a13.06,13.06,0,0,1,.08,3c-.12,2.79-3.46,5.26-4,5.61a5.48,5.48,0,0,0-2,3.82l.06,1.77H91a7.52,7.52,0,0,1,2.68-4.51,12.88,12.88,0,0,0,2.07-2.09c.42-.55,1.33-2.07,1.08-5.22"></path></svg> 