<?xml version="1.0" encoding="UTF-8"?> <svg xmlns="http://www.w3.org/2000/svg" id="Layer_1" data-name="Layer 1" viewBox="0 0 300 150"><defs><style>.cls-1{fill:#333;}</style></defs><path class="cls-1" d="M143.49,97.84h-2.62a.3.3,0,0,0-.31.25l-1.72,7.37c0,.06,0,.12,0,.19a.19.19,0,0,0,.19.09h2.75a3.07,3.07,0,0,0,3.09-2.19,1.55,1.55,0,0,0-1-1.81,2.85,2.85,0,0,0,1.56-1.74,1.6,1.6,0,0,0-.28-1.41A1.91,1.91,0,0,0,143.49,97.84ZM141.62,99h1.56a.91.91,0,0,1,.78.31.88.88,0,0,1,.12.78,1.46,1.46,0,0,1-1.43,1.15h-1.53l.5-2.24Zm1.93,4.46a1.56,1.56,0,0,1-1.49,1.19h-1.75l.53-2.31h1.56a1.35,1.35,0,0,1,1,.4.86.86,0,0,1,.15.72Z"></path><path class="cls-1" d="M152.2,97.84H149a.32.32,0,0,0-.32.25L147,105.46c0,.06,0,.12,0,.19a.19.19,0,0,0,.19.09H148a.38.38,0,0,0,.31-.25l.65-2.81h1.72l.87,2.93a.22.22,0,0,0,.19.13h.91a.37.37,0,0,0,.28-.13.23.23,0,0,0,0-.24l-.94-2.78a3.35,3.35,0,0,0,2.25-2.28,1.9,1.9,0,0,0-.34-1.69,2,2,0,0,0-1.69-.78Zm.75,2.44a1.89,1.89,0,0,1-1.72,1.34h-2l.6-2.62h2.06a1.17,1.17,0,0,1,.9.4.91.91,0,0,1,.19.88Z"></path><path class="cls-1" d="M160.6,97.87a.24.24,0,0,0-.22-.15h-.13a.45.45,0,0,0-.24.12l-5.34,7.49a.22.22,0,0,0,0,.25c0,.07.09.1.21.1h.75a.45.45,0,0,0,.35-.19c.18-.25.37-.53.56-.78s.34-.47.5-.72h3.78l.37,1.5a.26.26,0,0,0,.28.19h.75a.28.28,0,0,0,.25-.13.3.3,0,0,0,.06-.22l-1.9-7.46Zm-.06,5.12h-2.81l2.09-3,.72,3Z"></path><path class="cls-1" d="M172.52,97.84h-.75a.34.34,0,0,0-.31.25l-1.18,5.18-3.75-5.52v0h-.31a.32.32,0,0,0-.31.22l-1.72,7.49a.38.38,0,0,0,0,.18c0,.07.09.1.19.1h.75a.31.31,0,0,0,.31-.25l1.25-5.34,3.74,5.71h.32a.31.31,0,0,0,.31-.22l1.71-7.49a.38.38,0,0,0,0-.18.51.51,0,0,0-.25-.1Z"></path><path class="cls-1" d="M178.74,97.84h-2.69a.38.38,0,0,0-.31.25L174,105.46c0,.06,0,.12,0,.19s.1.06.16.06h2.68a5.43,5.43,0,0,0,5.06-3.93,3.14,3.14,0,0,0-.56-2.75,3.24,3.24,0,0,0-2.65-1.19Zm1.87,3.94a3.72,3.72,0,0,1-3.59,2.8h-1.5L176.8,99h1.53a2.36,2.36,0,0,1,1.94.81A2.22,2.22,0,0,1,180.61,101.78Z"></path><path class="cls-1" d="M189.85,98.56a.18.18,0,0,0-.09-.16,3.43,3.43,0,0,0-2-.65,3,3,0,0,0-3.09,2.09c-.32,1.34.59,2,1.62,2.4s1.53.91,1.4,1.5a1.48,1.48,0,0,1-1.53,1,2.75,2.75,0,0,1-1.68-.75c-.13-.12-.31-.06-.47.1l-.22.21a1.94,1.94,0,0,1-.19.22c-.18.22-.09.31,0,.41a3.12,3.12,0,0,0,2.35.9,3.15,3.15,0,0,0,3.15-2.12c.34-1.44-.84-2.06-2-2.53-.93-.4-1.28-.78-1.15-1.37a1.42,1.42,0,0,1,1.53-1,2.55,2.55,0,0,1,1.4.53l0,0a.37.37,0,0,0,.5-.12.9.9,0,0,0,.16-.19c.06-.09.15-.16.22-.25a.58.58,0,0,0,.06-.28Z"></path><path class="cls-1" d="M182.58,61.88l-18.36-12-18.33,12a1.34,1.34,0,0,1-1.84-.37l-.47-.72A1.35,1.35,0,0,1,144,59l19.29-12.65a1.83,1.83,0,0,1,1.94,0l19.32,12.61a1.33,1.33,0,0,1,.38,1.85l-.47.71A1.32,1.32,0,0,1,182.58,61.88Z"></path><path class="cls-1" d="M201.18,51.55h-.78a1.59,1.59,0,0,0-1.59,1.59V89a1.6,1.6,0,0,0,1.59,1.59h.78A1.59,1.59,0,0,0,202.77,89V53.17A1.59,1.59,0,0,0,201.18,51.55Z"></path><path class="cls-1" d="M213.26,46.18h-.78a1.59,1.59,0,0,0-1.59,1.59V89a1.6,1.6,0,0,0,1.59,1.59h.78A1.59,1.59,0,0,0,214.85,89V47.8A1.59,1.59,0,0,0,213.26,46.18Z"></path><path class="cls-1" d="M122,66.62a10.67,10.67,0,0,0-8.18,3.56,12.65,12.65,0,0,0-3,8.4V79a12.39,12.39,0,0,0,3,8.27A10.62,10.62,0,0,0,122,90.72a16.29,16.29,0,0,0,7.9-2.21,1.56,1.56,0,0,0,.75-1,1.63,1.63,0,0,0-.25-1.25l-.34-.47a1.53,1.53,0,0,0-1.94-.47c-.16.1-.31.16-.47.25a10.21,10.21,0,0,1-5.21,1.5c-4.84,0-7.53-3.9-7.53-6.62l0-.22a.64.64,0,0,1,.19-.46.51.51,0,0,1,.41-.16H131.1a1.08,1.08,0,0,0,1.06-1,13.49,13.49,0,0,0,.12-1.53,10.55,10.55,0,0,0-2.9-7.46,10.34,10.34,0,0,0-7.43-3Zm6.15,9.56a.52.52,0,0,1-.37.15H115.4a.45.45,0,0,1-.38-.18.5.5,0,0,1-.09-.41,7,7,0,0,1,7-5.59,6,6,0,0,1,4.18,1.69,6.65,6.65,0,0,1,2.1,3.93.67.67,0,0,1-.13.41Z"></path><path class="cls-1" d="M182.29,66.62a10.66,10.66,0,0,0-8.17,3.56,12.6,12.6,0,0,0-3,8.4V79a12.34,12.34,0,0,0,3.06,8.27,10.61,10.61,0,0,0,8.11,3.46,16.25,16.25,0,0,0,7.9-2.21,1.5,1.5,0,0,0,.75-1,1.58,1.58,0,0,0-.25-1.25l-.34-.47a1.53,1.53,0,0,0-1.94-.47c-.15.1-.31.16-.46.25a10.22,10.22,0,0,1-5.22,1.5c-4.84,0-7.52-3.9-7.52-6.62l0-.22a.63.63,0,0,1,.18-.46.54.54,0,0,1,.41-.19h15.67a1.08,1.08,0,0,0,1.06-1,11.7,11.7,0,0,0,.13-1.53,10.06,10.06,0,0,0-10.34-10.43Zm-7,9.15a7.06,7.06,0,0,1,7-5.59,6.14,6.14,0,0,1,4.19,1.69,6.7,6.7,0,0,1,2.09,3.93.43.43,0,0,1-.13.38.5.5,0,0,1-.37.15H175.74a.46.46,0,0,1-.38-.18A.43.43,0,0,1,175.27,75.77Z"></path><path class="cls-1" d="M166.4,66.66h-.9a1.47,1.47,0,0,0-1.41,1.06L159.88,83l-6.27-15.23a1.48,1.48,0,0,0-1.35-.91h-.9a1.4,1.4,0,0,0-1.34.91L143.74,83l-4.21-15.2a1.47,1.47,0,0,0-1.41-1.06h-.9a1.46,1.46,0,0,0-1.16.56,1.41,1.41,0,0,0-.25,1.25l5.84,21.1a1.48,1.48,0,0,0,1.4,1.06h.53a1.42,1.42,0,0,0,1.35-.9l6.87-16.71,6.86,16.68a1.47,1.47,0,0,0,1.35.9h.53a1.48,1.48,0,0,0,1.4-1.06l5.84-21.1a1.39,1.39,0,0,0-.25-1.25,1.41,1.41,0,0,0-1.13-.56Z"></path><path class="cls-1" d="M94.67,66.66a22.22,22.22,0,0,0-7.87,1.56,2.35,2.35,0,0,0-1.65,2.18V89.1a1.56,1.56,0,0,0,1.56,1.56h.81a1.57,1.57,0,0,0,1.56-1.56v-17a.84.84,0,0,1,.53-.78,13.09,13.09,0,0,1,5-1A7.93,7.93,0,0,1,99.69,72a5.55,5.55,0,0,1,2,4.31V89.07a1.57,1.57,0,0,0,1.56,1.56h.81a1.57,1.57,0,0,0,1.57-1.56V76.3c.06-5.65-4.47-9.64-11-9.64Z"></path></svg> 