<?xml version="1.0" encoding="UTF-8"?> <svg xmlns="http://www.w3.org/2000/svg" id="Layer_1" data-name="Layer 1" viewBox="0 0 300 150"><defs><style>.cls-1{fill:#333;}</style></defs><path class="cls-1" d="M58,64.68v7.45a8.06,8.06,0,0,0-3.22-3.36H49.19c1.82,1.35,4.68,3.47,4.68,5.16,0,.84-1,1-1.6,1H48.74v4h5.52A3.77,3.77,0,0,0,58,76.63v5.43h5.15V76.63A3.77,3.77,0,0,0,66.88,79h5.53v-4H68.88c-.58,0-1.6-.17-1.6-1,0-1.69,2.86-3.81,4.67-5.16H66.36a8,8,0,0,0-3.21,3.36V64.68Zm2.57-2.62c7.65,0,13.85,5.33,13.86,11.91s-6.2,11.91-13.85,11.91S46.73,80.55,46.73,74s6.19-11.91,13.84-11.91"></path><polygon class="cls-1" points="103.5 64.58 107.86 64.58 107.64 67.73 103.28 67.73 103.5 64.58"></polygon><path class="cls-1" d="M221.94,79.75c2.15,0,2.29-2,2.4-3.62a6.41,6.41,0,0,0-2.54.26,2.11,2.11,0,0,0-1.28,1.78,1.42,1.42,0,0,0,1.42,1.58m2,.83h-.05a4.87,4.87,0,0,1-3.7,1.59c-2.88,0-4.1-1.65-4.1-3.8,0-2.43,2.49-4,6.9-4h1.46c.07-1.07.44-2.83-1.38-2.83a1.72,1.72,0,0,0-1.64,1.83h-4.2a3.43,3.43,0,0,1,2.06-3.21,10.76,10.76,0,0,1,4.25-.73c2.47,0,5.51,1.23,5.3,4.25l-.34,5.86a18.71,18.71,0,0,0,0,2.5h-4.34Z"></path><path class="cls-1" d="M243.68,75.28,248,69.85h5.23L248.58,75,253,82.07h-5.67Zm-5.08,6.79,1.23-17.5h4.6l-1.22,17.5Z"></path><path class="cls-1" d="M163.58,71.67h0a4.55,4.55,0,0,1,4-1.78l-.27,3.91c-.31,0-.63,0-.94,0-3,0-3.13,1.74-3.25,3.76l-.27,4.54h-4.73l.63-9a28.49,28.49,0,0,0,.08-3.16h4.5Z"></path><polygon class="cls-1" points="167.33 82.07 168.56 64.57 173.02 64.57 171.79 82.07 167.33 82.07"></polygon><path class="cls-1" d="M135.07,76.14c-.08,1.49.3,3.59,2,3.59,2.12,0,2.64-2.12,2.72-3.81.07-1.49-.23-3.71-2-3.71-2.3,0-2.59,2.31-2.66,3.93m-3.66-11.57H136l-.49,7h.09a5.08,5.08,0,0,1,3.85-2c3.73,0,5.17,3.29,5,6.26s-1.78,6.45-6,6.45A4.38,4.38,0,0,1,135,80.57H135l-.28,1.49h-4.48Z"></path><path class="cls-1" d="M153.78,74.46a3,3,0,0,0-.43-1.82,1.61,1.61,0,0,0-1.54-.77c-1.6.07-2,1.21-2.25,2.59Zm-4.43,2.3c-.14,1.69.25,3,2,3a1.91,1.91,0,0,0,2.09-1.65h4.27a4.25,4.25,0,0,1-2.34,3.32,7,7,0,0,1-3.76.8c-5,0-6.89-2.07-6.59-6.69.26-3.86,3.37-6.14,7-6.08,4.89.08,6.47,3,6,7.26Z"></path><polygon class="cls-1" points="85.37 64.58 90.5 64.58 89.27 82.06 84.14 82.06 85.37 64.58"></polygon><polygon class="cls-1" points="96.17 64.58 90.04 72.34 95.5 82.06 101.64 82.06 95.52 72.09 101.96 64.58 96.17 64.58"></polygon><polygon class="cls-1" points="103.08 69.86 107.43 69.86 106.58 82.06 102.22 82.06 103.08 69.86"></polygon><path class="cls-1" d="M112.94,69.86v1.65h0a5.16,5.16,0,0,1,4.38-1.94c1.66,0,3.37.92,3.71,2.16a5.3,5.3,0,0,1,4.47-2.23c2.66,0,4.51,1.7,4.32,4.4l-.58,8.17H124.6l.51-7.17c.06-1.16,0-2.48-1.56-2.48-2.25,0-2.16,2.5-2.18,2.65l-.48,7h-4.7l.52-7.17c0-1.19-.13-2.48-1.61-2.48-2.37,0-2.32,2.5-2.32,2.65l-.48,7h-4.83l.84-12.21Z"></path><polygon class="cls-1" points="178.93 87.94 174.69 87.94 177.43 82.27 172.95 69.87 178.15 69.87 180.16 77.44 183.37 69.87 187.65 69.87 178.93 87.94"></polygon><polygon class="cls-1" points="188.1 72.32 194 72.32 192.12 76.14 186.21 76.14 188.1 72.32"></polygon><path class="cls-1" d="M203.47,64.11c3.61,0,7.29,1.57,7.13,6h-5a2.29,2.29,0,0,0-2.35-2.45c-1.69,0-3.66,1.25-4,4.88s.11,6.38,3.05,6.38a3,3,0,0,0,3.09-2.61h4.93c0,1.95-1.62,6-8.29,6-7.05,0-8.31-5.13-7.72-9.91.49-4,3.34-8.22,9.13-8.22"></path><polygon class="cls-1" points="210.7 82.07 211.92 64.57 216.38 64.57 215.16 82.07 210.7 82.07"></polygon><path class="cls-1" d="M234.66,71.67h.05a4.57,4.57,0,0,1,4.07-1.78l-.27,3.91c-.34,0-.66,0-1,0-3,0-3.13,1.74-3.25,3.76L234,82.07h-4.73l.64-9a31.4,31.4,0,0,0,.07-3.16h4.51Z"></path></svg> 