<?xml version="1.0" encoding="UTF-8"?> <svg xmlns="http://www.w3.org/2000/svg" id="Layer_1" data-name="Layer 1" viewBox="0 0 300 150"><defs><style>.cls-1{fill:#333;}</style></defs><path class="cls-1" d="M193.33,64.2a8.21,8.21,0,0,0-5.76,2,17.9,17.9,0,0,0-3.14,3.72c-1,1.79-1,4.25,0,6.75a10.09,10.09,0,0,0,6.34,5.95,5,5,0,0,0,1.25.14,12.77,12.77,0,0,0,5.89-2,8.33,8.33,0,0,0,2.85-2.67c1.87-3,1.3-9.13-1.09-11.61a8.83,8.83,0,0,0-6.22-2.28Zm-1.26,16.42a3.08,3.08,0,0,1-.75-.08,8.06,8.06,0,0,1-4.89-4.73,5.6,5.6,0,0,1-.16-4.85,16.42,16.42,0,0,1,2.79-3.27,6.23,6.23,0,0,1,4.28-1.37h.13A6.87,6.87,0,0,1,198.19,68c1.74,1.8,2.19,6.79.81,9a6.35,6.35,0,0,1-2.17,2A10.09,10.09,0,0,1,192.07,80.62Z"></path><path class="cls-1" d="M148.75,99.26c-1-1.63-2.64-1.86-4.2-1.88s-4.2.59-4.2,2.81c0,1.77,1.9,2.18,4.24,2.62,2.67.51,5.45,1,5.45,4s-3.17,3.89-5.49,3.89c-2.16,0-4.62-.9-5.69-3l.95-.47a5.44,5.44,0,0,0,4.74,2.51c1.7,0,4.42-.47,4.42-2.93,0-2.08-2.28-2.54-4.56-3-2.54-.5-5.13-1-5.13-3.57-.06-2.93,3-3.84,5.27-3.84,2,0,3.7.31,5.07,2.35Z"></path><path class="cls-1" d="M164.51,96.58v8.63c0,7.25-10.63,7.27-10.63,0V96.58h1.05v8.63a4.27,4.27,0,1,0,8.53,0V96.58Z"></path><path class="cls-1" d="M178,99.26c-1-1.63-2.63-1.86-4.2-1.88s-4.2.59-4.2,2.81c0,1.77,1.9,2.18,4.24,2.62,2.68.51,5.45,1,5.45,4s-3.17,3.89-5.49,3.89c-2.16,0-4.62-.9-5.69-3l1-.47a5.43,5.43,0,0,0,4.73,2.51c1.71,0,4.42-.47,4.42-2.93,0-2.08-2.28-2.54-4.56-3-2.53-.5-5.13-1-5.13-3.57-.06-2.93,3-3.84,5.27-3.84,2,0,3.71.31,5.08,2.35Z"></path><path class="cls-1" d="M193.05,110.46v-6.31h-8.84v6.31h-1.07V96.58h1.07v6.6h8.84v-6.6h1.07v13.88Z"></path><path class="cls-1" d="M198.77,110.46V96.58h1.06v13.88Z"></path><path class="cls-1" d="M137.06,91.46a4.44,4.44,0,0,1-1.35-.19c-1.81-.71-2.56-1.83-2.29-3.43.08-.48.24-.74.5-.79.43-.09.85.55.93.67l0,0v0a2,2,0,0,0,.91,1.85l.3.11a2.57,2.57,0,0,0,.82.17l.68-.06c2.31-.38,4.76-2.36,6.23-5a4.48,4.48,0,0,0,.68-2.57c-.05-1.82-2.58-3.74-5.26-5.77-3-2.28-6.11-4.63-6.11-7.19,0-4.83,7.3-8.41,9.54-8.41,1.08,0,1.46.59,1.46,1.11a.83.83,0,0,1-.7.87h0l-.39-.11c-1.49,0-7.35,3.12-7.35,6.9.11,2.3,6.16,6.12,6.22,6.16,3.1,2,4.68,4.28,4.68,6.68a6.78,6.78,0,0,1-.73,2.9l-.07.09C143.65,89.37,139.71,91.46,137.06,91.46Z"></path><path class="cls-1" d="M129.17,73.68a.77.77,0,0,1,.29.67,6.8,6.8,0,0,0,0,.8,18.68,18.68,0,0,0,0,2.27c0,.82,0,1.62,0,2.4s0,7.48,0,8.21a2.31,2.31,0,0,1-.87,1.78h-.67a1.75,1.75,0,0,1-.62-1,7.33,7.33,0,0,1-.3-1.38c0-.9-.06-7.79,0-8.77a19.52,19.52,0,0,1,.3-2.88c0-.25.11-.53.16-.86a2.64,2.64,0,0,1,.29-.86,1.13,1.13,0,0,1,.58-.52,1.29,1.29,0,0,1,1,.09m1-6a3,3,0,0,1-1.06,2.12,1.43,1.43,0,0,1-1.53-.27,2.17,2.17,0,0,1-.53-1.26,1.61,1.61,0,0,1,.4-1.25,1.63,1.63,0,0,1,1.53-.4c.7.35,1.1.71,1.19,1.06"></path><path class="cls-1" d="M151.8,87.36a4.25,4.25,0,0,1-1.22-.16c-1.64-.65-2.31-1.66-2.07-3.1,0-.17.11-.66.46-.73s.78.5.85.61l0,0v0a1.76,1.76,0,0,0,.8,1.65l.27.09a2.14,2.14,0,0,0,.73.16l.61,0a8.67,8.67,0,0,0,5.58-4.52,4,4,0,0,0,.61-2.3c0-1.62-2.31-3.34-4.71-5.17-2.7-2-5.5-4.16-5.5-6.47,0-4.35,6.57-7.58,8.58-7.58,1,0,1.33.55,1.33,1a.76.76,0,0,1-.64.8h0l-.34-.1a9.08,9.08,0,0,0-3.74,1.81c-1.06.79-2.84,2.41-2.84,4.37s5.52,5.48,5.58,5.52c2.79,1.82,4.2,3.85,4.2,6a6.11,6.11,0,0,1-.65,2.61l-.07.09C157.72,85.49,154.18,87.36,151.8,87.36Z"></path><path class="cls-1" d="M185.36,77.65A17.27,17.27,0,0,1,182,80.6a6.17,6.17,0,0,1-2.74.85,2.14,2.14,0,0,1-1.42-.45c-1.08-.86-1.36-2.85-1.36-4.73a25.87,25.87,0,0,1,.22-3.3,27.69,27.69,0,0,0,.23-3.41,6.34,6.34,0,0,0-.34-2.45c-.06-.17-.11-.28-.17-.28h-.06c-.4.11-.91.62-1.53,1.48-2.28,3.13-5.58,10.3-8.94,20.71a5.16,5.16,0,0,1-.91,1.82,1.41,1.41,0,0,1-.85.51c-.52,0-.8-.85-.86-2.39-.05-.51-.05-1.08-.05-1.76,0-1.08.05-2.39.11-3.87.63-10.76,3-30.62,5.06-38.19a.16.16,0,0,0,.06-.11c.29-.68.63-1,1-1.08a.66.66,0,0,1,.34-.06,1.13,1.13,0,0,1,1,.74l.06.06a2.91,2.91,0,0,1,.29,1.25,2.16,2.16,0,0,1-.91,1.94c-1.14,5.06-2.28,12.8-3.13,20.2-.8,6.94-1.43,13.54-1.43,17.3,3-8.88,5.92-15,8.08-17.93a5.17,5.17,0,0,1,2.11-1.93c.11-.06.23-.06.28-.12a1.84,1.84,0,0,1,.52-.05h.22a1.64,1.64,0,0,1,1,.45,3.13,3.13,0,0,1,.63,1v.06A8.52,8.52,0,0,1,178.9,70a24.38,24.38,0,0,1-.17,2.78c0,.8-.17,2-.17,3.13a13.91,13.91,0,0,0,.17,2.22c.17.91.57,1.65,1.42,1.65a2.3,2.3,0,0,0,1.2-.39,16.37,16.37,0,0,0,3.59-3.12"></path><polygon class="cls-1" points="107.52 71.95 105.77 45.13 101.91 45.47 104.83 72.78 107.52 71.95"></polygon><polygon class="cls-1" points="107.75 75.53 109.49 102.28 108 102.41 105.21 76.34 107.75 75.53"></polygon><rect class="cls-1" x="101.72" y="42.39" width="3.88" height="1.73" transform="translate(-3.33 9.04) rotate(-4.92)"></rect><rect class="cls-1" x="101.47" y="39.49" width="3.88" height="1.73" transform="translate(-3.08 9.01) rotate(-4.92)"></rect><polygon class="cls-1" points="118.69 69.26 119.69 53.1 115.81 52.94 115.48 69.9 118.69 69.26"></polygon><polygon class="cls-1" points="115.41 73.35 114.67 110.2 116.16 110.26 118.48 72.65 115.41 73.35"></polygon><rect class="cls-1" x="115.9" y="50.11" width="3.88" height="1.73" transform="translate(2.18 -4.77) rotate(2.34)"></rect><rect class="cls-1" x="116.02" y="47.19" width="3.88" height="1.73" transform="translate(2.06 -4.78) rotate(2.34)"></rect><path class="cls-1" d="M100.68,74.88a1.62,1.62,0,0,1-.7.25,4.69,4.69,0,0,0-.86.19,2,2,0,0,0-.68.4,1.33,1.33,0,0,0-.36.93c0,.65.2.85.31.91a.89.89,0,0,0,.37.11h0a1.06,1.06,0,0,0,.3,0c.26,0,.54-.09.82-.16a3,3,0,0,1,.65-.09l2.46-1,5.22-1.66c1.74-.56,3.51-1.06,5.27-1.51l1.74-.53c1.07-.27,2.16-.51,3.26-.72l3.35-.64a5.71,5.71,0,0,0,1.19-.12,1,1,0,0,0,.81-1,1,1,0,0,0-.26-.68.61.61,0,0,0-.48-.16c-.43,0-.83,0-1.2.07a22.12,22.12,0,0,0-3.36.43l-3,.65L113.7,71c-1.82.44-3.62.92-5.37,1.43s-3.48,1-5.22,1.51Z"></path><path class="cls-1" d="M188.69,75.71l-.11-.22a12.78,12.78,0,0,0,2.45-.31l2.83-.59a18.21,18.21,0,0,1,2.84-.25l1.68-.06a3.94,3.94,0,0,1-1,2.51,13.75,13.75,0,0,0-3.17-.76,10.32,10.32,0,0,0-3.89.65l-.81.21a5.71,5.71,0,0,1-.83-1.18"></path><path class="cls-1" d="M198.42,73.9a5,5,0,0,0-.12-1.46l-4.23.48c-1.93.22-3.35.28-3.35.28a19.87,19.87,0,0,1-2.86-.07,5.71,5.71,0,0,0,.45,1.76,22.55,22.55,0,0,0,3.42-.38s1.65-.29,3.35-.43Z"></path><path class="cls-1" d="M197.13,77.08a2.6,2.6,0,0,1-.36.3c-1.57,1.14-5.18,1-6.74,0,0,0,1.87-.54,2.29-.63a12.49,12.49,0,0,1,1.69-.24,6,6,0,0,1,1.42.1A9.1,9.1,0,0,1,197.13,77.08Z"></path><path class="cls-1" d="M195.94,69.39l-.37-.27c-1.75-1.15-4.92-.33-6.62,1.34a10.72,10.72,0,0,0,2.08,0s.87-.09,1.85-.27S195.94,69.39,195.94,69.39Z"></path><path class="cls-1" d="M196.29,69.68a15,15,0,0,1,1.35,1.41,2.74,2.74,0,0,1,.48.79l-.41,0-.66.07c-.33,0-2,.26-2,.26l-2.83.4c-1.3.18-2.7.25-2.7.25a7.39,7.39,0,0,1-1.72-.13,2.44,2.44,0,0,1,.16-.9,3.67,3.67,0,0,1,.52-.92,7.83,7.83,0,0,0,1.9,0,9.22,9.22,0,0,0,1.47-.19s1.84-.34,3.17-.71Z"></path></svg> 