<?xml version="1.0" encoding="UTF-8"?> <svg xmlns="http://www.w3.org/2000/svg" width="125" height="106" viewBox="0 0 125 106"><defs><linearGradient id="process-6-analytics-a" x1="106.832%" x2="0%" y1="74.746%" y2="13.865%"><stop offset="0%" stop-color="#20D2FF"></stop><stop offset="100%" stop-color="#2310AE"></stop></linearGradient></defs><g fill="none" fill-rule="evenodd" transform="translate(0 2)"><path fill="url(#process-6-analytics-a)" d="M46.5,11 C72.1812409,11 93,31.8187591 93,57.5 C93,65.5657818 90.9464004,73.1519197 87.333538,79.7640769 C88.7385192,83.0434962 90.9613154,85.5706782 94,87.3450965 C92.5641361,89.2709714 90.1963102,90.4417069 86.8965225,90.8573029 C84.04062,91.2169933 81.6941243,90.8966917 79.8570355,89.8963983 C71.4082536,98.5950488 59.5853238,104 46.5,104 C20.8187591,104 0,83.1812409 0,57.5 C0,31.8187591 20.8187591,11 46.5,11 Z"></path><circle cx="100" cy="23" r="23" fill="#CCC" stroke="#F8F4F4" stroke-width="3"></circle><path fill="#F8F4F4" fill-rule="nonzero" d="M100.72,31.336 C104.056,31.336 106.96,29.44 106.96,25.72 C106.96,22.216 104.2,20.44 101.272,20.44 C99.664,20.44 98.344,20.776 96.904,21.544 C97.336,18.304 99.352,17.368 101.56,17.368 C102.952,17.368 104.44,17.776 105.568,18.52 L105.568,15.352 C104.176,14.704 102.616,14.344 101.08,14.344 C96.928,14.344 93.328,16.864 93.328,22.84 C93.328,28.12 95.464,31.336 100.72,31.336 Z M100.432,28.408 C98.56,28.408 97.24,27.496 96.904,24.448 C97.936,23.776 99.088,23.44 100.168,23.44 C101.848,23.44 103.36,24.016 103.36,25.888 C103.36,27.688 102.016,28.408 100.432,28.408 Z"></path><line x1="25" x2="69" y1="73" y2="73" stroke="#FFF" stroke-linecap="round" stroke-linejoin="round" stroke-width="3"></line><line x1="33.5" x2="34" y1="57.5" y2="65.5" stroke="#FFF" stroke-linecap="round" stroke-linejoin="round" stroke-width="3" transform="rotate(4 33.5 61.5)"></line><line x1="59.25" x2="59.75" y1="57.5" y2="65.5" stroke="#FFF" stroke-linecap="round" stroke-linejoin="round" stroke-width="3" transform="rotate(4 59.25 61.5)"></line><line x1="41.933" x2="43.16" y1="47.529" y2="65.512" stroke="#FFF" stroke-linecap="round" stroke-linejoin="round" stroke-width="3" transform="rotate(4 42.66 56.512)"></line><line x1="66.886" x2="68.114" y1="47.529" y2="65.512" stroke="#FFF" stroke-linecap="round" stroke-linejoin="round" stroke-width="3" transform="rotate(4 67.614 56.512)"></line><line x1="25.5" x2="25.5" y1="40.5" y2="65.5" stroke="#FFF" stroke-linecap="round" stroke-linejoin="round" stroke-width="3"></line><line x1="51" x2="51" y1="40.5" y2="65.5" stroke="#FFF" stroke-linecap="round" stroke-linejoin="round" stroke-width="3"></line></g></svg> 