<?xml version="1.0" encoding="UTF-8"?> <svg xmlns="http://www.w3.org/2000/svg" width="125" height="103" viewBox="0 0 125 103"><defs><linearGradient id="icon-ux-3-a" x1="100%" x2="-8.98%" y1="21.492%" y2="67.399%"><stop offset="0%" stop-color="#E36E0C"></stop><stop offset="100%" stop-color="#F4C126"></stop></linearGradient></defs><g fill="none" fill-rule="evenodd" transform="translate(0 2)"><path fill="url(#icon-ux-3-a)" d="M46.5,8 C72.1812409,8 93,28.8187591 93,54.5 C93,62.5657818 90.9464004,70.1519197 87.333538,76.7640769 C88.7385192,80.0434962 90.9613154,82.5706782 94,84.3450965 C92.5641361,86.2709714 90.1963102,87.4417069 86.8965225,87.8573029 C84.04062,88.2169933 81.6941243,87.8966917 79.8570355,86.8963983 C71.4082536,95.5950488 59.5853238,101 46.5,101 C20.8187591,101 0,80.1812409 0,54.5 C0,28.8187591 20.8187591,8 46.5,8 Z"></path><g stroke="#FFF" stroke-width="3" transform="translate(20.246 27)"><circle cx="26.254" cy="5.5" r="5.5"></circle><circle cx="26.254" cy="48.5" r="5.5"></circle><circle cx="44.7" cy="16.356" r="5.712" transform="rotate(60 44.7 16.356)"></circle><circle cx="7.827" cy="37.644" r="5.712" transform="rotate(60 7.827 37.644)"></circle><circle cx="44.7" cy="37.644" r="5.712" transform="rotate(120 44.7 37.644)"></circle><circle cx="7.827" cy="16.356" r="5.712" transform="rotate(120 7.827 16.356)"></circle><line x1="44.754" x2="44.754" y1="24.5" y2="29.5" stroke-linecap="square"></line><line x1="7.754" x2="7.754" y1="24.5" y2="29.5" stroke-linecap="square"></line><line x1="14.754" x2="19.084" y1="42" y2="44.5" stroke-linecap="square"></line><line x1="31.254" x2="38.084" y1="7.5" y2="11.5" stroke-linecap="square"></line><line x1="19.044" x2="14.714" y1="9.023" y2="11.523" stroke-linecap="square"></line><line x1="38.084" x2="32.254" y1="42" y2="45.5" stroke-linecap="square"></line></g><circle cx="100" cy="23" r="23" fill="#CCC" stroke="#F8F4F4" stroke-width="3"></circle><path fill="#F8F4F4" fill-rule="nonzero" d="M99.64,31.336 C103,31.336 106.168,29.968 106.168,26.536 C106.168,24.136 104.68,22.864 103.024,22.36 C104.56,21.832 105.496,20.536 105.496,18.856 C105.496,15.88 102.976,14.344 99.592,14.344 C97.576,14.344 95.728,14.824 94.264,15.616 L94.264,18.952 C95.872,17.968 97.624,17.488 99.088,17.488 C101.056,17.488 102.088,18.184 102.088,19.36 C102.088,20.488 101.104,21.088 99.496,21.088 L97.24,21.064 L97.216,24.136 L99.904,24.136 C101.536,24.136 102.736,24.64 102.736,26.032 C102.736,27.568 101.2,28.168 99.352,28.168 C97.48,28.192 95.824,27.928 93.976,26.896 L93.976,30.232 C95.824,31 97.528,31.336 99.64,31.336 Z"></path></g></svg> 