<?xml version="1.0" encoding="UTF-8"?> <svg xmlns="http://www.w3.org/2000/svg" width="122" height="106" viewBox="0 0 122 106"><defs><linearGradient id="process-4-creative-a" x1="152.757%" x2=".923%" y1="5.392%" y2="145.744%"><stop offset="0%" stop-color="#FF208D"></stop><stop offset="100%" stop-color="#FFC143"></stop></linearGradient></defs><g fill="none" fill-rule="evenodd" transform="translate(0 2)"><path fill="url(#process-4-creative-a)" d="M46.5,11 C72.1812409,11 93,31.8187591 93,57.5 C93,65.5657818 90.9464004,73.1519197 87.333538,79.7640769 C88.7385192,83.0434962 90.9613154,85.5706782 94,87.3450965 C92.5641361,89.2709714 90.1963102,90.4417069 86.8965225,90.8573029 C84.04062,91.2169933 81.6941243,90.8966917 79.8570355,89.8963983 C71.4082536,98.5950488 59.5853238,104 46.5,104 C20.8187591,104 0,83.1812409 0,57.5 C0,31.8187591 20.8187591,11 46.5,11 Z"></path><g stroke="#FFF" stroke-width="3" transform="translate(49.5 45)"><circle cx="4.5" cy="4" r="4"></circle><line x1=".5" x2=".5" y1="27.577" y2="4.5" stroke-linecap="round" stroke-linejoin="round"></line></g><g stroke="#FFF" stroke-width="3" transform="matrix(-1 0 0 1 45 45)"><circle cx="4.5" cy="4" r="4"></circle><line x1=".5" x2=".5" y1="27.577" y2="4.5" stroke-linecap="round" stroke-linejoin="round"></line></g><circle cx="97" cy="23" r="23" fill="#CCC" stroke="#F8F4F4" stroke-width="3"></circle><path fill="#F8F4F4" fill-rule="nonzero" d="M101.668,29 L101.668,26.024 L104.14,26.024 L104.14,23.024 L101.668,23.024 L101.668,12.68 L98.092,12.68 L89.668,23.048 L89.668,26.024 L98.236,26.024 L98.236,29 L101.668,29 Z M98.236,23.024 L93.412,23.024 L98.236,17.072 L98.236,23.024 Z"></path><path stroke="#FFF" stroke-linecap="round" stroke-linejoin="round" stroke-width="3" d="M56.8445335,73 C56.6663087,69.5075101 57.332007,66.8109916 58.8416285,64.9104445 C61.1060607,62.059624 66,58.2847299 66,48.4005869 C66,38.5164439 56.7161737,32.6840344 52.1077948,31.54468 C47.499416,30.4053255 37.4235569,30.2060429 31.833348,39.7166613 C26.243139,49.2272797 30.4052,56.7450712 31.833348,58.7893707 C33.261496,60.8336703 36.6461238,64.6581226 37.55562,66.7276383 C38.1619509,68.1073154 38.4651163,70.1981027 38.4651163,73" transform="matrix(-1 0 0 1 95 0)"></path><line x1="57" x2="38" y1="78.5" y2="78.5" stroke="#FFF" stroke-linecap="round" stroke-linejoin="round" stroke-width="3"></line><line x1="56" x2="39" y1="83.5" y2="83.5" stroke="#FFF" stroke-linecap="round" stroke-linejoin="round" stroke-width="3"></line></g></svg> 