<?xml version="1.0" encoding="UTF-8"?> <svg xmlns="http://www.w3.org/2000/svg" width="122" height="103" viewBox="0 0 122 103"><defs><linearGradient id="icon-discover-1-a" x1="129.829%" x2="0%" y1="66.602%" y2="28.929%"><stop offset="0%" stop-color="#008F65"></stop><stop offset="100%" stop-color="#20C8F2"></stop></linearGradient></defs><g fill="none" fill-rule="evenodd" transform="translate(0 2)"><path fill="url(#icon-discover-1-a)" d="M46.5,8 C72.1812409,8 93,28.8187591 93,54.5 C93,62.5657818 90.9464004,70.1519197 87.333538,76.7640769 C88.7385192,80.0434962 90.9613154,82.5706782 94,84.3450965 C92.5641361,86.2709714 90.1963102,87.4417069 86.8965225,87.8573029 C84.04062,88.2169933 81.6941243,87.8966917 79.8570355,86.8963983 C71.4082536,95.5950488 59.5853238,101 46.5,101 C20.8187591,101 0,80.1812409 0,54.5 C0,28.8187591 20.8187591,8 46.5,8 Z"></path><circle cx="39" cy="51" r="16" stroke="#FFF" stroke-linecap="round" stroke-linejoin="round" stroke-width="3"></circle><line x1="52.5" x2="66.5" y1="61.5" y2="72.5" stroke="#FFF" stroke-linecap="round" stroke-linejoin="round" stroke-width="3"></line><circle cx="97" cy="23" r="23" fill="#CCC" stroke="#F8F4F4" stroke-width="3"></circle><polygon fill="#F8F4F4" fill-rule="nonzero" points="102.004 31 102.004 27.904 99.268 27.904 99.268 14.68 96.652 14.68 92.692 16.192 92.692 19.432 95.764 18.28 95.764 27.904 92.692 27.904 92.692 31"></polygon></g></svg> 