<?xml version="1.0" encoding="UTF-8"?> <svg xmlns="http://www.w3.org/2000/svg" width="125" height="103" viewBox="0 0 125 103"><defs><linearGradient id="icon-strategy-2-a" x1="122.81%" x2="6.15%" y1="38.25%" y2="56.167%"><stop offset="0%" stop-color="#E9D126"></stop><stop offset="100%" stop-color="#0EB785"></stop></linearGradient></defs><g fill="none" fill-rule="evenodd" transform="translate(0 2)"><path fill="url(#icon-strategy-2-a)" d="M46.5,8 C72.1812409,8 93,28.8187591 93,54.5 C93,62.5657818 90.9464004,70.1519197 87.333538,76.7640769 C88.7385192,80.0434962 90.9613154,82.5706782 94,84.3450965 C92.5641361,86.2709714 90.1963102,87.4417069 86.8965225,87.8573029 C84.04062,88.2169933 81.6941243,87.8966917 79.8570355,86.8963983 C71.4082536,95.5950488 59.5853238,101 46.5,101 C20.8187591,101 0,80.1812409 0,54.5 C0,28.8187591 20.8187591,8 46.5,8 Z"></path><g stroke="#FFF" stroke-linecap="round" stroke-linejoin="round" stroke-width="3" transform="translate(19 27)"><circle cx="26.5" cy="26.906" r="14.5"></circle><circle cx="26.5" cy="26.906" r="23.5"></circle><line x1="54" x2="43" y1="27.906" y2="27.906"></line><line x1="26.5" x2="26.5" y1=".75" y2="11.063"></line><line x1="26.5" x2="26.5" y1="43.75" y2="54.063"></line><line x1="11" y1="27.906" y2="27.906"></line></g><circle cx="100" cy="23" r="23" fill="#CCC" stroke="#F8F4F4" stroke-width="3"></circle><path fill="#F8F4F4" fill-rule="nonzero" d="M106.048,31 L106.048,27.904 L97.888,27.928 C97.912,26.872 99.568,25.984 101.512,24.832 C103.648,23.56 105.928,21.928 105.928,19.168 C105.928,15.832 103.264,14.344 99.976,14.344 C97.984,14.344 96.04,14.872 94.36,16.072 L94.36,19.432 C96.088,18.112 98.008,17.488 99.64,17.488 C101.296,17.488 102.352,18.112 102.352,19.312 C102.352,20.872 100.888,21.52 99.184,22.504 C96.784,23.92 93.808,25.456 93.808,29.392 L93.808,31 L106.048,31 Z"></path></g></svg> 