<?xml version="1.0" encoding="UTF-8"?> <svg xmlns="http://www.w3.org/2000/svg" width="126" height="106" viewBox="0 0 126 106"><defs><linearGradient id="process-5-dev-a" x1="106.832%" x2="0%" y1="74.746%" y2="13.865%"><stop offset="0%" stop-color="#2310AE"></stop><stop offset="100%" stop-color="#FF208D"></stop></linearGradient></defs><g fill="none" fill-rule="evenodd" transform="translate(0 2)"><path fill="url(#process-5-dev-a)" d="M46.5,11 C72.1812409,11 93,31.8187591 93,57.5 C93,65.5657818 90.9464004,73.1519197 87.333538,79.7640769 C88.7385192,83.0434962 90.9613154,85.5706782 94,87.3450965 C92.5641361,89.2709714 90.1963102,90.4417069 86.8965225,90.8573029 C84.04062,91.2169933 81.6941243,90.8966917 79.8570355,89.8963983 C71.4082536,98.5950488 59.5853238,104 46.5,104 C20.8187591,104 0,83.1812409 0,57.5 C0,31.8187591 20.8187591,11 46.5,11 Z"></path><circle cx="101" cy="23" r="23" fill="#CCC" stroke="#F8F4F4" stroke-width="3"></circle><path fill="#F8F4F4" fill-rule="nonzero" d="M100.268,31.336 C103.868,31.336 107.18,29.68 107.18,25.888 C107.18,22.144 104.468,20.68 101.204,20.68 C100.532,20.68 99.788,20.776 99.092,20.92 L99.308,17.728 L106.436,17.752 L106.436,14.656 L96.068,14.656 L95.492,24.136 C96.908,23.632 98.42,23.44 99.596,23.44 C102.212,23.44 103.58,24.232 103.58,25.84 C103.58,27.424 101.996,28.192 99.86,28.192 C98.228,28.192 96.332,27.736 95.012,26.896 L95.012,30.232 C96.452,30.928 98.372,31.336 100.268,31.336 Z"></path><g stroke="#FFF" stroke-width="3" transform="translate(18 34)"><ellipse cx="28.5" cy="3" rx="7.5" ry="3"></ellipse><ellipse cx="28.5" cy="17" rx="7.5" ry="3"></ellipse><line x1="34.143" x2="38.953" y1="5.15" y2="7.423" stroke-linecap="round" stroke-linejoin="round"></line><line x1="35.214" x2="39.763" y1="12.5" y2="14.996" stroke-linecap="round" stroke-linejoin="round" transform="matrix(-1 0 0 1 74.714 0)"></line><line x1="18.047" x2="22.857" y1="5.15" y2="7.423" stroke-linecap="round" stroke-linejoin="round" transform="matrix(-1 0 0 1 40.904 0)"></line><line x1="1.143" x2="6.857" y1="13.15" y2="15.85" stroke-linecap="round" stroke-linejoin="round" transform="matrix(-1 0 0 1 8 0)"></line><line x1="49.143" x2="54.857" y1="13.15" y2="15.85" stroke-linecap="round" stroke-linejoin="round"></line><line x1="17.143" x2="21.953" y1="12.15" y2="14.423" stroke-linecap="round" stroke-linejoin="round"></line><ellipse cx="44.5" cy="10" rx="7.5" ry="3"></ellipse><ellipse cx="11.5" cy="10" rx="7.5" ry="3"></ellipse><line x1="54.875" x2="28.052" y1="16.133" y2="27.451" stroke-linecap="round" stroke-linejoin="round"></line><line x1="54.875" x2="27.5" y1="34.133" y2="45.5" stroke-linecap="round" stroke-linejoin="round"></line><line x1="27.871" x2="1.006" y1="16.133" y2="27.84" stroke-linecap="round" stroke-linejoin="round" transform="matrix(-1 0 0 1 29 0)"></line><line x1="27.077" x2="1.129" y1="34.133" y2="45.44" stroke-linecap="round" stroke-linejoin="round" transform="matrix(-1 0 0 1 28.206 0)"></line><line x1="55" x2="55" y1="16.132" y2="33.868" stroke-linecap="round"></line><line x1="1" x2="1" y1="16.132" y2="33.868" stroke-linecap="round" stroke-linejoin="round"></line><line x1="28" x2="28" y1="28.132" y2="44.868" stroke-linecap="round" stroke-linejoin="round"></line></g></g></svg> 