<?xml version="1.0" encoding="UTF-8"?> <svg xmlns="http://www.w3.org/2000/svg" xmlns:xlink="http://www.w3.org/1999/xlink" id="Layer_1" data-name="Layer 1" viewBox="0 0 300 150"><defs><style>.cls-1{fill:#fff;}.cls-1,.cls-2{fill-rule:evenodd;}.cls-2{fill:#333;}.cls-3{mask:url(#mask);}.cls-4{mask:url(#mask-2);}.cls-5{mask:url(#mask-3);}</style><mask id="mask" x="154.92" y="60.5" width="19.56" height="28.13" maskUnits="userSpaceOnUse"><g id="mtbank-b"><polygon id="mtbank-a" class="cls-1" points="154.92 60.5 174.48 60.5 174.48 88.63 154.92 88.63 154.92 60.5"></polygon></g></mask><mask id="mask-2" x="175.81" y="69.73" width="14" height="19.76" maskUnits="userSpaceOnUse"><g id="mtbank-d"><polygon id="mtbank-c" class="cls-1" points="175.81 69.73 189.81 69.73 189.81 89.5 175.81 89.5 175.81 69.73"></polygon></g></mask><mask id="mask-3" x="210.92" y="60.74" width="14.28" height="28.87" maskUnits="userSpaceOnUse"><g id="mtbank-f"><polygon id="mtbank-e" class="cls-1" points="210.92 61.57 225.19 61.57 225.19 89.61 210.92 89.61 210.92 61.57"></polygon></g></mask></defs><path class="cls-2" d="M78,62.42H74.81V61.19a4.8,4.8,0,0,1,.56-.06c2.49,0,5,0,7.48,0,.54,0,.73.23.91.68q3.4,8.57,6.83,17.12c.08.21.2.4.4.81,2.51-6.31,4.94-12.42,7.39-18.56h8.43v1.23h-3.08c0,.36,0,.6,0,.85,0,7.61,0,15.22,0,22.83,0,.75.23,1,.94.92s1.15,0,1.76,0V88.1H95.65V87c.69,0,1.39,0,2.08,0,.39,0,.61-.1.61-.56q0-10.16,0-20.32s0-.09-.12-.29c-.18.36-.34.62-.45.9q-3.91,10-7.81,20.08c-.17.44-.29.79-.92.79s-.79-.32-1-.8l-8-20.19c-.1-.24-.23-.46-.34-.69l-.19,0c0,.27,0,.53,0,.8,0,6.41,0,12.83,0,19.25,0,.77.19,1,1,1s1.6,0,2.46,0v1.13H75.41V87c.58,0,1.15,0,1.72,0s.83-.21.83-.86c0-7.18,0-14.36,0-21.54Z"></path><g class="cls-3"><path class="cls-2" d="M156.57,67.75c0,1.71,0,3.43,0,5.14,0,.47.1.75.67.74,3-.06,6,0,9-.17A5.67,5.67,0,0,0,169.9,72a6.1,6.1,0,0,0,1.19-7c-1.15-2.29-3.31-3-5.72-3.1-2.7-.11-5.4,0-8.11,0-.54,0-.71.17-.7.68,0,1.74,0,3.48,0,5.22Zm0,13.36c0,1.84,0,3.69,0,5.53,0,.46.07.76.66.75,3.16-.06,6.33,0,9.49-.17a6,6,0,0,0,4.94-2.48,6.27,6.27,0,0,0,.42-6.55c-1-2.2-3.15-3-5.5-3.18-3.08-.16-6.17-.1-9.25-.16-.57,0-.77.17-.76.73,0,1.84,0,3.69,0,5.53Zm-1.65-20.54c.29,0,.53,0,.77,0,3.17,0,6.34-.06,9.51,0a9.73,9.73,0,0,1,5.66,1.69,6.33,6.33,0,0,1,2.53,6.24,6,6,0,0,1-4.16,5.24l-1.15.44c.49.15.74.24,1,.3,3.2.83,5.19,3.06,5.37,5.87.29,4.25-1.81,6.64-4.79,7.58a15.44,15.44,0,0,1-4.11.68c-3.34.1-6.67,0-10,0-.19,0-.38,0-.62,0Z"></path></g><g class="cls-4"><path class="cls-2" d="M188.41,80.88c0-.48,0-.84,0-1.19.06-.61-.19-.82-.75-.77a42.51,42.51,0,0,0-4.24.32,17.66,17.66,0,0,0-4.14,1.25,3.67,3.67,0,0,0-2,3.8,3.92,3.92,0,0,0,2.47,3.62,6.51,6.51,0,0,0,6.87-1.4,7.4,7.4,0,0,0,1.83-5.63m-10.38-6-1.21-.4a6.26,6.26,0,0,1,3.11-3.88,7.41,7.41,0,0,1,6.38-.34,5.31,5.31,0,0,1,3.32,4.94c.18,2.54.14,5.09.16,7.64,0,2,0,4,0,6.08h-1.4V85.62l-.23-.05c-.15.24-.31.47-.45.71-2.11,3.66-7.09,3.93-9.76,2.14s-3.16-6.85.4-8.81a14.66,14.66,0,0,1,6-1.55c1.13-.08,2.27-.13,3.4-.15.49,0,.71-.21.66-.74-.08-.86-.08-1.73-.24-2.57a4.13,4.13,0,0,0-4.11-3.66c-2.86-.17-4.89,1.08-6,4"></path></g><g class="cls-5"><path class="cls-2" d="M216.61,78.15a5.89,5.89,0,0,0-.5.5c-1.16,1.31-2.32,2.61-3.45,3.95a1.66,1.66,0,0,0-.35,1c0,1.69,0,3.37,0,5.14h-1.37v-28h1.36v20l.19.09c.25-.26.52-.5.76-.78,3-3.45,5.9-6.93,8.92-10.33.36-.39,1.17-.33,1.77-.47a1.89,1.89,0,0,1,.11.25c-.84,1-1.68,2-2.53,2.95-1.14,1.32-2.27,2.66-3.45,4a.82.82,0,0,0-.1,1.21c2,2.95,3.89,5.93,5.83,8.9.46.7.91,1.41,1.41,2.2-1,.14-1.63.13-2.22-.83-2-3.17-4.05-6.26-6.09-9.37-.07-.11-.15-.21-.27-.37"></path></g><path class="cls-2" d="M193.25,70.68v4.45c.6-.94,1-1.74,1.58-2.45a6.5,6.5,0,0,1,8.75-1.47,5.34,5.34,0,0,1,2.16,4.32c.11,4.44,0,8.88,0,13.32a.92.92,0,0,1-.07.26h-1.3v-.86c0-3.76,0-7.51,0-11.27a9.63,9.63,0,0,0-.39-2.67c-.8-2.54-2.64-3-4.48-2.94-4,.14-6.1,3.73-6.25,7.24-.13,3.17,0,6.36,0,9.53v1h-1.43V70.68ZM119.92,85.79c-1.91.2-3.83.29-5.5-.91a5,5,0,0,1-2.3-4.12,9,9,0,0,1,.31-2.8,6.88,6.88,0,0,1,1.29-1.9c.24-.31.53-.32.85,0,2.87,2.74,5.76,5.46,8.64,8.2a2,2,0,0,1,.22.3,6.78,6.78,0,0,1-3.51,1.24ZM118.1,63.68a3,3,0,0,1,3,3.1v.53a5.7,5.7,0,0,1-2.67,5c-.42.28-.73.34-1.12-.08a7.18,7.18,0,0,1-2.25-5.4,3,3,0,0,1,3-3.11Zm10.33-2.57v7h1.4c.67-5.25,3.89-6.27,7.42-5.66,0,.12,0,.24,0,.37v23c0,.08,0,.18,0,.22s-.3.43-.47.43a13.55,13.55,0,0,1-2.55-.06c-2.8-.47-4.34-2.63-6.3-4.35a11.58,11.58,0,0,0,2.32-5.27,2.45,2.45,0,0,1,2-2c.87-.14,1-.53.77-1.26h-8v1.06c1.61.09,2.89.63,3.22,2.29s-.43,2.88-1.49,4.15l-7.73-7.24,1-.41c.86-.41,1.75-.77,2.56-1.25,1.85-1.1,3-2.64,2.75-4.84a5.06,5.06,0,0,0-3.88-4.41,11.4,11.4,0,0,0-4.83-.37,6.61,6.61,0,0,0-5.9,4.62,7,7,0,0,0,1.65,6.66l.54.62c-1.27.71-2.51,1.29-3.62,2a6,6,0,0,0,.09,9.81,12.54,12.54,0,0,0,7.25,1.8,14,14,0,0,0,7.63-2.23.8.8,0,0,1,.75.06,6.94,6.94,0,0,0,5,1.79h15.18c.27,0,.55,0,.8,0,.18-1.1.17-1.12-.83-1.12a9.12,9.12,0,0,0-1.17,0c-.77.09-1-.17-1-1,0-7.18,0-14.37,0-21.55,0-1.76,0-1.76,1.84-1.76a5,5,0,0,1,5.11,3.61c.23.73.37,1.49.55,2.2h1.35v-7Z"></path></svg> 