<?xml version="1.0" encoding="UTF-8"?> <svg xmlns="http://www.w3.org/2000/svg" id="Layer_1" data-name="Layer 1" viewBox="0 0 300 150"><defs><style>.cls-1{fill:#333;}</style></defs><g id="Pr5FZi"><path class="cls-1" d="M59.71,75a30.14,30.14,0,1,1,30,30.17A30.21,30.21,0,0,1,59.71,75ZM89.9,46.1A28.92,28.92,0,1,0,118.79,75,28.94,28.94,0,0,0,89.9,46.1Z"></path><path class="cls-1" d="M204.57,82.49a2.32,2.32,0,0,0-.31.28c-1.83,3-6.51,2.66-8.24-.64a8,8,0,0,1-.94-3.07,13.29,13.29,0,0,1,.22-4.53,6.7,6.7,0,0,1,1.84-3.22,5.08,5.08,0,0,1,6.11-.51,9.14,9.14,0,0,1,.9.86l.4.41a2.52,2.52,0,0,0,.15-1.15c.05-.51.29-.72.77-.69a.57.57,0,0,1,.59.52q0,.33,0,.66V83.49a10.26,10.26,0,0,1-.47,3.39,5.11,5.11,0,0,1-5,3.62,7.19,7.19,0,0,1-3.7-.81,4.85,4.85,0,0,1-.75-.53.78.78,0,0,1-.24-.78.56.56,0,0,1,.81-.5,3.23,3.23,0,0,1,.58.31,5.77,5.77,0,0,0,3.47.84,3.87,3.87,0,0,0,3.59-2.91,10.46,10.46,0,0,0,.28-3.34A1.93,1.93,0,0,0,204.57,82.49Zm.18-5.06h-.06c0-.53,0-1.06,0-1.58a7.43,7.43,0,0,0-.28-1.62,3.82,3.82,0,0,0-4.8-2.6A4,4,0,0,0,197,74.19a8.88,8.88,0,0,0-.51,4.21,7.32,7.32,0,0,0,.88,3,3.79,3.79,0,0,0,4.42,1.8,3.72,3.72,0,0,0,2.79-3.11A19.9,19.9,0,0,0,204.75,77.43Z"></path><path class="cls-1" d="M173.5,75c0-2.51,0-5,0-7.52a3.44,3.44,0,0,1,.11-.91,1.23,1.23,0,0,1,1.23-1,49.8,49.8,0,0,1,5.33.11A6.94,6.94,0,0,1,185.92,70a10,10,0,0,1,.82,3.91,13.67,13.67,0,0,1-.71,5.12,8.31,8.31,0,0,1-3.41,4.41,7.54,7.54,0,0,1-3.76,1.06c-1.19,0-2.38,0-3.56,0a1.6,1.6,0,0,1-1.8-1.79C173.49,80.15,173.5,77.56,173.5,75ZM175,75v7.12c0,.8.12.94.9,1s1.81,0,2.71,0a6.21,6.21,0,0,0,6.28-4.93,13.49,13.49,0,0,0,0-6.71,5.57,5.57,0,0,0-5.11-4.27c-1.12-.1-2.24-.09-3.36-.12a8.23,8.23,0,0,0-.86,0,.52.52,0,0,0-.53.56c0,.17,0,.35,0,.53Z"></path><path class="cls-1" d="M147.7,76.22h-.76c-1.06,0-2.12,0-3.18,0-.55,0-.78-.25-.8-.75s.16-.76.68-.76q2.45,0,4.89,0c.55,0,.68.19.69.83V81c0,.31,0,.62,0,.93a1.87,1.87,0,0,1-1,1.69,8.46,8.46,0,0,1-2.7,1,9.58,9.58,0,0,1-4,0,7.15,7.15,0,0,1-5.06-4.26,12.34,12.34,0,0,1-1-5.47,12.08,12.08,0,0,1,.91-4.76,7.67,7.67,0,0,1,6-4.82,7.55,7.55,0,0,1,5.78,1.26,2.74,2.74,0,0,1,.45.38.74.74,0,0,1-.06,1.11.54.54,0,0,1-.77.1l-.55-.37a6.28,6.28,0,0,0-9.42,2.69,11,11,0,0,0-.88,5.87,10.5,10.5,0,0,0,.61,2.76A6.21,6.21,0,0,0,141.3,83a7.06,7.06,0,0,0,4.22.11,13.45,13.45,0,0,0,1.61-.58,1,1,0,0,0,.63-.86c0-.2,0-.39.05-.59,0-1.34,0-2.69,0-4A7.41,7.41,0,0,0,147.7,76.22Z"></path><path class="cls-1" d="M153.9,75V68c0-.27,0-.53,0-.79a1.58,1.58,0,0,1,1.72-1.68h7.13c.55,0,.76.17.83.57.1.58-.16.92-.79.92h-6.54c-.72,0-1,.23-1,1,0,1.32,0,2.64,0,4,0,.44,0,.89,0,1.32s.07.61.62.61c1.83,0,3.66,0,5.49,0h.52a.77.77,0,0,1,.7,1.16.78.78,0,0,1-.46.32,2.33,2.33,0,0,1-.65,0h-5.42c-.73,0-.81.09-.81.8v5.94c0,.77.16.93.94.94,2,0,4,0,6.08,0,.22,0,.44,0,.66,0,.43,0,.6.21.63.61a.72.72,0,0,1-.54.86,1.78,1.78,0,0,1-.46,0h-6.94c-1.19,0-1.75-.54-1.76-1.72,0-2.6,0-5.2,0-7.79Z"></path><path class="cls-1" d="M233.26,72c0-.38,0-.77.08-1.15a.62.62,0,0,1,.75-.63.58.58,0,0,1,.6.51,3.88,3.88,0,0,1,0,.59q0,6.08,0,12.15c0,.16,0,.31,0,.46a.62.62,0,0,1-.69.64c-.44,0-.64-.17-.68-.63,0-.24,0-.49,0-.73s0-.42-.08-.78a3.43,3.43,0,0,0-.44.45c-1.7,2.69-6,2.45-7.7,0a7.77,7.77,0,0,1-1.33-3.2A12,12,0,0,1,224,74.2a6.52,6.52,0,0,1,1.59-2.78,5.27,5.27,0,0,1,5.7-1,4.19,4.19,0,0,1,1.41,1.17l.37.44Zm.14,5.44h-.08c0-.35,0-.7,0-1a7.48,7.48,0,0,0-.37-2.34,3.89,3.89,0,0,0-4.81-2.42,4,4,0,0,0-2.51,2.45,8.68,8.68,0,0,0-.47,5.18,8.2,8.2,0,0,0,.71,2.11,3.7,3.7,0,0,0,4.31,1.89,3.66,3.66,0,0,0,2.9-2.94A22.7,22.7,0,0,0,233.4,77.45Z"></path><path class="cls-1" d="M216.58,71.73c-.52,0-1,0-1.44,0s-.78-.26-.8-.69.14-.62.55-.67c.22,0,.44,0,.66,0,1.12,0,1.12,0,1.12-1.14V67.4c0-.15,0-.3,0-.46,0-.6.22-.8.73-.79s.65.21.66.79c0,.88,0,1.76,0,2.64,0,.66.07.72.71.75s1.1,0,1.65,0,.68.19.7.61a.64.64,0,0,1-.65.75c-.48,0-1,0-1.45,0h-.9c0,.32-.05.55-.06.78q0,4.17,0,8.32a4.74,4.74,0,0,0,.16,1.24,1.61,1.61,0,0,0,2.3,1.15c.19-.07.36-.17.55-.23a.5.5,0,0,1,.6.14c.18.22.3.47.13.72a1.88,1.88,0,0,1-.6.59,3.27,3.27,0,0,1-3.22,0,2.79,2.79,0,0,1-1.27-2.35c-.05-.5-.05-1-.05-1.52,0-2.61,0-5.23,0-7.85A8.85,8.85,0,0,0,216.58,71.73Z"></path><path class="cls-1" d="M240.29,74v9.24c0,.2,0,.4,0,.6,0,.5-.21.69-.67.7s-.66-.19-.7-.69c0-.17,0-.35,0-.52V64.74c0-.18,0-.35,0-.53,0-.52.2-.69.68-.69s.66.16.69.67c0,.22,0,.44,0,.66Z"></path><path class="cls-1" d="M190.15,77.41v-6a3.84,3.84,0,0,1,0-.59.62.62,0,0,1,.73-.59c.4,0,.58.19.63.61a4.78,4.78,0,0,1,0,.53V83.43c0,.16,0,.31,0,.47,0,.49-.24.68-.7.68s-.64-.21-.68-.71c0-.2,0-.4,0-.6Z"></path><path class="cls-1" d="M211.72,77.39v6.07a3.88,3.88,0,0,1,0,.59.62.62,0,0,1-.72.53.57.57,0,0,1-.63-.54,4.52,4.52,0,0,1,0-.52q0-6.1,0-12.2a3.54,3.54,0,0,1,0-.46c.06-.45.25-.63.68-.63s.64.19.69.64a4.51,4.51,0,0,1,0,.52Z"></path><path class="cls-1" d="M190.85,64.33a1.09,1.09,0,0,1,1,1.07,1,1,0,0,1-.94,1.06,1,1,0,0,1-1.05-1A1.08,1.08,0,0,1,190.85,64.33Z"></path><path class="cls-1" d="M212,65.39a1,1,0,0,1-1,1.07,1,1,0,0,1-1-1.06,1.12,1.12,0,0,1,1-1.07A1,1,0,0,1,212,65.39Z"></path><path class="cls-1" d="M96.7,49.12c-.79-.16-1.58-.38-2.38-.48a22.17,22.17,0,0,0-2.83-.14,8.9,8.9,0,0,0-3,.53,4.71,4.71,0,0,0-1.88,1.19,2.62,2.62,0,0,0-.73,1.45A2.16,2.16,0,0,0,88.79,54a4.35,4.35,0,0,0,1-.54c.4-.27.77-.59,1.16-.87a6.27,6.27,0,0,1,3.12-1.15,17.47,17.47,0,0,1,6.7.8,20.39,20.39,0,0,1,10,6.15,23,23,0,0,1,4.83,9,28,28,0,0,1,1.05,9.33,24,24,0,0,1-1.16,6.34c.19-.9.42-1.79.56-2.69a14.21,14.21,0,0,0-.07-6.09,5.69,5.69,0,0,0-1.1-2.23,2.66,2.66,0,0,0-2.12-1,2,2,0,0,0-2.08,2.34,4.51,4.51,0,0,0,.51,1.41,8.83,8.83,0,0,0,.79,1.06,7,7,0,0,1,1.41,4,21.51,21.51,0,0,1-10.93,18.85,25.39,25.39,0,0,1-8.86,2.86,28.62,28.62,0,0,1-5.47.21,22.35,22.35,0,0,1-6.68-1.23c1.07.23,2,.47,3,.62a14.59,14.59,0,0,0,6.1,0,5.88,5.88,0,0,0,2.17-1.07,2.72,2.72,0,0,0,1-1.78A2.21,2.21,0,0,0,90.69,96a4.37,4.37,0,0,0-1.22.78,8,8,0,0,1-6.65,1.8A24.25,24.25,0,0,1,76.58,97a20.16,20.16,0,0,1-10.16-8.76A25.32,25.32,0,0,1,63.25,79,28.75,28.75,0,0,1,63,73.16c.08-1.31.34-2.61.54-3.91a1.58,1.58,0,0,1,.24-.53h0a15.18,15.18,0,0,0-.41,5.49,12.4,12.4,0,0,0,.5,2.25,3.78,3.78,0,0,0,1.66,2.15,2.24,2.24,0,0,0,3.13-.68,2.19,2.19,0,0,0,.08-2.09,6.37,6.37,0,0,0-.86-1.32,7.29,7.29,0,0,1-1.66-4.63,19.72,19.72,0,0,1,.94-6.1c2.17-7.23,7-11.82,14.06-14.25a26.8,26.8,0,0,1,10.81-1.3c1.37.1,2.73.42,4.1.65a3.1,3.1,0,0,1,.53.24ZM78.1,68.44a.94.94,0,0,1-.93-.44,3,3,0,0,1-.52-1.19,11.53,11.53,0,0,1,.08-2c0-.37.17-.73.21-1.1a.79.79,0,0,0-1-.89,1.64,1.64,0,0,0-.78.44,3.32,3.32,0,0,0-.66,1.05,5.51,5.51,0,0,0-.33,2.85,4.37,4.37,0,0,0,3.43,3.81,1.22,1.22,0,0,1,1,.81,3.68,3.68,0,0,0,3.13,2.42,5.12,5.12,0,0,0,2.74-.57l.53-.24c.11.92.06,1-.68,1.41l-.59.3a47.17,47.17,0,0,0-5.75,3.36,13.7,13.7,0,0,0-2.76,2.45A8,8,0,0,0,73.07,86a4.69,4.69,0,0,0,4.73,4.82,7.43,7.43,0,0,0,5.87-2.69,13.34,13.34,0,0,0,3-6,37.87,37.87,0,0,0,.76-5.81,1,1,0,0,1,.58-.92,72.59,72.59,0,0,0,6.54-4.12c.14-.1.29-.17.47-.28l.61.8-1,.6A10.57,10.57,0,0,0,90.54,85.3,8.53,8.53,0,0,0,103,89.58,7.81,7.81,0,0,0,106,79.35a5.44,5.44,0,0,0-7.72-2.25,4.59,4.59,0,0,0-1.45,6.64,2.84,2.84,0,0,0,1.79,1.14,1.41,1.41,0,0,0,1.51-.56,1.25,1.25,0,0,0-.2-1.53c-.2-.26-.44-.5-.62-.77a1.86,1.86,0,0,1,1.41-2.94,2.53,2.53,0,0,1,2.65,1.66,5.26,5.26,0,0,1,.28,3.3A4.93,4.93,0,0,1,95.7,87a6.49,6.49,0,0,1-2-2.87,8.91,8.91,0,0,1-.38-4.74,7.5,7.5,0,0,1,3.47-5.31,3.86,3.86,0,0,1,2.69-.62,9.28,9.28,0,0,0,2.17,0A2.41,2.41,0,0,0,102.7,73a1.06,1.06,0,0,0,0-1.75,2.72,2.72,0,0,0-.81-.42,4.82,4.82,0,0,0-3,0,.91.91,0,0,1-1.09-.36c-.19-.27-.35-.55-.54-.86l1.48-1.21a15.56,15.56,0,0,0,3.43-3.72,6.07,6.07,0,0,0,.94-2.86,2.87,2.87,0,0,0-2.33-3.13,4.09,4.09,0,0,0-2.56.38,6.59,6.59,0,0,0-2.92,2.87A10.54,10.54,0,0,0,94,68.35a.79.79,0,0,1-.41.86Q90.76,71,88,72.8a2.48,2.48,0,0,1-.38.17c.06-.54.11-1,.17-1.44a2.42,2.42,0,0,1,.61-1.35,20,20,0,0,0,1.42-1.9,2.69,2.69,0,0,0,.48-1.49,1.14,1.14,0,0,0-1.62-1.19,2.9,2.9,0,0,0-1.37,1,7.83,7.83,0,0,0-1.36,2.76,1.47,1.47,0,0,1-.25.6,5.24,5.24,0,0,1-2.88,1.88,1.26,1.26,0,0,1-1.6-1c.14-.08.28-.18.43-.25a12.39,12.39,0,0,0,6.44-7.95A6,6,0,0,0,88.16,61c-.16-1.93-1.78-2.6-3.36-2.41a5.3,5.3,0,0,0-3.11,1.62,12.21,12.21,0,0,0-3.31,6.41C78.26,67.21,78.19,67.82,78.1,68.44Z"></path><path class="cls-1" d="M63.82,68.72l0-.88h.07c0,.29-.07.57-.11.86Z"></path><path class="cls-1" d="M96.7,49.12l.71.06v.06l-.7-.12Z"></path><path class="cls-1" d="M84.58,77.41c-.19,1-.34,1.89-.53,2.79a17.39,17.39,0,0,1-1.57,4.53,7.36,7.36,0,0,1-1.94,2.39,4.09,4.09,0,0,1-2.69.9,1.69,1.69,0,0,1-1.77-1.73,4.83,4.83,0,0,1,.92-3,12.5,12.5,0,0,1,2.67-2.81A27.17,27.17,0,0,1,84.1,77.6,4.29,4.29,0,0,1,84.58,77.41Z"></path><path class="cls-1" d="M81,68.09a7.1,7.1,0,0,1,.51-2.47,11.58,11.58,0,0,1,1.81-3.42,7.57,7.57,0,0,1,1-1,.83.83,0,0,1,1-.07.81.81,0,0,1,.32.88,5.07,5.07,0,0,1-.29,1,12.84,12.84,0,0,1-4,4.89A1.72,1.72,0,0,1,81,68.09Z"></path><path class="cls-1" d="M96.77,66.76a8.27,8.27,0,0,1,1.58-4.6,5.92,5.92,0,0,1,1.1-1,.65.65,0,0,1,.8,0,.66.66,0,0,1,.25.81,7.2,7.2,0,0,1-.51,1.21,16,16,0,0,1-3,3.48A.81.81,0,0,1,96.77,66.76Z"></path></g></svg> 