<?xml version="1.0" encoding="UTF-8"?> <svg xmlns="http://www.w3.org/2000/svg" id="Layer_1" data-name="Layer 1" viewBox="0 0 300 150"><defs><style>.cls-1{fill:#333;}</style></defs><path class="cls-1" d="M86.49,90.71c-2.19,0-3.67-.37-4.44-1.12s-1.16-2.15-1.16-4.22V80.68l5.3-1v6.78H96.52V68.12h5.26V85.37c0,2.07-.39,3.47-1.16,4.22s-2.26,1.12-4.45,1.12Z"></path><path class="cls-1" d="M107.3,90.71l12.77-22.59h5.06l13,22.59h-5.9l-4-7.37-13,2.4L114.5,87l-2,3.67Zm10.1-9h9.89l-4.87-9.19Z"></path><path class="cls-1" d="M145.35,90.71V68.12h19.34a5.83,5.83,0,0,1,3.88,1,4.21,4.21,0,0,1,1.2,3.34v2.74a3.46,3.46,0,0,1-1,2.59,4.9,4.9,0,0,1-2.88,1.21,4.81,4.81,0,0,1,3,1.39,4.18,4.18,0,0,1,1,3v2.9a3.72,3.72,0,0,1-1.65,3.33,9.19,9.19,0,0,1-5,1.09ZM162.49,71.8h-12v5.37h12a3.44,3.44,0,0,0,1.89-.37,1.4,1.4,0,0,0,.52-1.25V73.42a1.4,1.4,0,0,0-.52-1.24,3.43,3.43,0,0,0-1.89-.38m0,9.09h-12v5.76h12a3.29,3.29,0,0,0,2-.45,2,2,0,0,0,.53-1.59V82.9a2,2,0,0,0-.53-1.58,3.38,3.38,0,0,0-2-.43"></path><rect class="cls-1" x="180.09" y="68.12" width="5.27" height="22.59"></rect><polygon class="cls-1" points="196.88 90.71 196.88 68.12 202.15 68.12 202.15 86.46 219.11 86.46 219.11 90.71 196.88 90.71"></polygon><polygon class="cls-1" points="119.15 78.47 114.5 87.04 147.49 78.49 119.15 78.47"></polygon></svg> 