<?xml version="1.0" encoding="UTF-8"?> <svg xmlns="http://www.w3.org/2000/svg" id="Layer_1" data-name="Layer 1" viewBox="0 0 300 150"><defs><style>.cls-1{fill:#333;}</style></defs><path class="cls-1" d="M112.33,102v-.13h0l0-.1h-.11v0l-.34-.21-.16.11-.16.08h-1.22l0,0-.17.1L110,102l-.16,0-.13.08h-.51l-2,.85-1.56.45-1.2.75h-7l-2.35-.61.42.07.54.13.54.14H98l.22-.05.33-.18.34-.12h.22l.26-.11.22-.13.22-.28-.15-.17,0-.27-.24,0-.21-.18-.25-.24H97.82l-.17-.07,0,0-.3-.1h-.14l-.22-.1h-.22l-.24,0H96.2l-1.58-.4h-2.7l-.21-.21-.43-.24-.44-.14-.22-.08-.31-.17-4-2.78-.31-.3h.86v-.52l-.09-.24-.11-.14-.08-.24-.06-.1-.16-.08v-.19l0-.15-.11-.12-.13-.08L86,95.45l-.17-.11-.23-.08v-.09l0-.14V95l-.23-.33-.18-.22-.19-.25,2.87,2.48v0l.08.19.06.06.08.18.14.15.19.22.32.42.44.35.45.41.53.45.56.36h.8l.22.22h.19l.13.09.22.09h2.45v-.49l-1.27-1.22h-.15l-.22,0-1-.4-.31-.14-.22-.17-.82-.46h-.27l-.26-.08-.31-.14-.38-.12v0h0l.3.08h.52V95.26h-.14l-.11,0L90,95.16,90,95l-.17-.1,0-.12-.09-.18-.2-.25H89.3l-.07-.06-.14-.06L89,94.08l0,0-.24-.44h-.11l-.16-.08H88.4l-.17-.13-.12-.09-.23-.13-.41-.42h-.24l-.12,0-.21-.22-.23-.09-.42-.36h-.14l-.3-.1-.3-.16-.34-.21v-.34L82,86.76l0-.08.31.17V87l.11,0,.07.16v.09h.16l.12.12.5-.52v-.46l-.08-.23,0-.27L83,85.53l-.22-.36v-.25l-.1-.27-.08-.28-.22-.48v-.22l0-.22-.17-.37L82,82.67l-.14-.23-.27-.23-.22-.34-.13-.4-.35-.76L80,74.94v-1.2l.85-5.24.71-3.29V64.6l-.46.57-1.2,2.44-.63,3.68V70.23L79.2,70l-.14-.3-.13-.34,1.47-4.53.08-.14.09-.34.05-.3.26-.44,4.29-6.52,1.64-1.54V55h-.58l-5.07,5.7-1.63,3.65-1.12,4.51-.21.21-.14.15v.13l-.1.09v.24l-.06.08L78,67.61v-.44l.1-.44,0-.31.3-.78.14-.23.09-.27.1-.22v-.15l.09-.12v-.71h-.42l1.91-4,3.18-4.07,3.23-3.19,0-.06h.08l.1-.1.11-.08.13,0,0-.2.18-.13,0-.2h.24l.14-.09.13,0,.11-.09.25-.2v-.09l-.1-.1v-.11h-.11l-.1.09-.21.13h-.11l-.28.09-.26.2,0,0-.09.08L82.81,55v-.7l5.55-4,2.37-1.21L97.84,47l.69-.41H99v-.12l-.38,0-.07,0H97l-6.28,1.3-.41.41L88.46,49l-.58.36L86.8,50l-.54.38-.45.39-.9.68-.44.41-.41.35-.14.24-.22.17-.71.78-.3.42H82l-.15,0-.29.2,0,.08-.07,0-.46.48-.13.21-.49.63-1.5,1.55v.23l-.18.43-.09.18-.14.23-.07.2-.21.13-.15.26v1.19l-.06.06h0v.1l.34.09h0l-.27.23v.18l.09.09v.08h.07l.09.1h.31V60.6l.08-.07,0,0h.28l.73-1.27.76-.89.2-.14,0-.23.3-.4.1-.12-3.5,6.16,0,.11-.08.18-.1.13,0,.24-.1.14v.81H77l-.25.09-.22.13-.1.11-.09.07.48-2.38L77,63l0-.33.09-.25.23-.41v-.24l.08-.29.14-.28.1-.28.21-.2h-.27l0,.13-.33.29-.23.27-.33.41-.31.58-.37.76-1.48,4.63v-.13l.08-.21.08-.24.14-.44v-.33l.08-.21V64.42l.06,0,.16-.2.1-.13,0-.24.22-.45.09-.31.08-.21L78,57.93l3.55-4.47,3.23-3.23,0,0H85l.06-.12.16-.08.15-.14.13-.1.39-.34h.21l.37-.24.08-.09h.24l.48-.19.23-.13.31-.22H88l.24-.09h.31l.32,0,.28-.19.32-.14.76-.31.77-.46.22-.19.39-.25.43-.18.22,0,.33-.18h.22l.07-.06.1-.19.11-.07.12-.15.13-.34,7.16-.41L108,46.47l2.81.85.22.22.13.08.2.06h0l.21.08h.19l.21.09.35.31.09-.07-.15-.19-.19-.12,0,0h.07l-1.31-1.41-7.14-2.07-3.5-.36h0l-6.82,1.2,0-.07-.2,0L93,44.91l-.15-.09H92.6l-.28,0h-.49l-.52.23-.5.13-.72.22-.76.18-1.12.81h-.14l-.09.1-.13.1-.17,0-.16.11-.19.14-.35.39-.86.87-.13.21-.1.14,0,.15v.1l-.1.09v.11l-.33.19-.37.24-4.3,3.63-1.58,1.65-4.4,7.76-.19.37-.13.45v.24l-.08.25V64l-.74.74.51-2.37.13-.45.23-.54.23-.72.18-.74L75,59.8l.19-.23v-.09l0,0V59l.09-.09v0l.07-.07.1-.19h-.17l.31-.35-.08-.08-.54.54h.08l-.3.36-1.49,2.58v-.93l1.81-2.84,1.57-1.62.84-1.19,1.11-1.2.26-.23.15-.32L79.3,53l.13-.36L80.63,51l5.86-4.45h.39l.33,0,.23-.19.22-.08.32-.14.22-.14.26-.22,6.7-2h.43l.55,0,.62-.18.75-.12h1.71V42.8H95.55L89.25,44l-2.43,1.65v-.13l0-.2L87,45.2l.13-.21h.52l.18-.13v-.09l.08-.09v-.31h-.46l-2,.86-6.28,5.32-.36.36-.26.2-.37.23L77,52.6l-1.2,1.56-.22.23-.11.24-.31.63-.1.39-.33.46-.32.58-.26.63-.31.58-.32.63-.23.58-.42,1.22H72.7l-.34.14,0,0,0-.12.13-.13.18-.24v-.09l0-.05v-.39l.09-.1v0l.07-.07,0-.07h.2v-.66l-.87,1-1.62,2.82-1.05,4.07,0-.19.17-.59,0-.5.09-.49L70,64l.23-.76V61.78l.08-.29.14-.28.13-.4,3.55-6.54,3.54-4.47L82,45.33l2-1.2,1-.87h-.68l0,.09-.16,0-.28.23-.48.27-.27,0-.31.09L76.77,49,76,50.19l-.53.45-.44.62-.46.54-.44.54-.85,1.22-.36.62-.4.58-.36.67-.32.63-.3.67-.36.67-.32.73-.22.75-.32.77-.22.75-.22.13-.08.22-.1.14-.06.27L68.9,62l-.41,1.62,0,.12-.16.16-.15.47-.23.59-.09.31-.09.41-.12,1.44-.15,3.07-.08,1,.09.27v0l.06.13,0,0,0,.12,0,.33v.3l-.09.27v.72l-.1.36.41,8.3-.64-1.29-.41-7,.41-2v-.76l.09-.76v-.67l0-.67.09-.76.13-.71L67.62,66l.18-.67.13-.76.22-.76.65-2.28.32-.77.22-.76v-.14l.08-.23.1-.31,0-.31.22-.65.4-.76v-.24l.08-.11.13-.24.14-.27,0-.15.08-.2.14-.21.23-.31h-.52l-.38.46-1.61,3.64-2.41,7.39-.35,6.46.35,9.38.17,1,0,.55.41,1,.13.26.09.32.22.62.13.82.1.26.09.21,0,.37.24.42.26.35.26.54.23.23.22.32.51.52v.17h.1v.09h.18l0-.1.31-.21L70,90.7l-.27-1h0L69,87.4l-.48-1.92.73,2.61L72.78,95v.85L73.59,97l.09.22.09.18.32.36.27.46.4.39.08.21L75,99l.23.45.35.41.39.42v.37l.15.19.24.11.48.26.35.31.38.41h.19l.07,0,.27.17.18,0,.12.18.41.37h.8v-.62l-.06-.06-.17-.3-.48-.67L78.22,100l.33.36.31.22.66.61v.11l.09.24.19.22.06.1.08.1,2.33,2.41,2,1.22.18.14.14.08L85,106l.94.31,1.9.55.55-.55-.29-.06.16,0-.07-.2-.11-.13h-.23l-1.6-1.65-3.1-2.06-.3-.13-.32-.22-.22-.09-.24-.13-.22-.1-.29-.15-.22-.22-.24-.22-.36-.14-.4-.26-1.75-1.83.89.69v.18l.09,0v.09l.19.09,0,.14.2.1.13.08.14.15h.93v-.5l-.09-.19,0-.16.24.21.46.5,1.52,1.26.54.4.57.37.54.3.63.41.54.27.59.31.63.32.66.32.6.21,0,.1v.11l.12.11h.09l0,0,.19.1h.26l.07.1.09.27.1.22,0,.07.1.08,3.2,1.32,1.63.37h2.72l.45-.23h0l.12,0,.14-.1.27-.23-.08-.15h.17v-.12h-.1l-.14,0v-.17l-.12-.16h0l-.09-.09h-.15l-.21,0-.4-.28h-.23l-.13,0h-.23L93,104.68h-.35l-.49-.14h-.27l-.22-.12L91,104.2h-1.2l-.12-.12-.42-.28h-.13l-5.6-4.07-1-.86.27.1.31.31.37.15.17.07.1.15h.14l.13.08.18.1h.51V100l.06.13.12.06H85l0,.1h.15l.39-.48v-.22l0-.22-.17-.24-.14-.24-.87-1.14H84.3l-.15-.07-.22-.13-.14-.19-.18,0-.35-.4-2.83-2.87h-.16l-.2-.08-.13-.13-.19-.09-.08-.09-3.5-6.35.31.13.14.09.17.13.08.07v.07l.06.2H77v.09h.71V86.85l-.82-2.07-.34-1.72.72,1.74,3.56,6.87v.22l0,.31.16.3-1.42-1.71-.22-.22-.14-.21L79,90l-.13-.3-1-.93v.37l.24.61.22.39L81.51,95l1.61,1.71,6.69,4.85h.46l.4.08.35.13.44.18.18.14.21.13.05.09h.32l1.12.84.3.12-4.13-1.06-.36-.23-.31-.13-.22-.22-1.45-1h-.23l-.12,0-.26-.18-.06,0-.17-.1H85.4l.52.47,3.51,2,4.41,2,6.35.76h0l4.23-.75.2.11.24.19h0l.09.1h1.85l.45-.1.53-.17.59-.13,1.52-.45.31-.14.35-.27.45-.21.27,0,.28-.1.78-.88v0l.08-.18,0-.36ZM83,92.43l-.63-.37-.75-.83-1.27-2.37h.17l.6,1.23,1,1.3.63.77Zm-6.7-26.29-.06.12.06-.27Zm-5.5,3.77.2-.2.36-.82v-.27l.08-.25.21-.49-.07.25-.41,5.61.41,5.74h0l-1-5.74V71.26h-.45v2.48l.34,7.82-.11-.44-.24-.22-.17-.32-.2-.26v-.13h-.07l-.1-.24V72.23l.6-2.82.31.29v.22h.3Zm1.73,2.7.07.07.15.06.06.06V73l.17.23h.31v-.2l.14-.07h0l.15-.06V72.8l.08-.08v-.15l0-.13v-.51l.08-.24.17-.32v2.38l.31,7.12-.55-2.69,0-.45-.09-.54-.08-.69-.23-.67V74.09h-.46v2.52L74,84.18,73.82,84l-.09-.22-.21-.45,0-.3-.18-.33v-.43l0-.47-.18-.53-.14-.55-.23-.22-.18-.31-.23-.31-.13-.34V71.77l.25-1.16v2Zm-.63,13.66L71.7,86l0-.22-.08-.23v-.3l.51,1.54,2.71,6v.26l.1.24.13.14.13.23.07.3-3.3-6.37V86.38Zm2.39-.71,0-.22-.08-.22v-.19l.15.66Zm-3.39-2.14-.17-.32v-.46l.61,1.85-.07-.11-.1-.22-.21-.44Zm1.67-19.08V64l.28-.75Zm3.52,33-.14-.23-.17-.21-.14-.22-.17-.15-.22-.21L75,96.06l-.23-.15-.31-.23L73.27,94.4l-3.08-6.82-.08-.21,0-.27,0-.2.22.38.89,1.2.92,2.82,5.18,7.18Zm.26-5.55-.1-.22-.14-.14L76,91.21l-.32-.46-.38-.39v-.2l0-.15L75,89.78l0-.1-.1-.1-.11-.07h-.08l-.1-.06v-.12h-.2v.28l.76,1.65L77,94l-.48-.36v-.07l0-.15-.11-.12-.08,0,0-.17L76,93l-.34-.26-2.07-4.94.47.64h.42l.11-.18v-.08l.1-.08v-.57l-.12-.22-.08-.11v-1l4.68,8.71.14.32.23.24.26.31,0,.22.09.22,2.33,2.38-2.26-2-3.56-4.48Zm-.46-4.91-.22-.34-.16-.4.48.67v.11l.1.2,0,.07L76,87.09Zm.33-4.46-.13-.35-.22-.39-.1-.33-.13-.25V80.9l-.24-.65-.18-.39L74.84,73l.3-1.52,0,.12.09.3.06.29.18.4L76,73v.22h.32v.47l1.21,8.12,0,0-1-4,0-.44v-.56l-.17-.71-.14-.76V73.65H75.9l-.09.11-.08,0H75.6V74l0,.14v2.47l.8,6Zm1.62-17,0,.43-.14.47v-.67l.27-.55Zm5.76,27.76V93l1,.88ZM79,83l-.14-.41L78,81.87l-.28-5.58.12.08.08.1v.23h.53l.16-.31.08-.26.1-.17v-.14l.09-.19v-.22l.27-1.23.71,6.56v1l-.65-2.68v-.22l-.11-.34L79,78.19l-.12-.35v-1.2l-.11,0-.07.22-.07,0-.09.08h-.17v1.28L79.5,83.9l.39.86,4.31,6.89.47.48v.11l0,.23.19.23h0l-.64-.65h-.35l-4.65-8.15v-.29Zm9.19,13,.21.07h-.14ZM85.68,46.41l-1.13.76.27-.24ZM69,79.93l-.15.11,0,.07-1-6.39V72H68l.12-.06.15-.1v-.24l.08-.12.14-.27.13-.23L69,69.4l-.35,4.78Z"></path><path class="cls-1" d="M125,74.17l-.4-4.49-1.54-4.94-1.21-2.43-.5-.52v.55l.19.24.13.22.08.08v.26l.22.65.22.45.14.32.18.13,0,.09.47,2.39-.14-.35-.14-.31-.08-.31V66l-.45-.37v-.12l0-.17-.12-.1h-.21l-3.93-7.3-.86-.87-4-3.18-.68-.32-.22-.08-.39-.08.47.58.4.31.27.27.19.1.15.1h.21L116.64,58l.76.8.67.75.52.68.45.62,2.33,4.47.1.09.08.13,0,.1.09.09.08.13v1.06l.2.93L121,65.24l-1.12-2v-.12l-.11-.14-.12-.1h-.44l.57.41v.83l.14.26.21.13.09.26.13.23.08.12.09.21v.28l-.68-.75-4-6.56h-.42l-4.39-3.6-1.3-.44v.54h.48L111.87,56l2.45,2.29h0l-5.49-4h-.25l-.16,0-.21-.16-.09-.1-.17,0-4.3-.86h-2.44v.52h1.26l.23,0H103l.44.09.17.08h.15l.1,0,.09.19,2.74.69h-1.09l-4.33-.75h0l-.78.13-.58.18h-.31l-.21,0h-.54l-4.72,1.3-.36.13-.32.27-.31.14-.11.14h-.08l0,.1.37.1h.84l.55-.23.45-.14.33-.27.29-.13,5.5-.9,4.65.46.44.43.42.14L107,56l.23.12-4-.65H102v.44h2l3.55,1.2,2.27,1.53h-.31v.25l0,.15.1.12.12.06h.13l2.79,2.8,2,2.39,1.56,3.28.17.21,0,.09.09.09v.14l.09.09v.6l0-.17-.23-.44-.36-.63-.11,0v.85l.35,1.62.06.56-.7-3-1.22-2.44L112,62.38l-.41-.42-.28-.23-.19-.09-.14,0h-.22l-.52-.57v.69h.44V62l.4.24.16.08.05.1.09,0,.08.16,0,0v.16l3.15,4.48v.83L115.84,71v.83l-.17.36-.13.33-.05.17,0-.66-.07-.81v-.36l-.08-.32,0-.22-.18-.25-.13-.53-.23-.44-.17-.41-.26-.26V68.1h-.43v.17l.06.13.09,0h.08l.08.08h0V69l.1.54.12.54.17.44.35,3.62v.75L114.63,79l-.38.43-1.18,2.44v1.24h.4l-1.92,3.18-.22.22,0,0h-.18l-.11.1,0,.07h-.21l-.43.34,0,0h-.07l-.35.1-2,2v.52h.59l-.9.31h-.17l-.2.07v.1l-.09.1v.12l-.33.17-.32.14-.12.08H106l-.34.23-.22.25-.05.08-.08.13-.11.11v.09l.44.54h.87l.18-.28.23,0,.05-.08H107l.23-.1h.41l.52-.28.49-.32.35-.18h.12l.12-.06.33-.76.1-.28v-.17L112,87.88l-.08.08-.21.35-.09.1-.1.17-.1,0-.11.1,0,.07h-.17l-.16.16-.19.24v.1l0,.12v.19h-.13l-.17.11-.1.1v.31h1l-.47.24-.41.42-.35.35-.41.32-.34.32L109,92l-.31.22-.22.08-.13,0-.3.08-.33.24-.34.08-.21,0h-1.21l-.24.11-.32.09-.21.08-.2.06,0,.08h-.81l-.33.1-.36,0-.22.11,0,.09-.17,0,0,.08h-1l-.22.21v.06l0,.07v.15l.39.39h2.13l-.93.29H98.18L98,94.7l-.14-.13-.41-.18-.23-.14L97,94.16l-.1-.09h-.06l-.21,0-.72-.31-.28-.1h-.54l-.39-.08,0,0-.19-.1-.12-.08-.1-.15H93l1,1.52.24.2h.08l0,0h.28l.13.08.21.08.33.23h.3l.05,0h1.3l.22.18.22.13.18.09h.28l.15-.14.2-.16h.1l0-.1h.22l1.7.31.63.09h.45l3.56-.33-.83.28-.74.44h-.23l-.14.09-.33.15-.12.24.45.39h2l1.56-.36.4-.09.26-.08.27,0,.16-.12.24-.22.08-.09L108,96l.11,0h.11l.09-.08h.13l.41-.41.11,0h.18v-.12l.1-.14V95l5.37-3.72v0l-.15.21-.16.16v.16l-.09,0v.36h.7l.15-.11.21-.17.1-.05.14-.19.09,0-.55.76-.3.21-.55.13H114l-3.19,2.07-1.22,1.3v.23l.17.17h.08l0,.09h1l.55-.22.43-.27.36-.14.24-.22.38-.13.28-.27.32-.22.09-.14.13-.09,1.53-1.67.1-.1v0l.08-.07,0-.09.08-.07h.14l.86-1.27-.58,1.21-.9.88.52.47.46-.44.13-.13.22-.19.07,0h.13l.2-.09,1.21-.76,0,0,.15-.36.16-.17.06-.15.18-.3.23-.23.81-1.21.18-.23.16-.25v-.07l.09-.09v-1l2.25-4.37v1.06l-.13.23-.09.19-.1.06v.2l-.06.2h.9l.32-.56.33-.47.12-.35v-.22l.21-.26.19-.28v-.09l.22-.62.1-.45,0-.14v-.22l.09-.39.13-.35.18-.33v-.14l0-.17V78.64Zm-9.5-1.07,0,.09.08.23.14.26.08.3v1.66l.05.2.18.24.17.28.25-.23-.29,3.39v.12l0,.22-.11.15-.22.24h0l-.16.22-.09.12.34-3.2v-.76l-.1,0-.18.37-.14.31-.09.32v.22l-.38,1.45V79l.45-4.88V73.1Zm-6.22,16.47.11-.12.18-.13h0l.15-.07-.21.32Zm14.54-15.69V73.6l-.1-.45-.09-.19v-.18l.09-.23.11-.09V72.4l0-.28v-.57l.26,1.4v1.21l-.39,4.89,0,.21-.08.21-.09.14,0,.07,0,0,.41-5.54Zm-.52.3-.53,2.89.29-2.89-.22-2.43,0,0v.11l.09,0v.19l.1.28v.12l0,.17.11.09.07.08,0,.11Zm-3.11-5.79.11.15,0,.13.1.18.08.08v.65l-1-3.59-.82-2-.51-.59V64l.09.23v.12l.15.31.1,0,.07.07.13.43.14.41.08.21v.23l.09.36.22,1.3-.11-.15-.32-.76-.13-.21v-.23l-2.83-4.75.31.14.25.21.18.17v.23l.45.28.12.11h0l.21.08.41.36h.43v-.07l1.5,2.1v1.19l0,.4.32.8v.39Zm1.9,4.14v5.69l-.35.84-.4,1.65-.14.4-.13.27-.09.17,0,.15-.08.23h0l.54-2.41.41-5.34v-1.9l-.12-.12h-.08l0-.09h-.27v2.1l-.62,4h0l.35-4-.33-3.78.11.17.08.08V71l.45.4v.26h.31l.2-.25ZM108,56.41l2.74,1.17.08-.11h0l.1.1h.13l.83.74,1.3,1.2.22.21.14.22.13.23.17.26.27.38-.08,0L114,60.7h0l-.2-.11-.18-.18-.15-.06h-.3L108,56.61Zm10.26,25.5h0v0Zm.87-.42.76-5.23V75h-.12v.12l-.07.16-.11,0h-.22v2.06l-.34,1.39h0l-.08-.2-.27-.43.46-4V72.33l.26.62v.8h.48l.39-.39v-.14l.07.19.13.26.08.3v.21l-.41,4v.22l0,.2-.18.16-.15.26v.36l-.08.4-.23.34-.1.09v1.25l-.26.59ZM116.3,64l-.14-.36-.18-.31v0l.25.34.41.68Zm.41.4,1.5,2.47.08.34v.22l.1.23h.08l.08,0h.06V69.3l-.68-2.48-.19-.42-.23-.31-.24-.27-.21-.21v-.44h-.36v-.78Zm1.23,9.37v-.18l0-.08v0h0l.09,0h.17V72l.28,1.68v.45l-.41,4.43v.2L118,79h-.17v.4l-.08.38-.13.22-.08.13,0,0,.39-3.91v-1.3h-.1l-.18.63-.13.55v.21l-.09.22V77l-.54,2,.73-4.79v-.42h.35ZM114.7,84.44h.23l-1.06,1.85h-.2l.13-.15.35-.54.17-.22.05-.24.29-.73Zm.93-23.33.16.34.08,0v.14l-.29-.49-.36-.4-.22-.31-.09-.14-.09-.09,0-.12v-.2l-3.16-2.42-.21-.13-.05-.09-.2-.09,0,0,.06-.07L110,55.91l-.19-.1-.22-.17,0,0-.18-.09h-.23l-.21-.27.18.12.33.09.13,0h.09l.21.1,4,3.17.76.84.35.83.41.38Zm-.18,3.28v.28l.1.06.11.09h.22l.36.46h.4l0,.06.17.14v.07l.13.23v.42l.09.2v.14l.1.1v.16h.08l.16.09h0l.38,2.25,0-.07-.11-.21V68.8l-.1-.19v-.17h-.09l-.17-.09v0h-.1v-.06l-.09-.09v-.3l-.1-.24,0-.05v-.2l-.2,0-2-3.58Zm-.23,17v-.06l.07-.13h.06v0h.1l-.19.3v0l-2.94,4.82h0v.44l-.29.19-.27.32-.23.2.12-.21.41-.47v-.44l3.08-4.85Zm.12,7.86.08-.3.1-.15v-.14l0-.08,0-.09L116,88l2.64-4.69v.59l.15.2.1.06h.21v0h.1V84l.1,0,.13-.12-1.22,3.42-.74.35-.24.18-.14.23-.14.1L118.3,86l.18-.13.15-.26.09-.22v-.81l-.28.37-.15.23v.19l-.21.56-.43.62-2.32,2.75Zm1.51-1.07,0,.15-.1.12-.08.17-.06.07v.16l-.57.6Zm3.31-4v.28l-1,1.7Zm-6.77,5.1.4-.57.12-.1.1-.09,2.33-2.86h0V84.38h-.12v.21l0,0-.17.08h-.15l-.42.88-.57.74-.54.59-.06.08v-.61l2.64-4.29v.22l-.08.31,0,.12v.09l-.16.11-.06.11v.89h.93v-.19l.08-.2.14-.17.11-.16,0,.12v.31l-2.36,4-.2.17-.21.11h-.12l0,.1h-.22l-.19.24-.14.15v.17l-.11.08v.19h-.08l-.24.06V89l0,.08v.14l-.71.5Zm-4.55,4.87.35-.19.62-.45.27-.12.28-.25.22-.26.13-.14.08-.2h.11l.12-.08.12-.06V92l-.4.4h-.39l-.59.37-.53.26-.22,0-.21.08h-.41l-1.16.37,0,0v-.19l.62-.21.32-.1.23-.1,4.41-3-.19.13-.19.14,0,.24-.11.08v.15l-.08.17-.13.21-.21.12-.22.09h-.22v.17l0,.15-.05,0H111v.27l.1,0V92l.12.13h0v.1h.7l.23-.28.12,0,.18-.08h0l.21-.1.23-.13.13-.09.19,0,0-.08h.09l-.7.75-3.58,2.34-.23.22-.12.15h-.18l0,0h-1l-1.17.45h-.66Zm14-12,0,.12-.23.67-.08.2ZM120.27,86l.84-1.62.09-.1.14-.15.11-.19v-.14l0-.08v0l.09-.17.08-.07.06-.15.05-.09v.44l-2.37,4.81L116.84,91ZM113,60.79v.38l.23.25.16.14.12.11-.12-.07-.1-.05h-.22l-2.69-2.44-.24-.23-.23-.15h0l0-.09Z"></path><path class="cls-1" d="M141.73,71.27h-7.18v7.24h7.18V76.05l2.67.55V78a3.06,3.06,0,0,1-.58,2.14,3.31,3.31,0,0,1-2.25.57h-6.83a3.27,3.27,0,0,1-2.26-.57A3,3,0,0,1,131.9,78v-6a3,3,0,0,1,.58-2.13,3.31,3.31,0,0,1,2.26-.57h6.83a3.31,3.31,0,0,1,2.25.57,3,3,0,0,1,.58,2.13V73l-2.67.42Z"></path><path class="cls-1" d="M148.45,80.66V69.21h9.79a3,3,0,0,1,2,.53,2.1,2.1,0,0,1,.61,1.69v2.69a2.12,2.12,0,0,1-.61,1.69,3,3,0,0,1-2,.52h-1.5L162,80.65h-3.82l-4.62-4.3h-2.53v4.31Zm8.6-9.46h-6v3.18h6a1.65,1.65,0,0,0,.95-.2.85.85,0,0,0,.25-.71V72.09a.89.89,0,0,0-.25-.71A1.85,1.85,0,0,0,157.05,71.2Z"></path><path class="cls-1" d="M165.36,80.66V69.21h11.72v2H168v2.55h5.29v2H168v2.84h9.16v2.15Z"></path><path class="cls-1" d="M180.82,80.66V69.21h7.36A7.13,7.13,0,0,1,193,70.68a5.23,5.23,0,0,1,1.7,4.18,6.24,6.24,0,0,1-.66,2.89,5,5,0,0,1-1.86,2,5.16,5.16,0,0,1-1.86.68,15.62,15.62,0,0,1-2.84.21Zm2.67-2.15h3.44a6.68,6.68,0,0,0,3.89-.85A3.33,3.33,0,0,0,192,74.82a3.49,3.49,0,0,0-.95-2.65,3.92,3.92,0,0,0-2.82-.9h-4.71Z"></path><path class="cls-1" d="M198.19,80.66V69.21h2.67V80.66Z"></path><path class="cls-1" d="M216,71.27h-8.31v7.24H216V76h-4.35V74h6.94V78a3,3,0,0,1-.59,2.14,3.31,3.31,0,0,1-2.25.57h-7.9a3.23,3.23,0,0,1-2.25-.57A3,3,0,0,1,205,78v-6a3,3,0,0,1,.58-2.13,3.28,3.28,0,0,1,2.25-.57h7.9a3.34,3.34,0,0,1,2.24.56,2.73,2.73,0,0,1,.6,2v.25l-2.59.47Z"></path><path class="cls-1" d="M225.65,80.66V75.54l-5.94-6.33h3.56l3.93,4.4,3.94-4.4h3.13l-5.92,6.26v5.18h-2.7Z"></path></svg> 