<?xml version="1.0" encoding="UTF-8"?> <svg xmlns="http://www.w3.org/2000/svg" id="Layer_1" data-name="Layer 1" viewBox="0 0 300 150"><defs><style>.cls-1{fill:#333;}</style></defs><path class="cls-1" d="M102.17,84.08a6.91,6.91,0,0,0,2.69-.54,9.26,9.26,0,0,1,2.09-.85c.78,0,1.24.89,1.24,1.49s-.39,1-1.1,1.42a9.77,9.77,0,0,1-5,1.24c-5,0-9.36-3.15-9.36-9.36s4.5-9.22,9.36-9.22A10.05,10.05,0,0,1,107,69.43c.78.46,1.17.93,1.17,1.46s-.46,1.56-1.24,1.56c-.53,0-1-.43-2.16-.89A7.76,7.76,0,0,0,102,71c-3,0-6.06,1.85-6.06,6.42S99.05,84.08,102.17,84.08Z"></path><path class="cls-1" d="M120.18,85a2,2,0,0,1-.21,1.17,1.58,1.58,0,0,1-1.31.53,1.6,1.6,0,0,1-1.35-.53A2,2,0,0,1,117.1,85V71.35h-4.54a2,2,0,0,1-1.14-.25,1.58,1.58,0,0,1,0-2.23,1.89,1.89,0,0,1,1.14-.25h12.12a1.89,1.89,0,0,1,1.14.25,1.28,1.28,0,0,1,.46,1.1,1.32,1.32,0,0,1-.46,1.13,2,2,0,0,1-1.14.25h-4.5Z"></path><path class="cls-1" d="M133.58,85a2,2,0,0,1-.21,1.17,1.56,1.56,0,0,1-1.31.53,1.61,1.61,0,0,1-1.35-.53A2,2,0,0,1,130.5,85V70.14a2,2,0,0,1,.21-1.17,1.58,1.58,0,0,1,1.31-.53,1.6,1.6,0,0,1,1.35.53,2,2,0,0,1,.21,1.17Z"></path><path class="cls-1" d="M151.53,70c.35-.89.67-1.53,1.95-1.53,1,0,1.45.39,1.45,1a2.63,2.63,0,0,1-.25,1l-6.35,14.71c-.46,1-.78,1.67-1.87,1.67s-1.53-.64-2-1.71l-6.1-14.64a2.58,2.58,0,0,1-.25-1c0-.63.5-1,1.49-1,1.2,0,1.56.53,1.95,1.53l4.93,12.51Z"></path><path class="cls-1" d="M162.48,75.64h4.22a1.89,1.89,0,0,1,1.14.25A1.22,1.22,0,0,1,168.3,77a1.25,1.25,0,0,1-.46,1.1,2,2,0,0,1-1.14.25h-4.22v5.53h6a1.85,1.85,0,0,1,1.13.25,1.51,1.51,0,0,1,0,2.19,1.85,1.85,0,0,1-1.13.25H161c-1.1,0-1.45-.42-1.45-1.45v-15c0-1.07.42-1.49,1.45-1.49h6.77a1.85,1.85,0,0,1,1.13.25,1.51,1.51,0,0,1,0,2.19,1.85,1.85,0,0,1-1.13.25h-5.25Z"></path><path class="cls-1" d="M186,63c7.23,0,11.77,5,11.77,12S193.15,87,185.92,87s-11.77-5-11.77-12S178.79,63,186,63Zm0,21.41c5.24,0,8.58-3.43,8.58-9.35s-3.41-9.43-8.69-9.43S177.34,69,177.34,75,180.74,84.39,186,84.39Z"></path><path class="cls-1" d="M207.45,80.11a8.28,8.28,0,0,1-1.28-.08V85a2,2,0,0,1-.21,1.17,1.9,1.9,0,0,1-2.63,0,2,2,0,0,1-.21-1.17V70.57c0-.78,0-1.42,1.14-1.77a10.77,10.77,0,0,1,3.15-.39,9.92,9.92,0,0,1,5.32,1.27,5,5,0,0,1,2.41,4.5C215.14,78.37,211.38,80.11,207.45,80.11Zm-1.28-2.56a7.77,7.77,0,0,0,1.13.07c2.2,0,4.68-.71,4.68-3.33,0-2.23-1.84-3.3-4.39-3.3a8.72,8.72,0,0,0-1.42.11Z"></path><path class="cls-1" d="M226.81,76.84a5.45,5.45,0,0,1,3.05,4.75c0,3.37-2.91,5.22-6.14,5.22a8.59,8.59,0,0,1-3.93-.93c-.78-.42-1.42-.95-1.42-1.66a1.46,1.46,0,0,1,1.24-1.46c1,0,1.84,1.46,4,1.46,1.77,0,3.12-.92,3.12-2.48s-1.17-2.27-2.44-2.95c-2-1-5.53-2.3-5.53-5.7,0-2.88,2.48-4.83,5.84-4.83,2.49,0,4.83,1.1,4.83,2.31A1.46,1.46,0,0,1,228.19,72c-.85,0-1.77-1.1-3.58-1.1-1.63,0-2.73.85-2.73,2C221.88,74.86,224.79,75.64,226.81,76.84Z"></path><path class="cls-1" d="M89.71,84.84,82.09,65.1c-.43-1.06-.78-1.77-1.85-1.77s-1.48.74-1.91,1.81L70.39,84.89a2.82,2.82,0,0,0-.25,1c0,.57.39,1,1.39,1,1.2,0,1.48-.6,1.84-1.5L80.1,67.94,86.63,85.3c.4,1,.78,1.5,1.88,1.5s1.46-.39,1.46-1A2.76,2.76,0,0,0,89.71,84.84Z"></path></svg> 