<?xml version="1.0" encoding="UTF-8"?> <svg xmlns="http://www.w3.org/2000/svg" id="Layer_1" data-name="Layer 1" viewBox="0 0 300 150"><defs><style>.cls-1,.cls-2{fill:#333;}.cls-2{fill-rule:evenodd;}.cls-3{fill:#fff;}</style></defs><path class="cls-1" d="M110.82,103.22c-5.17-.2-6.7-5.62-4.71-20,.47-3.35.87-7.82-1-8-1.19-.08-2.88,1.82-5.34,6A49.63,49.63,0,0,0,94,97a24.57,24.57,0,0,1-.9,3.4c-.48,1-2.42,1.79-4.39,1.65a3.4,3.4,0,0,1-1.93-.6c-.34-2.76,3.24-25,4.55-27.41a12,12,0,0,1,5.45-4.54c.57,4.42-1.85,17.3-1.85,17.3s5.29-11,9.49-16c1.76-2.09,3.67-3.2,5.13-3.1s2.64,1.55,3.19,4.27c.52,2.52,0,7.14-.57,11.6-.9,7.48-1.83,13.59,1.72,14.49,2.12.54,4.4-1.24,5.59-2.64.72-.85.89-.24,1.19-.45a19.94,19.94,0,0,1-2.75,4.29C116.31,101.14,113.74,103.33,110.82,103.22Z"></path><path class="cls-1" d="M134.23,75.8a.9.9,0,0,0-.68-.31,5.6,5.6,0,0,0-1.73.31,4.68,4.68,0,0,0-1.1.26c-1.13.69-1.09,6.08-1.09,6.08-.08,2-3.74,7.5-6.54,7.79-.49,0-1-.25-1.45-1.15-1.13-2.53-.73-9.33,2.14-13.18A7,7,0,0,1,128.26,73a11.61,11.61,0,0,1,6.11.77c-.13,0-.11-3-4.53-3.27a15.19,15.19,0,0,0-13.12,8.2c-2,4.29-2.17,8.69-.41,11.77a5.25,5.25,0,0,0,4.28,3c6.24.09,8.49-6.77,8.49-6.77s.16,5.33,4.72,6.8a5.59,5.59,0,0,0,2.66.18c1.07-.24,2.58-1.1,1.27-1.44-.5-.14-.55.17-1.38-.09a2.71,2.71,0,0,1-1.1-1c-1.73-2.41-.94-10-.73-12S134.5,76.14,134.23,75.8Zm21.19,14.29c5.48.42,8.26-7.15,8.29-7.22l1.36-3.4-.13,3.63c0,.27-.15,6.64,6,7.31,2.34.26,3.25-.42,3.28-.59s-.25-.34-1.09-.49c-4.29-.78-3.14-9.84-2.38-15.83.19-1.45.34-2.69.36-3.38,0-1-2-2.51-3.89-2.64s-1.94,1.11-2,1.51c-1.29,10.93-3.91,16.59-7.79,16.88a1.9,1.9,0,0,1-1.72-.77c-1.08-1.6-1.78-3.24-.6-14.36A.86.86,0,0,0,155,70a1.59,1.59,0,0,0-1.1-.39,8.19,8.19,0,0,0-4.24,1.07c-.54.5-1.45,4.15-1.26,8.65C148.57,86.33,150.46,89.71,155.42,90.09Zm25.72-8c.15-2.72.78-12.57,7.37-14.33a4.34,4.34,0,0,0,3.15-2.82C184.31,63,181,70.29,181,70.29s-.09-2-2.48-4.81a5,5,0,0,0-3.32-1.87c-2.37-.16-4.78,2.15-4.67,2.16a5,5,0,0,1,2.75.39c2.29,1.14,2.06,4.92,1.29,13.41-.47,6.93,1.06,7.92,2.26,7.93C179.6,87.51,180.9,86.28,181.14,82.07Zm28.93-5.3a2.3,2.3,0,0,0,0-1.44,8.23,8.23,0,0,0-1.09,1.4c-1.32,1.91-3.31,4.79-7,5.6a5,5,0,0,1-1.46.13,3.36,3.36,0,0,1-2.43-1.23c-1.67-2-1.14-6.56-1.14-6.56a12,12,0,0,0,9.95-5.55c1.89-2.74,2.6-5.64,1.65-7.7A3.76,3.76,0,0,0,205,59.28c-4.12.18-9,2-11.6,6.28-2.95,4.79-4.36,10.45-2.4,15.37,2.23,5.58,6.64,5.29,7.28,5.33C205,86.72,209.36,80.2,210.07,76.77Zm-6.25-8.44a11.78,11.78,0,0,1-6,3.37.54.54,0,0,1-.69-.42c-.06-.28-.57-1.9,1.94-5.26s5.08-3.75,5.89-3.69C206.32,62.44,207.05,65.22,203.82,68.33Z"></path><path class="cls-1" d="M101.49,62.51c-1.47,1.59-3.9,2.34-4.79.82-.25-.4.15,1.51-1.17,1.29s-.93-1.76-.94-2.31a18.18,18.18,0,0,1,1.48-5.26,8.76,8.76,0,0,1,2.85-3.83c1.58-1.15,3.3-.5,3.29,1.31,0,1.42-.39,2-2.36,3.22C102.89,57.11,103.05,60.75,101.49,62.51Zm-4.36-1.58c-.28,1.45.15,1.71.61,1.86a3,3,0,0,0,2.91-1.41c.84-1.55.15-3-.8-3a3,3,0,0,0-2.25,1A3.49,3.49,0,0,0,97.13,60.93Zm.88-3c2.49-.65,4-3.55,2.65-3.71C99.75,53.88,97.51,58,98,57.9Z"></path><path class="cls-1" d="M116.1,59.26c-.39.17-1.4,1.36-2.66,1.05-.89-.22-.79-2.1,0-3.57s2.23-1.06,2.38-1.29c.28-.44-1.25-1.52-3.15-.09a4.79,4.79,0,0,0-2,5.06,1.44,1.44,0,0,1-.92.47c-.71,0-.78-.87-.45-2.63s-.75-1-1.26-.91-.59,1.47-.65,1.95-1.21,2.09-1.94,2.22c-.58.08-.44-2.44.66-3.82.7-.86,2-1.15,2.22-1.74s-3.25.08-4.71,2.67-.38,4.58,1.22,4.28a3.69,3.69,0,0,0,2.35-1.74,1.44,1.44,0,0,0,2.3,1.1A4.81,4.81,0,0,0,111,61.09a1.94,1.94,0,0,0,1.16.8,4,4,0,0,0,3.59-1.52C116.43,59.6,116.54,59.06,116.1,59.26Z"></path><path class="cls-1" d="M119,57.32a3,3,0,0,0,3.06,1.88c1.55-.27,2.93-2,3.06-2,.6,0-1.2,3.62-3.26,3.66s-3.24-2.32-3.24-2.32c-.16.85-.34,1.6-.42,2-.15.83-1.53,1.19-1.75,0-.18-1,.93-7.71,1.47-9.33a3.65,3.65,0,0,1,1-1.75c.78-.79,1.79-.72,1.24.25-.69,1.2-1.21,6.17-1.23,6.13.23-.43,2.13-2.05,3.21-2.05.33,0,.34,1.41-.83,1.57a3.91,3.91,0,0,0-2.39,2.09"></path><path class="cls-1" d="M130.91,48.63c-.18,1-.35,2.14-.35,2.14s2.09-.52,2,0-2.16,1.2-2.16,1.2a53.92,53.92,0,0,1-1.21,5.67c-.64,2-1.35,1.77-1.87,1.65s.93-6.72.93-6.72-1.75.64-1.76-.11,2-1.25,2-1.25.12-.47.17-.69a13,13,0,0,1,.59-2.54C129.48,47.2,131.06,47.68,130.91,48.63Z"></path><path class="cls-1" d="M133.52,58.57c-4.21.75-3.38-5.63.16-6.41,2.15-.45,1.74-1,2.24-.77C139,52.8,136.86,58,133.52,58.57Zm-.08-.75c1.05-.3,2.45-3.9,1.67-4.59-.57-.56-1-.51-1.53,0S132.39,58.11,133.44,57.82Z"></path><path class="cls-1" d="M100.13,114.76c0,.16,0,.32,0,.48a1.25,1.25,0,0,1-.13.54,1,1,0,0,1-.45.28,1.8,1.8,0,0,1-.56.11,2.49,2.49,0,0,1-.55,0l-.41-.09a4.52,4.52,0,0,1-.17-1.34,9.08,9.08,0,0,1,.12-1.46c.07-.49.17-1,.29-1.47s.25-1,.39-1.4.54-1.82.67-2.21a7.28,7.28,0,0,1,.88-2.13c.51,0,.65-.3,1.17-.32.25,0-.06.82.33.6a4,4,0,0,1,1.25-.48,3.13,3.13,0,0,1,1.36,0c.46.11.76.3.84.6a4.09,4.09,0,0,1-1,3,9.81,9.81,0,0,1-2.58,2.27,4.28,4.28,0,0,1-1.29.62A8.74,8.74,0,0,0,100.13,114.76Zm1.37-7.18a2.29,2.29,0,0,0-.5,1.1c-.1.34-.45,1.94-.48,2.14a6.82,6.82,0,0,0,2.72-1.93,4.66,4.66,0,0,0,.59-1.43C103.9,106.22,102,107,101.5,107.58Z"></path><path class="cls-1" d="M135.25,109.07c-1.25,1.35-3.31,2-4.07.7-.22-.34.13,1.28-1,1.1s-.78-1.5-.8-2a15.59,15.59,0,0,1,1.26-4.47,7.44,7.44,0,0,1,2.42-3.25c1.35-1,2.8-.43,2.8,1.11,0,1.21-.33,1.67-2,2.74C136.44,104.48,136.57,107.58,135.25,109.07Zm-3.7-1.34c-.24,1.23.12,1.45.51,1.58a2.52,2.52,0,0,0,2.48-1.2c.7-1.32.12-2.57-.69-2.51a2.6,2.6,0,0,0-1.9.88A2.84,2.84,0,0,0,131.55,107.73Zm.74-2.58c2.12-.55,3.4-3,2.25-3.14C133.77,101.74,131.86,105.28,132.29,105.15Z"></path><path class="cls-1" d="M148.85,102.8a3.59,3.59,0,0,1,.63-.73,4.9,4.9,0,0,1,.79-.56,5.59,5.59,0,0,1,.87-.38,5.18,5.18,0,0,1,.86-.22,1.08,1.08,0,0,1,.71.15.89.89,0,0,1,.35.56,1.76,1.76,0,0,1-.07.83,3.36,3.36,0,0,1-.56,1,4.59,4.59,0,0,1-.91.91,5.74,5.74,0,0,1-.84.5,2.85,2.85,0,0,1-.84.25,2.37,2.37,0,0,0,0,.88,1.15,1.15,0,0,0,.09.28.66.66,0,0,0,.17.23.67.67,0,0,0,.3.11,1.19,1.19,0,0,0,.43-.06,2.35,2.35,0,0,0,.89-.5,5.36,5.36,0,0,0,.62-.66c.17-.21.31-.4.43-.56s.2-.22.29-.2.13.14.11.32a2,2,0,0,1-.23.67,5,5,0,0,1-.53.83,4,4,0,0,1-.81.78,3.72,3.72,0,0,1-1.05.54,2.79,2.79,0,0,1-1.23.09,1.52,1.52,0,0,1-.86-.38,1.71,1.71,0,0,1-.47-.73,2.93,2.93,0,0,1-.15-1,5.68,5.68,0,0,1,.13-1.07,6.08,6.08,0,0,1,.36-1A5.48,5.48,0,0,1,148.85,102.8Zm1.12,1.3a2.93,2.93,0,0,0,.44-.18,4.16,4.16,0,0,0,.47-.27,5.17,5.17,0,0,0,.56-.47,1.82,1.82,0,0,0,.42-.51,1.6,1.6,0,0,0,.16-.39.57.57,0,0,0,0-.32,1,1,0,0,0-.43.07,2.18,2.18,0,0,0-.48.29,3.35,3.35,0,0,0-.58.6,4.17,4.17,0,0,0-.36.53c-.07.16-.13.28-.16.37A.59.59,0,0,0,150,104.1Z"></path><path class="cls-1" d="M157.87,101.09c.14-.62.44-2.1.52-2.56a7.6,7.6,0,0,0,.15-1,1.24,1.24,0,0,1,.26-.66,4,4,0,0,1,.52-.57,3.62,3.62,0,0,1,.57-.39,1.36,1.36,0,0,1,.39-.17c.07,0,.09.16.05.53s-.1.84-.2,1.42-.21,1.25-.34,2-.24,1.48-.34,2.22a11.1,11.1,0,0,0-.11,1.66,3.59,3.59,0,0,0,.15,1,1,1,0,0,0,.31.46.75.75,0,0,0,.36.13,1.78,1.78,0,0,0,.31,0,.14.14,0,0,1,.16.07c0,.07,0,.18-.14.33a1.91,1.91,0,0,1-.5.4,2,2,0,0,1-.71.25,1.46,1.46,0,0,1-.82-.09.91.91,0,0,1-.49-.43,1.94,1.94,0,0,1-.17-.6,2.6,2.6,0,0,1,0-.73,6.24,6.24,0,0,1-.89,1.08c-.14.14-.29.27-.46.41a4.35,4.35,0,0,1-.55.36,3.41,3.41,0,0,1-.61.29,2.65,2.65,0,0,1-.69.15.87.87,0,0,1-.65-.19,1.48,1.48,0,0,1-.42-.6,2.67,2.67,0,0,1-.18-.86,4.84,4.84,0,0,1,.08-1,4.22,4.22,0,0,1,.34-1c.16-.32,1.48-2.35,3-2.21A2.86,2.86,0,0,1,157.87,101.09Zm-2.56,2.19a2.7,2.7,0,0,0-.26.72,3.72,3.72,0,0,0-.11.67,1.58,1.58,0,0,0,0,.5c0,.13.07.19.14.19a.58.58,0,0,0,.43-.15,3.9,3.9,0,0,0,.68-.66,5.34,5.34,0,0,0,.43-.59,6.78,6.78,0,0,0,.39-.67,8.39,8.39,0,0,0,.41-1c0-.16.07-.24,0-.3a.75.75,0,0,0-.35-.09,2.67,2.67,0,0,0-.53.07,1.4,1.4,0,0,0-.71.41A5.81,5.81,0,0,0,155.31,103.28Z"></path><path class="cls-1" d="M167.11,98a5.4,5.4,0,0,0-.77.8c-.36.45-.48.8-.38,1s.44.43,1,.58a6.67,6.67,0,0,0,.93.17,3.49,3.49,0,0,1,.9.23,1.67,1.67,0,0,1,.67.54,1.88,1.88,0,0,1,.27,1.1,1.61,1.61,0,0,1-.35,1,3.55,3.55,0,0,1-.88.79,5.17,5.17,0,0,1-1.13.56,6.5,6.5,0,0,1-1.12.3,4.69,4.69,0,0,1-1.71,0,3,3,0,0,1-1.06-.43,1,1,0,0,1-.43-.57.37.37,0,0,1,.14-.44.45.45,0,0,1,.33,0l.49.09a5.51,5.51,0,0,0,.67.11,3.53,3.53,0,0,0,.85,0,5.08,5.08,0,0,0,1.07-.27,7.09,7.09,0,0,0,1.33-.66.84.84,0,0,0,.34-.42.6.6,0,0,0,0-.49,1,1,0,0,0-.48-.42,2.65,2.65,0,0,0-1-.2l-1-.08a2.83,2.83,0,0,1-.89-.22,1.36,1.36,0,0,1-.61-.49,1.39,1.39,0,0,1-.19-.89,2,2,0,0,1,.37-.93,8.08,8.08,0,0,1,.85-1.12,11.82,11.82,0,0,1,1.15-1.07,5.63,5.63,0,0,1,1.11-.74,3,3,0,0,1,2.44,0,1.63,1.63,0,0,1,.88.83.38.38,0,0,1-.12.45c-.12.11-.34.34-.57.23a3.53,3.53,0,0,0-1.08-.25A3.26,3.26,0,0,0,167.11,98Z"></path><path class="cls-1" d="M146.31,54.77c.1-1.86-2.11-.43-4.07.26-1.55.56-1.34.82-1.59,3.66-.09,1-1.7,29.56-1.7,29.56,0,.27-.15,6.73,6,7.4,2.34.26,3.28-.88,3.19-1.22-.17-.58-.57-.28-1-.28-4.18,0-2.87-9.11-2-19.63Z"></path><path class="cls-2" d="M156.88,47.55c-2.07-3.08-4.58-6-5.5-8.79-6.86,8.35-5.77,20,3.75,23.08a17.89,17.89,0,0,1-.66-1.81c-3.51-5.09-5-11.37-3.86-16.16a28,28,0,0,0,3.25,13,12.18,12.18,0,0,1,.79-5.4,16,16,0,0,1,2.23-3.91Z"></path><path class="cls-1" d="M127.34,110.17c0-.09,0-.14-.09-.16s-.12,0-.2.07a1.35,1.35,0,0,0-.27.4,2.53,2.53,0,0,1-.5.59,2.56,2.56,0,0,1-.73.46c-.27.11-1.65.46-1.59-1.09,0-.44.82-3.93.94-4.55.32-.11.61-.21.88-.33a3.28,3.28,0,0,0,.62-.32.66.66,0,0,0,.33-.37c0-.12,0-.19-.2-.21a2.7,2.7,0,0,0-.57,0,8.33,8.33,0,0,0-.87.16c0-.19.07-.38.11-.6s.07-.37.11-.59.09-.44.13-.65a.62.62,0,0,0-.13-.53,1.07,1.07,0,0,0-.44-.32.92.92,0,0,0-.52,0,.51.51,0,0,0-.37.33,2.69,2.69,0,0,0-.13.32c0,.1-.06.22-.1.38l-.12.58c0,.23-.11.53-.19.9,0,0,0,.11,0,.18l-.06.2,0,.22c-.31.11-.59.23-.83.34a3.93,3.93,0,0,0-.57.35.5.5,0,0,0-.26.37.28.28,0,0,0,.22.3,1.23,1.23,0,0,0,.51,0,4,4,0,0,0,.74-.19c-.24,1.06-.7,3.17-.78,3.78a3.46,3.46,0,0,0,.09,1.18l-.18.08a1.17,1.17,0,0,1-.51.07.45.45,0,0,1-.42-.25,1.66,1.66,0,0,1-.14-.6,4.44,4.44,0,0,1,0-.79c0-.29.07-.58.1-.86a7.94,7.94,0,0,0,.06-.81,1.59,1.59,0,0,0-.09-.62,1,1,0,0,0-.38-.5.86.86,0,0,0-.55-.12,2,2,0,0,0-.62.18,3.37,3.37,0,0,0-.61.4,7,7,0,0,0-.61.61,8,8,0,0,0-.56.67c-.19.25-.38.5-.55.76.1-.47.18-.89.24-1.25l.06-.46a3,3,0,0,0,0-.39,2.18,2.18,0,0,0,0-.28c0-.07,0-.1-.07-.1l-.31.1a2.33,2.33,0,0,0-.39.19c-.13.08-.27.17-.39.26a1.76,1.76,0,0,0-.31.29,2.52,2.52,0,0,0-.19.47c-.08.25-.16.53-.24.86s-.16.67-.24,1-.11.54-.16.79a5.67,5.67,0,0,1-.5.48.9.9,0,0,1-.61.23c-.3,0-.46-.2-.49-.57a5.84,5.84,0,0,1,.23-1.66,1.57,1.57,0,0,0,.06-.77.29.29,0,0,0-.27-.21,1,1,0,0,0-.43.08l-.4.13a.39.39,0,0,0-.27.24,2.45,2.45,0,0,0-.18.46c-.05.18-.09.36-.12.53s0,.32-.07.42a1.64,1.64,0,0,1-.21.45,5,5,0,0,1-.45.61,4.07,4.07,0,0,1-.56.54,1,1,0,0,1-.52.28c-.13,0-.21-.08-.24-.31a2.53,2.53,0,0,1,0-.85,6.67,6.67,0,0,1,.32-1.07,4.22,4.22,0,0,1,.6-1,2.74,2.74,0,0,1,.55-.47l.59-.36c.2-.11.37-.21.52-.31a.83.83,0,0,0,.31-.34c0-.07,0-.12-.15-.14a1.54,1.54,0,0,0-.54,0,4.8,4.8,0,0,0-.8.23,5.34,5.34,0,0,0-.92.47,5.47,5.47,0,0,0-.93.71,4.4,4.4,0,0,0-.79,1,4.82,4.82,0,0,0-.63,1.54,2.62,2.62,0,0,0,0,1.2,1,1,0,0,0,.07.15,2.72,2.72,0,0,1-.24.24,2.4,2.4,0,0,1-.73.47c-.27.11-1.65.46-1.59-1.09a1.44,1.44,0,0,1,0-.21,17.6,17.6,0,0,0,2.88-4.37c1-2.22-.62-4-2.32-1.54a13.77,13.77,0,0,0-2.2,6.21,2.87,2.87,0,0,0,.21,1.22,1.69,1.69,0,0,0,.69.8,2,2,0,0,0,1.29.17,2.38,2.38,0,0,0,.61-.16,3.71,3.71,0,0,0,.56-.29,4.37,4.37,0,0,0,.48-.37,4,4,0,0,0,.41-.41l.22-.26a.91.91,0,0,0,.21.18,1.2,1.2,0,0,0,.9.15,2.76,2.76,0,0,0,.9-.34,3.93,3.93,0,0,0,.65-.49,3.11,3.11,0,0,0,.52-.64,1.72,1.72,0,0,0,.3.78,1.25,1.25,0,0,0,.23.23.82.82,0,0,0,.33.13,1.41,1.41,0,0,0,.46,0,2.06,2.06,0,0,0,.59-.2,4,4,0,0,0,1.07-.73l.17-.18v.05c0,.22,0,.34,0,.37a.59.59,0,0,0,.33.09,2.22,2.22,0,0,0,.51,0,2.83,2.83,0,0,0,.52-.13.69.69,0,0,0,.35-.26,1.6,1.6,0,0,0,.15-.43c0-.2.12-.42.2-.67a7,7,0,0,1,.36-.83,4.87,4.87,0,0,1,.63-.92,5,5,0,0,1,.6-.65.92.92,0,0,1,.44-.25c.11,0,.19.07.22.24a2.26,2.26,0,0,1,0,.77,5.19,5.19,0,0,0,.06,2.34,1.23,1.23,0,0,0,1.35.83,2.21,2.21,0,0,0,1-.27,4.43,4.43,0,0,0,.64-.42,1.62,1.62,0,0,0,.61.66,2,2,0,0,0,1.3.16,2.2,2.2,0,0,0,.61-.16,3.6,3.6,0,0,0,.55-.29,3.41,3.41,0,0,0,.48-.37,5.22,5.22,0,0,0,.41-.4,5.84,5.84,0,0,0,.75-1A.69.69,0,0,0,127.34,110.17Zm-20.4-2.35c.13-.34.71-1.79,1.23-1.55.26.13.16.69-.46,2a10.17,10.17,0,0,1-1.53,2.53A13.91,13.91,0,0,1,106.94,107.82Z"></path><path class="cls-1" d="M147.51,102c.44.05.87-.59-.39-.63a3.12,3.12,0,0,0-2.44,1,2.88,2.88,0,0,0-.57,1.49,1.26,1.26,0,0,0,.23.93,4,4,0,0,0,.71.79c.28.24.56.45.83.64a2.7,2.7,0,0,1,.56.49.39.39,0,0,1,.09.4.74.74,0,0,1-.25.35,1.74,1.74,0,0,1-.47.26,2.16,2.16,0,0,1-.53.13,1.49,1.49,0,0,1-.71,0,1.11,1.11,0,0,1-.48-.28.71.71,0,0,1-.21-.41.73.73,0,0,1,.12-.45c.2-.28.28-.47.22-.58s-.2-.09-.44.07a4.37,4.37,0,0,0-.4.28,2.19,2.19,0,0,0-.45.46,2.15,2.15,0,0,0-.33.68.88.88,0,0,1-.46.14c-.3,0-.47-.21-.52-.57a5.61,5.61,0,0,1,.12-1.67,1.54,1.54,0,0,0,0-.77.32.32,0,0,0-.29-.21,1,1,0,0,0-.42.08,2.66,2.66,0,0,1-.39.12.42.42,0,0,0-.26.25,2.48,2.48,0,0,0-.15.46,5,5,0,0,0-.08.54c0,.17,0,.31,0,.41a1.2,1.2,0,0,1-.19.46,4.27,4.27,0,0,1-.41.6,4.51,4.51,0,0,1-.52.55,1.09,1.09,0,0,1-.51.28c-.12,0-.21-.09-.26-.32a3,3,0,0,1,0-.85,5.34,5.34,0,0,1,.26-1.07,3.5,3.5,0,0,1,.54-1,2.28,2.28,0,0,1,.51-.47l.57-.36.5-.31a.77.77,0,0,0,.29-.34c0-.07,0-.12-.16-.14a1.54,1.54,0,0,0-.54,0,4.38,4.38,0,0,0-.78.23,5,5,0,0,0-.89.46,5.85,5.85,0,0,0-.89.72,3.89,3.89,0,0,0-.72,1,4.13,4.13,0,0,0-.54,1.54,2.6,2.6,0,0,0,.11,1.21,1.42,1.42,0,0,0,.59.74,1.27,1.27,0,0,0,.9.15,2.49,2.49,0,0,0,.88-.34,3.29,3.29,0,0,0,.62-.5,2.54,2.54,0,0,0,.49-.64,1.75,1.75,0,0,0,.34.78,1,1,0,0,0,.24.23.79.79,0,0,0,.34.14,1.44,1.44,0,0,0,.46,0,2,2,0,0,0,.58-.19,4.81,4.81,0,0,0,.63-.39h0a.7.7,0,0,0,.41.55,2.39,2.39,0,0,0,.91.22,4.84,4.84,0,0,0,1.17-.09,5.34,5.34,0,0,0,1.2-.34,3.93,3.93,0,0,0,1-.56,1.49,1.49,0,0,0,.54-.72,1.17,1.17,0,0,0,0-.74,2,2,0,0,0-.35-.64,4.33,4.33,0,0,0-.55-.59,7.6,7.6,0,0,1-.56-.58,3.22,3.22,0,0,1-.41-.65,1.22,1.22,0,0,1-.08-.74C145.87,103.32,146.26,101.85,147.51,102Z"></path><path class="cls-2" d="M173.56,33.82c-5.66,8.33-24.32,14.06-16.73,28.92A39.54,39.54,0,0,0,172.62,41c-.35,7.16-5.06,15.41-12.18,21S135,67.06,135,67.06s-4.2.89,1.19,1.51c10.9,1.24,21.79-.57,29.34-5.32C174.71,57.45,179.05,47.33,173.56,33.82Z"></path><path class="cls-3" d="M164.9,51.74a.9.9,0,0,0-.13-.26.52.52,0,0,0-.15-.17.14.14,0,0,0-.13,0s0,0,0,.11a1.45,1.45,0,0,1,.06.19,1,1,0,0,1,.05.26.48.48,0,0,1-.08.29.31.31,0,0,1-.09.11l-.11,0h-.12l-.12,0a1,1,0,0,1-.28-.17.76.76,0,0,0,.15-.23,1,1,0,0,0,.06-.27.81.81,0,0,0,0-.37.71.71,0,0,0-.17-.31.69.69,0,0,0-.24-.18.46.46,0,0,0-.26,0,.4.4,0,0,0-.23.12,1.25,1.25,0,0,0-.16.22,1.51,1.51,0,0,0-.12.26.9.9,0,0,0,0,.28.81.81,0,0,0,0,.27,1.09,1.09,0,0,0,.14.29,1.49,1.49,0,0,0,.23.28,2.37,2.37,0,0,0,.3.23,2.17,2.17,0,0,0,.35.15,1.16,1.16,0,0,0,.37,0,1,1,0,0,0,.36-.13.76.76,0,0,0,.4-.63A.71.71,0,0,0,164.9,51.74Zm-1.3-.17a.54.54,0,0,1,0,.15.26.26,0,0,1-.06.13l-.08-.06-.07-.1a1.71,1.71,0,0,1-.07-.18,1.29,1.29,0,0,1,0-.24.62.62,0,0,1,0-.16.22.22,0,0,1,.09-.1l.11.05.07.11a.48.48,0,0,1,.05.19A1.34,1.34,0,0,1,163.6,51.57Z"></path><path class="cls-3" d="M158.06,54.64a.35.35,0,0,1,.17-.12.43.43,0,0,1,.22,0,.22.22,0,0,1,.18.08.27.27,0,0,1,0,.22c0,.08-.08.16-.2.24l-.12,0-.14,0-.12-.07a.37.37,0,0,1-.07-.12A.21.21,0,0,1,158.06,54.64Z"></path><path class="cls-3" d="M157.72,56a.28.28,0,0,0,0,.13.64.64,0,0,0,.05.17.8.8,0,0,0,.15.2.85.85,0,0,0,.28.16l.35.08c.13,0,.25,0,.39,0l.38,0a1.3,1.3,0,0,1,.34.08.6.6,0,0,1,.25.16.3.3,0,0,1,.07.26,1.05,1.05,0,0,1-.11.31,1.63,1.63,0,0,1-.66.57.93.93,0,0,1-1.16-.11.54.54,0,0,1-.12-.22.38.38,0,0,1,0-.18l0-.14c0-.08.07-.11.13-.09s.1.07.13.17a.22.22,0,0,0,.11.13.78.78,0,0,0,1-.29.28.28,0,0,0,.07-.16.25.25,0,0,0-.23-.2h-.86l-.51-.06a.8.8,0,0,1-.38-.19.78.78,0,0,1-.3-.46.74.74,0,0,1,.19-.55,1.2,1.2,0,0,1,.56-.34c.14,0,.36,0,.29.13S157.84,55.76,157.72,56Z"></path><path class="cls-3" d="M163.76,53.52a.84.84,0,0,1-.14.24.93.93,0,0,1-.27.19A1,1,0,0,1,163,54h0a.64.64,0,0,1,.06.22.54.54,0,0,1,0,.28.52.52,0,0,1-.18.28.68.68,0,0,1-.66.14,2.4,2.4,0,0,1-.84-.43,1.21,1.21,0,0,0-.26-.16q-.1,0-.15,0a.18.18,0,0,0,0,.14,1.91,1.91,0,0,0,0,.26,1.48,1.48,0,0,0,.15.31,1.55,1.55,0,0,0,.19.24,1.41,1.41,0,0,0,.18.17l.11.12a.17.17,0,0,1,0,.12.49.49,0,0,1-.11.14.53.53,0,0,1-.14.11.33.33,0,0,1-.12.06A.42.42,0,0,1,161,56h0a.43.43,0,0,1,0,.11.77.77,0,0,1,0,.27.78.78,0,0,1-.16.24.72.72,0,0,1-.27.16.73.73,0,0,1-.31.07,1,1,0,0,1-.32-.08,2.36,2.36,0,0,1-.36-.21c-.13-.1-.27-.22-.43-.37A1.19,1.19,0,0,1,159,56l-.11-.19a.64.64,0,0,1-.06-.16.28.28,0,0,1,0-.13.66.66,0,0,1,.08-.13.38.38,0,0,1,.11-.11.17.17,0,0,1,.14,0,.36.36,0,0,1,.17.16,1.53,1.53,0,0,0,.14.17l.2.2.24.2.25.16a1.09,1.09,0,0,0,.23.09.29.29,0,0,0,.36-.17.52.52,0,0,0,0-.25v0l-.27-.22-.29-.26A2.49,2.49,0,0,1,160,55a.54.54,0,0,1-.1-.13.28.28,0,0,1,0-.13.59.59,0,0,1,0-.13.61.61,0,0,1,0-.12l.06-.08s0,0,.05,0l.1,0,.13.09.14.11c.1.08.23.18.36.3,0-.09-.08-.18-.11-.27s0-.16-.07-.25a1.13,1.13,0,0,1,0-.25.45.45,0,0,1,0-.2.39.39,0,0,1,.11-.17.53.53,0,0,1,.2-.09.64.64,0,0,1,.27,0,1,1,0,0,1,.24.1l.26.17.27.19.26.16a.9.9,0,0,0,.25.08.24.24,0,0,0,.2,0,.3.3,0,0,0,.12-.13.88.88,0,0,0,.05-.15c0-.06,0-.1,0-.14l-.25,0a1.8,1.8,0,0,1-.38-.16,1.35,1.35,0,0,1-.32-.26,1.58,1.58,0,0,1-.2-.36,1,1,0,0,1,0-.43.57.57,0,0,1,.15-.34.83.83,0,0,1,.25-.19.65.65,0,0,1,.25-.06c.08,0,.12,0,.14.05s0,0-.06.08l-.12.12a.39.39,0,0,0-.1.19.35.35,0,0,0,.05.25,1.31,1.31,0,0,0,.21.27,1,1,0,0,0,.26.21.94.94,0,0,0,.28.12.42.42,0,0,0,.25,0,.51.51,0,0,0,.21-.16.88.88,0,0,0,.09-.2,1.11,1.11,0,0,0,0-.17.29.29,0,0,1,0-.12c0-.06.06-.06.11,0a.45.45,0,0,1,.11.26.8.8,0,0,1,0,.23A.69.69,0,0,1,163.76,53.52Z"></path><path class="cls-3" d="M170.46,42.94a1.11,1.11,0,0,0-.16-.39,1.77,1.77,0,0,0-.26-.35,2.51,2.51,0,0,0-.29-.28l-.23-.16-.25-.14a1.39,1.39,0,0,0-.26-.1,1,1,0,0,0-.24,0,.56.56,0,0,0-.2,0l-.15.08a.42.42,0,0,1-.14.06.26.26,0,0,1-.18,0,.85.85,0,0,1,0,.25L168,42a.76.76,0,0,0-.06.18.88.88,0,0,0,0,.24,2.12,2.12,0,0,0,.09.31,2.49,2.49,0,0,0,.2.34,1.94,1.94,0,0,0,.32.32,1.77,1.77,0,0,0,.44.29,1.25,1.25,0,0,0,.4.12,1.63,1.63,0,0,0,.44,0,1,1,0,0,0,.37-.16.67.67,0,0,0,.24-.31A.78.78,0,0,0,170.46,42.94Zm-.35.32a.2.2,0,0,1-.13.12.52.52,0,0,1-.22,0,1.14,1.14,0,0,1-.28-.07,2.38,2.38,0,0,1-.29-.13,1.89,1.89,0,0,1-.3-.19,1.94,1.94,0,0,1-.27-.21l-.13-.11s-.09-.1-.13-.16a.47.47,0,0,1-.1-.16.21.21,0,0,1,0-.15.18.18,0,0,1,.1-.11.38.38,0,0,1,.16,0,.54.54,0,0,1,.18,0l.15,0,.28.09a1.77,1.77,0,0,1,.31.15,3.28,3.28,0,0,1,.31.2,1.36,1.36,0,0,1,.25.22,1,1,0,0,1,.14.25A.33.33,0,0,1,170.11,43.26Z"></path><path class="cls-3" d="M169.32,44.67a1.2,1.2,0,0,0-.17-.36,1.06,1.06,0,0,0-.23-.24.49.49,0,0,0-.23-.08.89.89,0,0,0-.56.17.93.93,0,0,0-.32.56.66.66,0,0,0,0,.15c0,.06,0,.12,0,.19s0,.12,0,.17a.5.5,0,0,0,0,.12h0s-.06,0-.11,0a1.53,1.53,0,0,1-.21-.13,1.94,1.94,0,0,1-.32-.29,2.43,2.43,0,0,1-.24-.32,3,3,0,0,1-.18-.36.76.76,0,0,1,0-.15.49.49,0,0,1,0-.12v-.09l0-.07c-.07,0-.12.06-.16.17a.92.92,0,0,0,0,.42,1.35,1.35,0,0,0,.11.46,2,2,0,0,0,.21.36,1.64,1.64,0,0,0,.24.27l.19.15a2.24,2.24,0,0,0,.43.27L168,46l.19,0a.13.13,0,0,1,.08,0,1.14,1.14,0,0,0,.19.19.92.92,0,0,0,.19.13.43.43,0,0,0,.14,0s.06,0,.07,0a0,0,0,0,0,0-.06l-.07-.08-.11-.1a.74.74,0,0,1-.12-.16s0,0,.06,0l.21-.07a1,1,0,0,0,.32-.27,1.07,1.07,0,0,0,.19-.48A1,1,0,0,0,169.32,44.67ZM169,45a.52.52,0,0,1-.1.18.61.61,0,0,1-.16.12l-.17.07-.16,0a.2.2,0,0,1-.11,0h-.06a.84.84,0,0,1,0-.38.87.87,0,0,1,.11-.31.51.51,0,0,1,.21-.18.34.34,0,0,1,.26,0,.46.46,0,0,1,.1.07.39.39,0,0,1,.08.1.29.29,0,0,1,.05.13A.23.23,0,0,1,169,45Z"></path><path class="cls-3" d="M168.11,47.31a.9.9,0,0,0-.07-.37,2.36,2.36,0,0,0-.21-.36l-.11-.11-.16-.12a1,1,0,0,0-.17-.1,8,8,0,0,0-.85-.35,2.24,2.24,0,0,0-.58,0,.77.77,0,0,0-.3.11.66.66,0,0,0-.23.21.44.44,0,0,0-.09.27,1.24,1.24,0,0,0,.07.57.85.85,0,0,0,.27.34.82.82,0,0,0,.39.18,1,1,0,0,0,.45-.06,1.28,1.28,0,0,0,.27-.16.44.44,0,0,0,.1-.17.69.69,0,0,0,.05-.24.45.45,0,0,0,0-.16s0-.09,0-.13a.16.16,0,0,1,0-.09.49.49,0,0,1,.24.05.9.9,0,0,1,.26.22.87.87,0,0,1,.18.31.67.67,0,0,1,0,.34,1.13,1.13,0,0,1-.75.84c-.06,0-.08.08-.07.12a.09.09,0,0,0,.07.1.87.87,0,0,0,.49-.05,1.72,1.72,0,0,0,.3-.19,1.2,1.2,0,0,0,.28-.27.9.9,0,0,0,.17-.32A.8.8,0,0,0,168.11,47.31Zm-1.59-.21a.37.37,0,0,1-.21.06.51.51,0,0,1-.24,0,.94.94,0,0,1-.26-.14,1.07,1.07,0,0,1-.15-.22.46.46,0,0,1-.06-.22c.07-.2.36-.22.4-.22a.84.84,0,0,1,.51.12.41.41,0,0,1,.12.29.43.43,0,0,1,0,.16A.28.28,0,0,1,166.52,47.1Z"></path><path class="cls-3" d="M167,49.42a.44.44,0,0,1-.19.15.47.47,0,0,1-.21,0,.61.61,0,0,1-.23-.09,1.48,1.48,0,0,1-.25-.16c-.17-.14-.35-.3-.52-.46a5.84,5.84,0,0,0-.5-.4,2.5,2.5,0,0,0,.1.71l.11.24a.14.14,0,0,1-.07.18c-.07,0-.15-.09-.2-.2a.52.52,0,0,1-.06-.15c0-.12-.08-.22-.1-.31a2.33,2.33,0,0,1-.07-.25l-.06-.25-.06-.25a2.18,2.18,0,0,0-.09-.23,1.24,1.24,0,0,1,0-.16.3.3,0,0,1,0-.16l.07,0,.09-.05.1,0h.07l.09.07.08.09a.36.36,0,0,0,.07.1.35.35,0,0,0,.07.09,1.1,1.1,0,0,0,.18.14.82.82,0,0,0,.2.12l.45.33c.14.11.3.22.45.32l.16.09.21.16a.49.49,0,0,1,.16.2A.15.15,0,0,1,167,49.42Z"></path><path class="cls-1" d="M197.4,94.27c.44,0,.87-.58-.39-.63a3.12,3.12,0,0,0-2.44,1A2.91,2.91,0,0,0,194,96.1a1.25,1.25,0,0,0,.23.93,3.76,3.76,0,0,0,.71.79c.28.24.56.46.83.65a2.43,2.43,0,0,1,.56.49.42.42,0,0,1,.1.4.82.82,0,0,1-.26.34,1.6,1.6,0,0,1-.46.27,2.23,2.23,0,0,1-.54.13,1.79,1.79,0,0,1-.71,0,1.24,1.24,0,0,1-.48-.28.66.66,0,0,1-.2-.42.65.65,0,0,1,.11-.44c.2-.28.28-.48.22-.59s-.2-.08-.44.07a4.75,4.75,0,0,0-.4.29,2.19,2.19,0,0,0-.45.46,2.15,2.15,0,0,0-.33.68.11.11,0,0,1,0,.05l-.27.07a2.52,2.52,0,0,1-2.55-1.53,3.42,3.42,0,0,1,1.92-1.6c1-.12,1-1.3.69-1.3a4.94,4.94,0,0,0-2.66,1.71s.44-4.1,1-5.1c.46-.8-.38-.86-1-.2a3,3,0,0,0-.81,1.46,45.79,45.79,0,0,0-1.15,6.27c-.2.17-.57.53-.68.62a4,4,0,0,1-.48.33,2.82,2.82,0,0,1-.61.27,1.35,1.35,0,0,1-.72,0,.58.58,0,0,1-.39-.36,1.62,1.62,0,0,1-.13-.7,3.3,3.3,0,0,1,.13-.89,4.26,4.26,0,0,1,.35-.92,1.68,1.68,0,0,1,.54-.64,2.18,2.18,0,0,1,.6-.26,2.49,2.49,0,0,1,.5-.06c.14,0,.23,0,.26-.08s0-.19-.08-.32a1,1,0,0,0-.53-.28,2,2,0,0,0-.85,0,2.48,2.48,0,0,0-1.06.52,4.93,4.93,0,0,0-1,1,4.4,4.4,0,0,0-.56,1.1,3.13,3.13,0,0,0-.16,1.07,2.86,2.86,0,0,0,.08.67,3.85,3.85,0,0,1-.35.35.82.82,0,0,1-.55.22c-.29,0-.45-.2-.5-.54a5.36,5.36,0,0,1,.12-1.58,1.46,1.46,0,0,0,0-.72.32.32,0,0,0-.27-.21.84.84,0,0,0-.4.08l-.37.12c-.11,0-.18.1-.24.23a2.05,2.05,0,0,0-.15.44,4.29,4.29,0,0,0-.07.5c0,.17,0,.3,0,.4a1.27,1.27,0,0,1-.18.42,3,3,0,0,1-.38.57,4.12,4.12,0,0,1-.5.52,1,1,0,0,1-.48.27q-.18,0-.24-.3a2.34,2.34,0,0,1,0-.8,4.73,4.73,0,0,1,.25-1,3.44,3.44,0,0,1,.5-.95,2.08,2.08,0,0,1,.49-.45L180,98c.18-.1.33-.2.47-.29a.67.67,0,0,0,.27-.32c0-.07,0-.12-.15-.14a2,2,0,0,0-.51,0,4.81,4.81,0,0,0-.73.22,5.31,5.31,0,0,0-.85.44,5.67,5.67,0,0,0-.83.67,3.9,3.9,0,0,0-.69.91,4.06,4.06,0,0,0-.51,1.46,2.43,2.43,0,0,0,.11,1.14,1.4,1.4,0,0,0,.44.61l-.09.05a3.42,3.42,0,0,1-.47.23,1.15,1.15,0,0,1-.48.07.49.49,0,0,1-.41-.25,1.55,1.55,0,0,1-.16-.56,4.59,4.59,0,0,1,0-.75c0-.27,0-.54.05-.81a6.68,6.68,0,0,0,0-.77,1.52,1.52,0,0,0-.12-.58,1.06,1.06,0,0,0-.39-.48.85.85,0,0,0-.52-.11,1.47,1.47,0,0,0-.58.17,2.85,2.85,0,0,0-.55.38,6.25,6.25,0,0,0-.55.58c-.18.21-.34.42-.48.62s-.33.48-.48.73c.07-.45.12-.84.16-1.18l0-.44a2.38,2.38,0,0,0,0-.37q0-.17,0-.27c0-.06,0-.09-.07-.09l-.29.09a2.09,2.09,0,0,0-.36.19,2.71,2.71,0,0,0-.35.24,1.17,1.17,0,0,0-.27.28,1.63,1.63,0,0,0-.16.45q-.09.34-.18.81c0,.31-.11.63-.16,1s-.1.66-.13,1a5.86,5.86,0,0,0-.06.76q0,.31,0,.36a.69.69,0,0,0,.32.07,2,2,0,0,0,.48,0,3.59,3.59,0,0,0,.47-.12.63.63,0,0,0,.32-.24,1.53,1.53,0,0,0,.12-.42q.06-.27.15-.63a6,6,0,0,1,.29-.79,4.7,4.7,0,0,1,.54-.87,5.14,5.14,0,0,1,.53-.61.76.76,0,0,1,.4-.24c.11,0,.18.07.23.22a2.38,2.38,0,0,1,0,.74,4.76,4.76,0,0,0,.19,2.21,1.23,1.23,0,0,0,1.32.78,2,2,0,0,0,.94-.25,3.36,3.36,0,0,0,.72-.53,2.54,2.54,0,0,0,.36-.4,1.2,1.2,0,0,0,.63,0,2.49,2.49,0,0,0,.83-.33,3.29,3.29,0,0,0,.59-.47,3,3,0,0,0,.46-.6,1.63,1.63,0,0,0,.31.73,1,1,0,0,0,.24.22.77.77,0,0,0,.32.13,1.54,1.54,0,0,0,.43,0,2,2,0,0,0,.55-.19,3.68,3.68,0,0,0,1-.69q.2-.21.36-.42a1.72,1.72,0,0,0,.32.43,1.43,1.43,0,0,0,.71.39,2.27,2.27,0,0,0,.86,0,3.07,3.07,0,0,0,.79-.27,3.84,3.84,0,0,0,.69-.44,4.54,4.54,0,0,0,.54-.53c.16-.18.39-.45.57-.7a3.93,3.93,0,0,0,0,.89.73.73,0,0,0,1.45,0c.07-.37.22-1,.36-1.7a3.46,3.46,0,0,0,2.68,1.93,1.77,1.77,0,0,0,.64-.16l.08.08.1.07a2.39,2.39,0,0,0,.91.21,5.36,5.36,0,0,0,1.17-.08,6.64,6.64,0,0,0,1.2-.34,4.26,4.26,0,0,0,1-.56,1.56,1.56,0,0,0,.55-.73,1.21,1.21,0,0,0,0-.73,2.06,2.06,0,0,0-.35-.65,3.73,3.73,0,0,0-.55-.58,7.7,7.7,0,0,1-.56-.59,3.15,3.15,0,0,1-.41-.64,1.24,1.24,0,0,1-.08-.74C195.76,95.61,196.15,94.14,197.4,94.27Z"></path><path class="cls-1" d="M210,84.22l-.44.08V82.4l-.72.13v-.37l1.88-.33v.37l-.72.12Z"></path><path class="cls-1" d="M211.87,83.88l-.51-1.63V84L211,84V81.78l.65-.11.48,1.59.48-1.76.66-.12v2.26l-.4.07V82l-.51,1.81Z"></path></svg> 