<?xml version="1.0" encoding="UTF-8"?> <svg xmlns="http://www.w3.org/2000/svg" id="Layer_1" data-name="Layer 1" viewBox="0 0 300 150"><defs><style>.cls-1{fill:#333;}</style></defs><path class="cls-1" d="M107.92,55.8H99.53V94.2h8.39Zm6.58,38.4h8.39V78.89h16.57V94.2h8.39V55.8h-8.39V71.1H122.89V55.8H114.5Zm67.25-27.32,5.81-5.43a17.36,17.36,0,0,0-6.47-4.77,21.88,21.88,0,0,0-18.51.74,18,18,0,0,0-7.16,7A20.71,20.71,0,0,0,152.79,75a21.07,21.07,0,0,0,2.44,10.26,18,18,0,0,0,7,7.13A20.54,20.54,0,0,0,172.64,95a20.26,20.26,0,0,0,9.85-2.41,18.21,18.21,0,0,0,7-6.83,19.85,19.85,0,0,0,2.6-10.29,24,24,0,0,0-.43-4.39H171.76v7.79H183a8,8,0,0,1-3.18,5.87,12,12,0,0,1-12.81.85A10.33,10.33,0,0,1,163,81.42,13.5,13.5,0,0,1,161.56,75a13.86,13.86,0,0,1,1.35-6.23,10.29,10.29,0,0,1,3.86-4.28,11,11,0,0,1,5.87-1.56,12.91,12.91,0,0,1,9.11,3.95m18.72-6.43a3.87,3.87,0,1,1-3.89-3.85h0a3.81,3.81,0,0,1,3.87,3.76v.09m-.69,0a3.18,3.18,0,0,0-6.36-.1v.12a3.18,3.18,0,0,0,6.36.07v-.09m-1.47,1.87h-.87l-.93-1.48h-.4v1.48h-.84V58.5h1.35c.89,0,1.46.37,1.46,1.15v0a1,1,0,0,1-.78,1Zm-1.05-2.64c0-.4-.24-.54-.66-.54h-.49v1.12h.49c.44,0,.66-.19.66-.56Z"></path></svg> 