<?xml version="1.0" encoding="UTF-8"?> <svg xmlns="http://www.w3.org/2000/svg" id="Layer_1" data-name="Layer 1" viewBox="0 0 300 150"><defs><style>.cls-1{fill:#333;}.cls-2{fill:#fff;}</style></defs><circle class="cls-1" cx="150" cy="75" r="42.15"></circle><path class="cls-2" d="M175.08,62.77c.1.16.06.37-.08.63a1.76,1.76,0,0,1-.64.63c-.37.21-.63.18-.79-.09s0-.34.12-.63,0-.76-.35-1.44a1.06,1.06,0,0,0-.38-.45.54.54,0,0,0-.46.1l-.67.37c-.17.1-.25.18-.26.26a.88.88,0,0,0,.18.42c.11.2.31.23.62.11s.52-.09.61.08a.44.44,0,0,1-.11.51,3,3,0,0,1-.8.64,2.83,2.83,0,0,1-1,.38c-.28,0-.47,0-.55-.18s0-.29.24-.51a.53.53,0,0,0,.11-.74q-.1-.18-.24-.18a.93.93,0,0,0-.46.18,2.41,2.41,0,0,0-.85.63c-.06.14,0,.39.22.76a2.51,2.51,0,0,0,.69.84,1.1,1.1,0,0,0,.72.2,1.56,1.56,0,0,1,.53,0,.42.42,0,0,1,.21.19.36.36,0,0,1,0,.36.64.64,0,0,1-.31.32,2.48,2.48,0,0,1-1,.27c-.46.06-.75,0-.85-.18s-.12-.24-.22-.46a3.71,3.71,0,0,0-.21-.48l-2-3.37c-.16-.28-.13-.48.1-.61a.39.39,0,0,1,.43.06.63.63,0,0,0,.58.07,5.33,5.33,0,0,0,.71-.29c.26-.12.57-.28.93-.49a7.49,7.49,0,0,0,1.71-1.15.88.88,0,0,0,.17-.32c0-.06,0-.14,0-.25a.32.32,0,0,1,.17-.4.33.33,0,0,1,.41,0,2.13,2.13,0,0,1,.49.65L174,61.27c.21.36.38.65.49.82a3.38,3.38,0,0,0,.48.57Z"></path><path class="cls-2" d="M173.63,89.92h-.11l-9.27-1.52A20.24,20.24,0,0,1,154.08,94a19.58,19.58,0,0,1-16.26-4.14l-1.93-1.93h-5.32A7.71,7.71,0,0,1,132,90.42l.14.43a.14.14,0,0,1-.2,0c-1.43-1.67-3.45-2.51-7.1-3.49a0,0,0,0,1,0,0,.11.11,0,0,1,0-.14,16,16,0,0,0,7.1-3.63.12.12,0,0,1,.14,0,4.71,4.71,0,0,1-.15.63,8.85,8.85,0,0,1-1.4,2.43l4.21,0a18.64,18.64,0,0,1-3.9-9.94,19.36,19.36,0,0,1,10.28-19.13,19.92,19.92,0,0,1,13.74-1.75l.11,0a24.15,24.15,0,0,1,5.73,2.45,19.34,19.34,0,0,1,8.66,13A20.42,20.42,0,0,1,166.31,86c2.49-.48,4.81-1,7.33-1.38a8.29,8.29,0,0,0-2.45,2.71A7.72,7.72,0,0,0,173.63,89.92Zm-4.81-12.25a21.36,21.36,0,0,0,.18-3.93,18.56,18.56,0,0,0-9.74-15.39,16.31,16.31,0,0,0-5.42-2,18.17,18.17,0,0,0-9.36.57A18.85,18.85,0,0,0,131.4,75.19a18,18,0,0,0,4.35,11.43h8.49c.24-.07.31-.35.38-.52.31-2.21.79-4.68.1-6.9a12.38,12.38,0,0,0-1.34-3c-1-1.65-2.87-3-3-5a4.64,4.64,0,0,1,1.93-3.72c.66-.59,1.56-.9,2.07-1.7-.37.17-.86.49-1.27.14a.88.88,0,0,1-.4-.79c0-1.12,1.16-1.66,1.09-2.77-.38-.37-1.11-.27-1.63-.2l-.07-.07c-.06-.8.9-1.14,1.49-1.45.18-.31,0-.51,0-.86a.94.94,0,0,1,.31-.86.54.54,0,0,1,.65,0c.14-.07.14-.28.32-.35l.08,0a.42.42,0,0,1,.47.24c.1-.1.27-.28.45-.28s.28.28.38.45.24,0,.31-.1c.31-.17.62.14.73.35.24,0,.44-.21.65,0-.07.41.31.48.62.38.35.17.11.55.21.79.17,0,.44,0,.51.21s.11.65-.13.83a2.19,2.19,0,0,1-1.21.14c-.24,0-.45-.21-.65-.14a.8.8,0,0,0,0,.28,5.47,5.47,0,0,1,.79,1.17c.49,1.07.73,2.24,1.28,3.28a48.29,48.29,0,0,1,1.52,5.94l0,0a1.28,1.28,0,0,0,.11-.31c.13-3.45-.31-7.22,2.48-9.53,1.24-1.07,3.11-.55,4.45,0,4.25,2.15,4.84,7,6.39,10.88a21.91,21.91,0,0,0,2.42,3.9.46.46,0,0,1,.13.41.29.29,0,0,1-.28.17,2.48,2.48,0,0,1-1-.55,11.45,11.45,0,0,1-3.08-3.46,6.4,6.4,0,0,0,1.45,3c.37.47,1.09.76.86,1.34-.09.26-.46.16-.75,0a9.7,9.7,0,0,1-1.56-1.18c-.9-.87-1.34-2-2.31-2.62a11.6,11.6,0,0,0,.93,1.48c.27.36.88,1,.83,1.34s-.38.21-.72,0a7.73,7.73,0,0,1-1.69-1.53c-.2-.24-.69-.79-.7-.58,0,.59.52.9.62,1.46,0,.2-.24.24-.41.2-.48-.07-.89-.82-1-.66-.24.35.17.88,0,1-.38.24-.72-.33-.87-.31-.41.06,0,.65-.2,1-.24.14-.45-.07-.66-.07-.52.21.11.69-.21,1-.37.15-.51-.27-.75-.37-.1.3.07.65.1,1-.24.48-.59-.11-.9-.11a1.66,1.66,0,0,1,.07.94c-.34.2-.62-.17-.9-.25-.44,0,0,.62-.2.69-.66.07-.95-.92-1.62-.73-2.46,1-.25,4.78.2,7h10.43l2.79-.52A18.66,18.66,0,0,0,168.82,77.67Zm-5.21,10.52L162.55,88l-25.62,0a17.57,17.57,0,0,0,8.31,5A18.8,18.8,0,0,0,163.61,88.19Zm-17.92-1.57h5.22a47.79,47.79,0,0,0-1.84-5.49,2,2,0,0,0-.88-1.14.82.82,0,0,0-.87,0,4,4,0,0,0-.66,1.45C146.25,83.14,146,84.86,145.69,86.62Z"></path><path class="cls-2" d="M170.32,56c.17.15.21.44.12.84a1.88,1.88,0,0,1-.42.91.69.69,0,0,1-.42.22.49.49,0,0,1-.41-.12A2.75,2.75,0,0,1,169,57a2,2,0,0,0-.41-1.1.75.75,0,0,0-.39-.21.41.41,0,0,0-.34.14c-.17.17-.08.58.25,1.2a7.73,7.73,0,0,1,.65,1.57,1.44,1.44,0,0,1-.5,1.31,2,2,0,0,1-1.45.62h-.24a3.2,3.2,0,0,1-1.94-1,6.27,6.27,0,0,1-.92-1.08,2.13,2.13,0,0,1-.4-.88,1.83,1.83,0,0,1,.21-.73,3.08,3.08,0,0,1,.48-.73l.2-.16a.33.33,0,0,1,.43.05.66.66,0,0,1,.11.62l-.13.62a1.13,1.13,0,0,0,.13.58,1.76,1.76,0,0,0,.43.66,1.1,1.1,0,0,0,.48.28.36.36,0,0,0,.37-.08c.14-.15.06-.54-.25-1.17a4.81,4.81,0,0,1-.51-1.68,1.62,1.62,0,0,1,.47-1.3,1.93,1.93,0,0,1,1.59-.59,2.79,2.79,0,0,1,1.77.82,3.72,3.72,0,0,1,.43.52l.4.63.09,0,.22.05A.21.21,0,0,1,170.32,56Z"></path><path class="cls-2" d="M165.75,95.2A1.22,1.22,0,0,1,166,96a1.39,1.39,0,0,1-.31.74,2.69,2.69,0,0,1-.63.58,2.06,2.06,0,0,1-1.34.43,1.42,1.42,0,0,1-1.08-.72l.48-.33a1,1,0,0,0,1.08.43,1.58,1.58,0,0,0,.56-.26,2.18,2.18,0,0,0,.41-.35.9.9,0,0,0,.24-.45.59.59,0,0,0-.1-.49.81.81,0,0,0-.29-.27.53.53,0,0,0-.36,0,2.93,2.93,0,0,0-.59.17l-.65.26a2.82,2.82,0,0,1-.61.18,1.13,1.13,0,0,1-.58,0,1,1,0,0,1-.48-.4,1.32,1.32,0,0,1-.24-.66,1.26,1.26,0,0,1,.14-.72,1.69,1.69,0,0,1,.63-.65,2.18,2.18,0,0,1,1.05-.44,1.22,1.22,0,0,1,.74.17,2.14,2.14,0,0,1,.49.46l-.48.33a1,1,0,0,0-.45-.34,1,1,0,0,0-.52,0,1.74,1.74,0,0,0-.48.22,1.53,1.53,0,0,0-.5.55.66.66,0,0,0,.09.7.56.56,0,0,0,.76.16l1.24-.48A1.19,1.19,0,0,1,165.75,95.2Z"></path><path class="cls-2" d="M164.21,51.79a3.47,3.47,0,0,1,.32,1.53,3.39,3.39,0,0,1-.37,1.5,2.84,2.84,0,0,1-.78,1,3,3,0,0,1-1.14.54,3.72,3.72,0,0,1-2.69-.35,3.22,3.22,0,0,1-1.66-1.91c0-.13-.07-.27-.1-.4a3.16,3.16,0,0,1,.31-2.12A3.06,3.06,0,0,1,160,50a3.34,3.34,0,0,1,2.55.25,4.25,4.25,0,0,1,1,.69A3.2,3.2,0,0,1,164.21,51.79Zm-2,.85c.06-.73-.11-1.2-.53-1.42a.69.69,0,0,0-.61,0,1.17,1.17,0,0,0-.51.54,5.1,5.1,0,0,0-.44,1.8c-.06.76.1,1.23.48,1.42a.72.72,0,0,0,.62,0,1.08,1.08,0,0,0,.5-.53A5.06,5.06,0,0,0,162.2,52.64Z"></path><polygon class="cls-2" points="162.51 98.15 162.74 98.65 160.08 99.88 158.17 95.74 158.74 95.48 160.41 99.11 162.51 98.15"></polygon><path class="cls-2" d="M157.92,98.35a3.13,3.13,0,0,1,.07.82,2.23,2.23,0,0,1-.19.84,1.72,1.72,0,0,1-.54.72,2.15,2.15,0,0,1-1,.46,2.24,2.24,0,0,1-1.06,0,1.78,1.78,0,0,1-.81-.41,2.84,2.84,0,0,1-.54-.67,3,3,0,0,1-.29-.78,2.76,2.76,0,0,1-.08-.82,2.39,2.39,0,0,1,.19-.83,2,2,0,0,1,.54-.73,2.56,2.56,0,0,1,2-.47,2,2,0,0,1,.8.41,2.45,2.45,0,0,1,.54.67A2.86,2.86,0,0,1,157.92,98.35Zm-.59,1.11a2.6,2.6,0,0,0-.43-1.86,1.67,1.67,0,0,0-.69-.52,1.56,1.56,0,0,0-.86,0,1.5,1.5,0,0,0-1.16,1.19,2.15,2.15,0,0,0,0,1,2.26,2.26,0,0,0,.39.89,1.54,1.54,0,0,0,.68.52,1.46,1.46,0,0,0,.88,0,1.42,1.42,0,0,0,.76-.42A1.45,1.45,0,0,0,157.33,99.46Z"></path><path class="cls-2" d="M157.13,53.78a.46.46,0,0,1,0,.17.59.59,0,0,1-.46.44,2.4,2.4,0,0,1-1.05,0l-.22,0a1.38,1.38,0,0,1-.93-.53,4.06,4.06,0,0,1-.36-1.48c-.09-.7-.29-1.09-.63-1.14a.23.23,0,0,0-.24.06,2.15,2.15,0,0,0-.13.51,4.27,4.27,0,0,0-.08.85.6.6,0,0,0,.23.41.41.41,0,0,1,.17.41c0,.21-.18.34-.45.38a4.16,4.16,0,0,1-1.29-.08c-1.06-.17-1.58-.45-1.58-.84v-.08q0-.18.39-.33c.24-.09.42-.49.53-1.19l.24-1.39.09-.55a5.16,5.16,0,0,0,.1-1,.59.59,0,0,0-.28-.43.43.43,0,0,1-.22-.4c.07-.36.44-.48,1.12-.37l.53.11.54.12,1.75.23a2.64,2.64,0,0,1,1.5.7,1.45,1.45,0,0,1,.4,1.28,1.4,1.4,0,0,1-.44.86l-.71.45q0,.14.33.33a1.11,1.11,0,0,1,.49.61,2.73,2.73,0,0,1,.13.87,1.58,1.58,0,0,0,0,.58.36.36,0,0,0,.21.19.84.84,0,0,1,.23.16A.25.25,0,0,1,157.13,53.78Zm-2.66-4.26c.1-.58,0-.91-.44-1-.22,0-.34.07-.38.31l-.22,1a.49.49,0,0,0,0,.25c0,.05.08.08.18.1C154.1,50.34,154.38,50.09,154.47,49.52Z"></path><path class="cls-2" d="M152.72,99.46a3.3,3.3,0,0,1-.11.82,2.54,2.54,0,0,1-.37.78,2,2,0,0,1-.7.59,2.18,2.18,0,0,1-1,.22,2.26,2.26,0,0,1-1-.21,2,2,0,0,1-.7-.58,2.53,2.53,0,0,1-.37-.78,2.65,2.65,0,0,1-.13-.82,3,3,0,0,1,.12-.82,2.38,2.38,0,0,1,.37-.77,1.9,1.9,0,0,1,.69-.59,2.26,2.26,0,0,1,1.05-.22,2.23,2.23,0,0,1,1,.22,1.87,1.87,0,0,1,.7.57,2.63,2.63,0,0,1,.38.77A3,3,0,0,1,152.72,99.46Zm-.83,1a2.34,2.34,0,0,0,.2-1,2.4,2.4,0,0,0-.2-.95,1.52,1.52,0,0,0-.56-.64,1.61,1.61,0,0,0-1.69,0,1.59,1.59,0,0,0-.55.65,2.45,2.45,0,0,0-.18,1,2.4,2.4,0,0,0,.19,1,1.58,1.58,0,0,0,.56.66,1.62,1.62,0,0,0,1.68,0A1.41,1.41,0,0,0,151.89,100.43Z"></path><path class="cls-2" d="M149.44,52.78v.09a.47.47,0,0,1-.28.41,4.19,4.19,0,0,1-1.17.39,4.46,4.46,0,0,1-1.24.14c-.26,0-.41-.13-.45-.32a.29.29,0,0,1,0-.21,2.24,2.24,0,0,1,.17-.25.67.67,0,0,0,.11-.46,5.12,5.12,0,0,0-.14-.92,3.84,3.84,0,0,0-.13-.47.13.13,0,0,0-.17-.07c-.09,0-.15.09-.2.21a5.23,5.23,0,0,0-.2.79l-.28,1.34a1.76,1.76,0,0,1-.13.47.23.23,0,0,1-.18.14c-.07,0-.17,0-.3-.17a5.91,5.91,0,0,1-.6-.74L143.4,52c-.12-.17-.22-.24-.32-.21s-.1.09-.09.26a7.27,7.27,0,0,0,.15.93,3.47,3.47,0,0,0,.17.61.44.44,0,0,0,.26.19l.27.08A.24.24,0,0,1,144,54c.07.33-.32.57-1.18.76s-1.13.07-1.2-.26a.3.3,0,0,1,.13-.31.82.82,0,0,0,.33-.41,2,2,0,0,0-.06-.63l-.42-2.42a3.59,3.59,0,0,0-.25-.85.67.67,0,0,0-.44-.28c-.21,0-.34-.15-.37-.31s.06-.37.31-.54a2.91,2.91,0,0,1,1.08-.4,2.16,2.16,0,0,1,.82-.09.93.93,0,0,1,.48.36l1.29,1.52a1.83,1.83,0,0,0,.29.29.17.17,0,0,0,.17,0c.11,0,.2-.15.27-.38l.37-1.37a2.74,2.74,0,0,1,.41-1,1.6,1.6,0,0,1,.9-.4,3.7,3.7,0,0,1,.59-.09,1.23,1.23,0,0,1,.44,0,.48.48,0,0,1,.41.37.52.52,0,0,1,0,.22.65.65,0,0,1-.18.25,1,1,0,0,0-.13.63,7.79,7.79,0,0,0,.2,1.39c.08.38.17.74.27,1.1a8.59,8.59,0,0,0,.26.86c.08.22.16.34.25.37l.28.11A.37.37,0,0,1,149.44,52.78Z"></path><polygon class="cls-2" points="147.66 97.08 146.7 101.54 146.09 101.41 146.53 99.34 144.21 98.84 143.77 100.91 143.15 100.78 144.11 96.32 144.73 96.45 144.33 98.31 146.65 98.8 147.05 96.95 147.66 97.08"></polygon><path class="cls-2" d="M142.83,96.36a1.55,1.55,0,0,1,0,1l-.54-.25a1.13,1.13,0,0,0-.11-.82,1.38,1.38,0,0,0-.64-.54l-.16,0-.17-.06a1.35,1.35,0,0,0-1.31.41,2.16,2.16,0,0,0-.48.72,2.63,2.63,0,0,0-.25.82,1.64,1.64,0,0,0,0,.67,1.12,1.12,0,0,0,.26.48,1.37,1.37,0,0,0,.42.33h0a1.4,1.4,0,0,0,1,.09,1.54,1.54,0,0,0,.78-.66l.55.25a2.14,2.14,0,0,1-.66.71,1.95,1.95,0,0,1-1.86.13,2.2,2.2,0,0,1-.78-.54,1.66,1.66,0,0,1-.38-.73,2.34,2.34,0,0,1,0-.84,3.84,3.84,0,0,1,.25-.92.25.25,0,0,1,0-.07l0-.06a2.85,2.85,0,0,1,.64-.89,2,2,0,0,1,1-.5,2.25,2.25,0,0,1,1.25.15,2.81,2.81,0,0,1,.67.45A1.79,1.79,0,0,1,142.83,96.36Z"></path><path class="cls-2" d="M140.81,55c.14.24.05.5-.27.77a6.69,6.69,0,0,1-1.12.79c-.91.52-1.46.61-1.64.3a.43.43,0,0,1-.06-.22,1,1,0,0,1,.12-.3.59.59,0,0,0,.06-.41,3.8,3.8,0,0,0-.38-.8l-.55-1-.13-.22a7.9,7.9,0,0,0-.72-1.14.79.79,0,0,0-.57-.25c-.24,0-.4-.07-.46-.21s0-.47.35-.78a6.88,6.88,0,0,1,1.09-.78c.94-.54,1.51-.62,1.71-.27a.33.33,0,0,1,0,.37l-.11.17a.6.6,0,0,0,0,.53,10.51,10.51,0,0,0,.64,1.26l.19.3.6,1a2.49,2.49,0,0,0,.4.58.69.69,0,0,0,.45.09A.41.41,0,0,1,140.81,55Z"></path><path class="cls-2" d="M138.82,94a1.22,1.22,0,0,1,.11.75,2.26,2.26,0,0,1-.26.62L138.2,95a.9.9,0,0,0,0-1,1.57,1.57,0,0,0-1.06-.65.65.65,0,0,0-.63.34.57.57,0,0,0,.12.77c.4.46.7.79.89,1a1.18,1.18,0,0,1,.13,1.59,1.22,1.22,0,0,1-.69.52,1.56,1.56,0,0,1-.8,0,2.94,2.94,0,0,1-.77-.39,2.09,2.09,0,0,1-.87-1.1,1.47,1.47,0,0,1,.3-1.26l.47.34a1,1,0,0,0-.21.61,1.06,1.06,0,0,0,.18.55,1.64,1.64,0,0,0,.44.43,2.16,2.16,0,0,0,.47.26.91.91,0,0,0,.51.07.57.57,0,0,0,.42-.28.6.6,0,0,0,.06-.72,4.21,4.21,0,0,0-.37-.48L136.3,95a4.4,4.4,0,0,1-.38-.5,1.25,1.25,0,0,1-.16-.56,1,1,0,0,1,.2-.59,1.46,1.46,0,0,1,.53-.46,1.35,1.35,0,0,1,.72-.13,2,2,0,0,1,.84.35A2.18,2.18,0,0,1,138.82,94Z"></path><path class="cls-2" d="M137.2,56.9a.56.56,0,0,1,.09.62,2.35,2.35,0,0,1-.6.87c-.44.43-.81.64-1.12.6a4.17,4.17,0,0,1-1.42-.57c-.62-.35-1.05-.41-1.29-.17a.23.23,0,0,0-.09.23,1.57,1.57,0,0,0,.33.4,4.6,4.6,0,0,0,.65.58.64.64,0,0,0,.46,0,.41.41,0,0,1,.44.1.47.47,0,0,1,0,.59,4.3,4.3,0,0,1-.82,1c-.8.8-1.36,1-1.67.74-.09-.09-.1-.26,0-.51s-.15-.63-.66-1.13l-1-1-.39-.38a4.91,4.91,0,0,0-.72-.65.59.59,0,0,0-.51,0,.41.41,0,0,1-.45,0c-.26-.26-.15-.64.34-1.12.09-.09.22-.21.41-.37s.32-.28.41-.36l1.2-1.28a2.58,2.58,0,0,1,1.45-.81,1.4,1.4,0,0,1,1.26.42,1.37,1.37,0,0,1,.45.85c0,.28,0,.56,0,.84.06.06.21,0,.46-.08a1.07,1.07,0,0,1,.77,0,2.56,2.56,0,0,1,.79.4,1.77,1.77,0,0,0,.5.31.35.35,0,0,0,.27-.06,1,1,0,0,1,.26-.09A.27.27,0,0,1,137.2,56.9Zm-5,.69c.34-.33.31-.71-.1-1.12s-.77-.48-1.05-.21-.13.32,0,.49l.72.79a.48.48,0,0,0,.2.14A.22.22,0,0,0,132.15,57.59Z"></path><path class="cls-2" d="M131.15,64c.35.2.26.8-.3,1.83s-1,1.34-1.3,1.16a.39.39,0,0,1-.19-.39A.58.58,0,0,0,129,66l-.17-.09-.44-.25-2.13-1.16a1.76,1.76,0,0,0-.55-.24c-.1,0-.23.09-.4.26a.38.38,0,0,1-.5.12c-.26-.14-.28-.42-.06-.81l.28-.48,1.12-2.3a2.64,2.64,0,0,1,1.31-1.26,1.8,1.8,0,0,1,1.58.11,1.89,1.89,0,0,1,1,1.3,2.5,2.5,0,0,1-.32,1.77,2.78,2.78,0,0,1-.24.4l-.19.29a.14.14,0,0,0,.07.2l.69.35a.58.58,0,0,0,.32.09,1,1,0,0,0,.38-.17A.42.42,0,0,1,131.15,64Zm-2.6-1.1a.77.77,0,0,0,.07-.67,1.07,1.07,0,0,0-.53-.55,1.17,1.17,0,0,0-.79-.15.9.9,0,0,0-.57.45c-.11.2-.11.33,0,.4l1.37.74q.15.09.24,0A.55.55,0,0,0,128.55,62.92Z"></path><path class="cls-2" d="M172.84,68.62a.65.65,0,0,1,0,.24.7.7,0,0,1-.12.25.5.5,0,0,1-.33.17.69.69,0,0,1-.41,0,.72.72,0,0,1-.31-.29l0,0-.52.54-.21.21a.65.65,0,0,0-.11.15l0,.1v.13l-.11,0,0-.19v-.08a.45.45,0,0,1,0-.12.34.34,0,0,1,0-.1.2.2,0,0,1,.05-.09l.1-.1.76-.74,0-.21v0l-.73.12a.21.21,0,0,0-.17.08s0,.1,0,.2v0l-.11,0,0-.44-.09-.42.11,0v0a.25.25,0,0,0,.07.18.26.26,0,0,0,.19,0l1.65-.27a.23.23,0,0,0,.18-.08.28.28,0,0,0,0-.19v0l.13,0a2.35,2.35,0,0,0,0,.28l.09.43Zm-.24.18a.61.61,0,0,0,.06-.43l0-.12-.21,0-.21,0-.57.09,0,.12a.59.59,0,0,0,.2.38.46.46,0,0,0,.4.09A.43.43,0,0,0,172.6,68.8Z"></path><path class="cls-2" d="M171.64,70.55a1.75,1.75,0,1,1,0-3.49,1.75,1.75,0,0,1,0,3.49Zm0-3.26a1.52,1.52,0,0,0-1.52,1.52,1.49,1.49,0,0,0,.62,1.21,1.5,1.5,0,0,0,2.4-1.21,1.52,1.52,0,0,0-1.5-1.52Z"></path><path class="cls-2" d="M150,105.17A30.49,30.49,0,0,1,122.74,88a30.31,30.31,0,0,1,24.52-43.29c.91-.08,1.84-.12,2.78-.12a30.47,30.47,0,0,1,27.3,17.15A30.3,30.3,0,0,1,150,105.17Zm0-59.63c-.91,0-1.82,0-2.69.12a29.37,29.37,0,0,0-23.76,42,29.35,29.35,0,0,0,55.8-12.72,29.11,29.11,0,0,0-2.89-12.73A29.54,29.54,0,0,0,150,45.54Z"></path></svg> 