<?xml version="1.0" encoding="UTF-8"?> <svg xmlns="http://www.w3.org/2000/svg" id="Layer_1" data-name="Layer 1" viewBox="0 0 300 150"><defs><style>.cls-1{fill:#333;}</style></defs><path class="cls-1" d="M121.78,68.93l-4.68,1.24c-.16-1.47-1-2.21-2.68-2.21a3.82,3.82,0,0,0-2,.49,2.11,2.11,0,0,0-1,1.15,1,1,0,0,0,.42,1.21A13.5,13.5,0,0,0,114.8,72a17.17,17.17,0,0,1,3.2,1.27A3.62,3.62,0,0,1,119.58,75a3.56,3.56,0,0,1,0,2.5,7.26,7.26,0,0,1-3.53,4.1,12.84,12.84,0,0,1-6.56,1.61c-4.26,0-6.48-1.64-6.68-4.91l4.82-1c0,1.8,1,2.7,3,2.7a4.93,4.93,0,0,0,2.34-.53,2.42,2.42,0,0,0,1.27-1.4,1.19,1.19,0,0,0-.23-1.17,5.55,5.55,0,0,0-2.36-1.09A21.54,21.54,0,0,1,108,74.47a3.64,3.64,0,0,1-1.68-1.7,3.39,3.39,0,0,1-.11-2.52,7,7,0,0,1,3.25-3.94,11.07,11.07,0,0,1,5.9-1.54Q121.54,64.77,121.78,68.93Z"></path><path class="cls-1" d="M126.52,65.63l4.79-.11L130,69.69h3.21l-.91,2.9H129.1l-1.52,4.86a12.72,12.72,0,0,0-.46,1.74.69.69,0,0,0,.3.67,2.48,2.48,0,0,0,1.39.27l1.39,0-.88,2.8a18.54,18.54,0,0,1-3,.28,6.06,6.06,0,0,1-3.18-.64,2,2,0,0,1-1-1.61,11.41,11.41,0,0,1,.63-3.08l1.63-5.26h-1.93l.9-2.9h1.93Z"></path><path class="cls-1" d="M139.06,73.89l-4.51-.34a6.48,6.48,0,0,1,3.21-3.06,11.79,11.79,0,0,1,5.16-1.08,7.64,7.64,0,0,1,3.71.72A2.25,2.25,0,0,1,148,71.78a8.24,8.24,0,0,1-.54,2.92L145.75,80a8.08,8.08,0,0,0-.65,2.93h-4.51a5.68,5.68,0,0,1,.41-2,7.59,7.59,0,0,1-5.49,2.3,4.27,4.27,0,0,1-3-.92,2.43,2.43,0,0,1-.43-2.69,5.75,5.75,0,0,1,3-3.42q2.31-1.22,7.49-1.45l.15-.5a3.22,3.22,0,0,0,.23-1.83q-.18-.51-1.2-.51A2.81,2.81,0,0,0,139.06,73.89ZM142,76.6a9.49,9.49,0,0,0-3.25.71,2.79,2.79,0,0,0-1.47,1.78c-.35,1.11,0,1.67,1.09,1.67a3,3,0,0,0,1.83-.75,5.55,5.55,0,0,0,1.59-2.76Z"></path><path class="cls-1" d="M152.62,69.69h4.3l-1,3.19q2.25-3.36,5.23-3.36a6.19,6.19,0,0,1,.81.06l-1.18,3.6c-.34,0-.61-.05-.79-.05-2.38,0-4,1.36-4.88,4.08l-1.85,5.69h-4.85Z"></path><path class="cls-1" d="M171.52,68.91,166.08,68A12.46,12.46,0,0,1,177.9,61c2.92,0,4.93.61,6,1.83a4.19,4.19,0,0,1,.77,4.47,11.88,11.88,0,0,1-4.29,5.33Q177,75.18,169,78.68h12.31l-1.88,4.22h-18.2l1.39-4.22q9.5-5.09,12.14-7.18a9.22,9.22,0,0,0,3.27-4q.9-2.69-1.79-2.69a3.78,3.78,0,0,0-2.71,1.06A10,10,0,0,0,171.52,68.91Z"></path><path class="cls-1" d="M204.29,68.93l-4.72,1.24c-.1-1.47-1-2.21-2.6-2.21a3.93,3.93,0,0,0-2,.49,2.24,2.24,0,0,0-1.05,1.15,1,1,0,0,0,.37,1.21A13.33,13.33,0,0,0,197.2,72a16.33,16.33,0,0,1,3.16,1.27A3.45,3.45,0,0,1,201.88,75a3.6,3.6,0,0,1-.06,2.5,7.59,7.59,0,0,1-3.68,4.1,13.14,13.14,0,0,1-6.62,1.61q-6.37,0-6.5-4.91l4.85-1c-.05,1.8.9,2.7,2.86,2.7a5,5,0,0,0,2.36-.53,2.55,2.55,0,0,0,1.32-1.4,1.18,1.18,0,0,0-.19-1.17,5.3,5.3,0,0,0-2.32-1.09,21.15,21.15,0,0,1-3.59-1.33,3.51,3.51,0,0,1-1.62-1.7,3.41,3.41,0,0,1,0-2.52,7.3,7.3,0,0,1,3.39-3.94,11.32,11.32,0,0,1,6-1.54Q204.2,64.77,204.29,68.93Z"></path><path class="cls-1" d="M209.15,65.63l4.79-.11-1.45,4.17h3.22l-1,2.9h-3.22l-1.69,4.86a14.13,14.13,0,0,0-.53,1.74.68.68,0,0,0,.29.67,2.42,2.42,0,0,0,1.38.27l1.39,0-1,2.8a18.77,18.77,0,0,1-3.06.28,5.89,5.89,0,0,1-3.15-.64,1.9,1.9,0,0,1-.94-1.61,11.16,11.16,0,0,1,.74-3.08l1.82-5.26h-1.94l1-2.9h1.94Z"></path><path class="cls-1" d="M221.4,73.89l-4.5-.34a6.81,6.81,0,0,1,3.32-3.06,12,12,0,0,1,5.19-1.08,7.54,7.54,0,0,1,3.7.72,2.12,2.12,0,0,1,1.28,1.65,8.31,8.31,0,0,1-.65,2.92L227.87,80a8.14,8.14,0,0,0-.75,2.93h-4.51a5.75,5.75,0,0,1,.47-2,7.82,7.82,0,0,1-5.57,2.3,4.14,4.14,0,0,1-3-.92,2.41,2.41,0,0,1-.33-2.69,6,6,0,0,1,3.13-3.42c1.56-.81,4.08-1.29,7.53-1.45l.18-.5a3.37,3.37,0,0,0,.3-1.83c-.12-.34-.51-.51-1.19-.51A2.93,2.93,0,0,0,221.4,73.89Zm2.8,2.71a9.76,9.76,0,0,0-3.28.71,3,3,0,0,0-1.53,1.78c-.39,1.11,0,1.67,1,1.67a3.1,3.1,0,0,0,1.86-.75A5.89,5.89,0,0,0,224,77.25Z"></path><path class="cls-1" d="M235.11,69.69h4.29l-1.15,3.19q2.37-3.36,5.35-3.36a6.19,6.19,0,0,1,.81.06l-1.3,3.6c-.35,0-.61-.05-.8-.05q-3.56,0-5,4.08l-2,5.69h-4.85Z"></path><path class="cls-1" d="M103.28,91.39l1.56.07a3.54,3.54,0,0,1-1.3,1.64,3.61,3.61,0,0,1-2.1.63,2,2,0,0,1-1.94-.85,2.9,2.9,0,0,1-.06-2.33,4.85,4.85,0,0,1,1.46-2.34,3.76,3.76,0,0,1,2.49-.85c1.63,0,2.28.8,1.94,2.39l-1.6.09c.24-.91,0-1.37-.67-1.37a1.4,1.4,0,0,0-1,.44,4.31,4.31,0,0,0-.84,1.72,2.82,2.82,0,0,0-.18,1.57.72.72,0,0,0,.75.43C102.42,92.63,102.91,92.21,103.28,91.39Z"></path><path class="cls-1" d="M115.57,90.54q-1,3.19-3.81,3.19a2,2,0,0,1-1.88-.81,3.1,3.1,0,0,1,0-2.38c.65-2.12,1.93-3.18,3.82-3.18a2,2,0,0,1,1.87.8A3,3,0,0,1,115.57,90.54Zm-1.81,0a3.6,3.6,0,0,0,.27-1.66.6.6,0,0,0-.66-.41,1.19,1.19,0,0,0-.91.41,4.82,4.82,0,0,0-.75,1.66,3.87,3.87,0,0,0-.27,1.66.59.59,0,0,0,.65.43,1.17,1.17,0,0,0,.91-.42A4.76,4.76,0,0,0,113.76,90.54Z"></path><path class="cls-1" d="M121.78,87.46h2.52l-.08,3.81,2.44-3.81h2.44l-1.94,6.17h-1.6l1.62-5.17L124,93.63h-1.25l.16-5.17-1.62,5.17h-1.39Z"></path><path class="cls-1" d="M134.64,87.46h2.52l-.1,3.81,2.46-3.81H142l-2,6.17h-1.61L140,88.46l-3.24,5.17h-1.25l.18-5.17-1.64,5.17h-1.4Z"></path><path class="cls-1" d="M147.5,87.46h1.72L148.08,91a4.79,4.79,0,0,0-.25,1,.49.49,0,0,0,.21.44,1,1,0,0,0,.62.16,1.56,1.56,0,0,0,.74-.17,1.12,1.12,0,0,0,.45-.44,7.21,7.21,0,0,0,.39-1l1.14-3.53h1.44l-1.12,3.47a8,8,0,0,1-.66,1.56,2.43,2.43,0,0,1-1.06.87,4,4,0,0,1-1.82.37,3.3,3.3,0,0,1-1.52-.27,1,1,0,0,1-.58-.76,4.19,4.19,0,0,1,.3-1.71Z"></path><path class="cls-1" d="M158.29,87.46h1.91L161,91.3l1.26-3.84h1.33l-2,6.17H160l-.91-4.46-1.47,4.46h-1.32Z"></path><path class="cls-1" d="M169,87.46h1.73l-2.06,6.17H167Z"></path><path class="cls-1" d="M178.76,91.39l1.56.07a3.74,3.74,0,0,1-3.48,2.27,2,2,0,0,1-1.91-.85,2.87,2.87,0,0,1,0-2.33,5,5,0,0,1,1.54-2.34,3.87,3.87,0,0,1,2.51-.85c1.64,0,2.26.8,1.87,2.39l-1.6.09c.26-.91,0-1.37-.63-1.37a1.47,1.47,0,0,0-1,.44,4.38,4.38,0,0,0-.89,1.72,2.93,2.93,0,0,0-.24,1.57.7.7,0,0,0,.74.43C177.86,92.63,178.37,92.21,178.76,91.39Z"></path><path class="cls-1" d="M188.21,87.46h1.73l.13,6.17h-1.76l.05-1.27h-2.2l-.82,1.27h-1.58Zm.18,3.84.07-2.53-1.61,2.53Z"></path><path class="cls-1" d="M195.79,87.46h4.89l-.4,1.16h-1.6l-1.73,5h-1.72l1.73-5H195.4Z"></path><path class="cls-1" d="M205.33,87.46h1.72l-2.15,6.17h-1.72Z"></path><path class="cls-1" d="M216.9,90.54q-1.12,3.19-4,3.19a1.89,1.89,0,0,1-1.84-.81,3.12,3.12,0,0,1,.12-2.38q1.11-3.18,3.95-3.18a1.93,1.93,0,0,1,1.84.8A3,3,0,0,1,216.9,90.54Zm-1.81,0a3.87,3.87,0,0,0,.34-1.66c-.07-.27-.28-.41-.64-.41a1.25,1.25,0,0,0-.93.41,5.18,5.18,0,0,0-.83,1.66,3.82,3.82,0,0,0-.34,1.66.57.57,0,0,0,.63.43,1.23,1.23,0,0,0,.93-.42A5.09,5.09,0,0,0,215.09,90.54Z"></path><path class="cls-1" d="M223.18,87.46h1.91l.64,3.84,1.37-3.84h1.33l-2.21,6.17h-1.53l-.79-4.46-1.59,4.46H221Z"></path><path class="cls-1" d="M238.2,88.8l-1.58.43c0-.51-.29-.76-.83-.76a1.3,1.3,0,0,0-.66.17.81.81,0,0,0-.37.39.35.35,0,0,0,.11.42,4,4,0,0,0,.95.41,5.62,5.62,0,0,1,1,.44,1.11,1.11,0,0,1,.48.59,1.26,1.26,0,0,1,0,.87A2.74,2.74,0,0,1,236,93.18a4.4,4.4,0,0,1-2.22.55c-1.41,0-2.11-.57-2.1-1.7l1.62-.34c0,.63.27.94.92.94a1.68,1.68,0,0,0,.79-.19.87.87,0,0,0,.45-.48.4.4,0,0,0,0-.4,1.64,1.64,0,0,0-.76-.38,6.73,6.73,0,0,1-1.18-.46,1.13,1.13,0,0,1-.51-.59,1.25,1.25,0,0,1,0-.87,2.64,2.64,0,0,1,1.17-1.36,3.74,3.74,0,0,1,2-.54C237.54,87.36,238.21,87.84,238.2,88.8Z"></path><path class="cls-1" d="M93.4,68.15c-.12,6.06-8.63,9.08-21.41,9.08a47.77,47.77,0,0,1-17-3c-1-.39-.85-.54.08-.27a50.12,50.12,0,0,0,12.15,1.75C80.58,76.25,90,71.58,90,66.49a5.35,5.35,0,0,0-2.21-4C91.27,64,93.4,66,93.4,68.15Z"></path><path class="cls-1" d="M94.91,81.38c-.57,4.87-5.84,8.3-18.09,8.3a48.72,48.72,0,0,1-16.58-3.17c-1.17-.46-1.05-.65,0-.33A50.59,50.59,0,0,0,71.2,88c11.41.87,20.72-4.14,20.72-9.25a5.49,5.49,0,0,0-2-4C93.09,76.3,95,78.72,94.91,81.38Z"></path><path class="cls-1" d="M75.85,64c-1.53-2.15-4-5-5.17-5.66s-5-1.07-7.89-1.17c-.38,0-.44-.33-.1-.38,2.5-.36,5.56-.84,5.45-2a14.4,14.4,0,0,0-1.9-4.55c-.12-.2.19-.39.33-.22A32.19,32.19,0,0,0,71,54.65c1.41,1.05,4.65,1.41,7.31,1.56.22,0,.34.3.14.31-2.34.19-4.89.64-5.1,1.32s1.44,3.76,2.71,6C76.17,64,76,64.14,75.85,64Z"></path><path class="cls-1" d="M75,100.08c6.62-1.17,9.69-12.4,6.6-24.76C79.64,67.6,75.19,61.17,71,57.72a34.18,34.18,0,0,1,7.7,14.94c3,12.15-.26,23-7.34,24.28a9.43,9.43,0,0,1-6.06-1.17C68.26,98.77,72,100.61,75,100.08Z"></path><path class="cls-1" d="M66,99.19a19.74,19.74,0,0,0-3.43-3.59c-1-.57-3.93-.84-6.24-.94-.38,0-.43-.29-.07-.34,2-.3,4.3-.69,4.24-1.65A12.36,12.36,0,0,0,59,89.1a.17.17,0,1,1,.29-.19,24.87,24.87,0,0,0,3.52,3.71c1.08.8,3.46,1.11,5.56,1.25.32,0,.38.29.06.32-1.78.18-3.54.52-3.7,1s.75,2.23,1.65,3.84C66.57,99.44,66.27,99.55,66,99.19Z"></path><path class="cls-1" d="M247.81,64.68a2.39,2.39,0,0,1-.32,1.19,2.38,2.38,0,0,1-4.1,0,2.39,2.39,0,0,1-.32-1.19,2.35,2.35,0,0,1,.32-1.18,2.27,2.27,0,0,1,.87-.87,2.4,2.4,0,0,1,2.36,0,2.27,2.27,0,0,1,.87.87A2.35,2.35,0,0,1,247.81,64.68Zm-.46,0a1.91,1.91,0,1,0-.56,1.35A1.84,1.84,0,0,0,247.35,64.68Zm-3-1.26h1.13a1,1,0,0,1,.69.19.65.65,0,0,1,.22.52.63.63,0,0,1-.16.44,1.06,1.06,0,0,1-.52.27.64.64,0,0,1,.21.12.91.91,0,0,1,.2.25l.41.74h-.74a5.77,5.77,0,0,0-.49-.87.34.34,0,0,0-.25-.14H245v1h-.63Zm.63,1.07h.27a.6.6,0,0,0,.38-.09.27.27,0,0,0,.12-.23.3.3,0,0,0-.11-.23.65.65,0,0,0-.37-.08H245Z"></path></svg> 